<svg xmlns="http://www.w3.org/2000/svg" width="800" height="800"><linearGradient id="a" gradientUnits="userSpaceOnUse" x1="507.558" y1="321.433" x2="527.691" y2="321.433"><stop offset="0" stop-color="#e65f5c"/><stop offset="1" stop-color="#faf287"/></linearGradient><path d="M523.7 334.6h-12.1c-.8 0-1.5-.6-1.6-1.4l-2.4-24.9h20.1l-2.4 24.9c-.1.8-.8 1.4-1.6 1.4z" fill="url(#a)"/><linearGradient id="b" gradientUnits="userSpaceOnUse" x1="506.022" y1="307.95" x2="529.227" y2="307.95"><stop offset="0" stop-color="#e65f5c"/><stop offset="1" stop-color="#faf287"/></linearGradient><path d="M527.7 311.4h-20.1c-.9 0-1.6-.7-1.6-1.6V306c0-.9.7-1.6 1.6-1.6h20.1c.9 0 1.6.7 1.6 1.6v3.8c-.1.9-.8 1.6-1.6 1.6z" fill="url(#b)"/><linearGradient id="c" gradientUnits="userSpaceOnUse" x1="333.437" y1="296.773" x2="381.565" y2="296.773"><stop offset="0" stop-color="#e65f5c"/><stop offset="1" stop-color="#faf287"/></linearGradient><path d="M381.6 307.8h-48.1v-14.6c15.2-10.6 28.7-9.7 46.4.9l1.7 13.7z" fill="url(#c)"/><linearGradient id="d" gradientUnits="userSpaceOnUse" x1="310.181" y1="547.013" x2="322.295" y2="547.013"><stop offset="0" stop-color="#e65f5c"/><stop offset="1" stop-color="#faf287"/></linearGradient><path fill="url(#d)" d="M322.3 567.3h-10.5l-1.6-40.6h12.1z"/><linearGradient id="e" gradientUnits="userSpaceOnUse" x1="291.007" y1="570.72" x2="324.98" y2="570.72"><stop offset="0" stop-color="#e65f5c"/><stop offset="1" stop-color="#faf287"/></linearGradient><path d="M325 577.5h-34v-.4c0-7.3 5.9-13.2 13.2-13.2h20.7l.1 13.6z" fill="url(#e)"/><linearGradient id="f" gradientUnits="userSpaceOnUse" x1="381.636" y1="547.013" x2="393.75" y2="547.013"><stop offset="0" stop-color="#e65f5c"/><stop offset="1" stop-color="#faf287"/></linearGradient><path fill="url(#f)" d="M381.6 567.3h10.6l1.5-40.6h-12.1z"/><linearGradient id="g" gradientUnits="userSpaceOnUse" x1="378.951" y1="570.72" x2="412.924" y2="570.72"><stop offset="0" stop-color="#e65f5c"/><stop offset="1" stop-color="#faf287"/></linearGradient><path d="M379 563.9h20.7c7.3 0 13.2 5.9 13.2 13.2v.4h-34l.1-13.6z" fill="url(#g)"/><linearGradient id="h" gradientUnits="userSpaceOnUse" x1="306.448" y1="487.513" x2="400.051" y2="487.513"><stop offset="0" stop-color="#e65f5c"/><stop offset="1" stop-color="#faf287"/></linearGradient><path d="M381.9 562.1c-1.8 0-3.4-1.3-3.8-3L352 445.2c-.1-.6-.6-1-1.3-1-.6 0-1.1.4-1.3 1l-24 113.1c-.4 1.8-2 3.1-3.8 3.1h-11.4c-2.1 0-3.9-1.7-3.9-3.9v-.2l8.5-143.4 3.4-1h.1l67.3.6L400 556.7c.2 2.1-1.3 4-3.5 4.2h-.1l-14.3 1.2h-.2z" fill="url(#h)"/><linearGradient id="i" gradientUnits="userSpaceOnUse" x1="333.033" y1="260.535" x2="375.249" y2="260.535"><stop offset="0" stop-color="#e65f5c"/><stop offset="1" stop-color="#faf287"/></linearGradient><circle cx="354.1" cy="260.5" r="21.1" fill="url(#i)"/><linearGradient id="j" gradientUnits="userSpaceOnUse" x1="315.186" y1="358.935" x2="391.334" y2="358.935"><stop offset="0" stop-color="#0d152c"/><stop offset="1" stop-color="#000024"/></linearGradient><path d="M341.2 429.6c-3.7 0-7.4-.5-10.9-1.5a23.7 23.7 0 0 1-14.6-12.4c-.5-.9-.6-1.9-.3-2.9 2.3-7.9 13.6-49.2 6.4-82.1-2-9.2-.3-18.9 4.9-26.7 5.1-7.8 13.1-13.2 22.3-15l3.6-.6c10.1-1.2 20.3 2.1 27.7 9.1 7.6 7.2 11.7 17.4 11 27.8l-5.5 88.5c-.1 1.4-.9 2.6-2.1 3.2-6.4 3.5-25.5 12.6-42.5 12.6z" fill="url(#j)"/><linearGradient id="k" gradientUnits="userSpaceOnUse" x1="329.935" y1="251.599" x2="378.121" y2="251.599"><stop offset="0" stop-color="#e65f5c"/><stop offset="1" stop-color="#faf287"/></linearGradient><path d="M378 245c-4.5-11.4-16.4-18-28.4-16l6.7 5.4c-8.3.3-17-.3-22.9 5.5 1.9-.1 4.3 4 6.2 3.9-3.5.1-6.7 2.5-8.3 5.7-1.4 3.2-1.8 6.9-1 10.3.7 3.4 6 11.5 7.4 14.7-.2-8.4 16.3-28.4 24.4-26.3-4.1 1.5-7.7 4.2-10.2 7.8 5.5-2.8 11.7-3.8 17.8-2.9 1.4.3 2.8.4 4.2.2 2.8-.6 4.6-3.3 4.1-6.1-.2-.8-.5-1.5-1-2.2h1z" fill="url(#k)"/><linearGradient id="l" gradientUnits="userSpaceOnUse" x1="295.83" y1="357.676" x2="351.075" y2="357.676"><stop offset="0" stop-color="#e65f5c"/><stop offset="1" stop-color="#faf287"/></linearGradient><path d="M339.8 424.3c-.5 0-1.1-.1-1.5-.3l-40-17.5c-1.8-.8-2.7-2.7-2.2-4.5l26.5-100.2c2-7.7 10-12.4 17.7-10.3.1 0 .2.1.3.1l10.6 3-7.5 126.1c-.1 1.3-.8 2.4-1.8 3.1-.7.3-1.4.5-2.1.5z" fill="url(#l)"/><linearGradient id="m" gradientUnits="userSpaceOnUse" x1="358.773" y1="357.675" x2="414.014" y2="357.675"><stop offset="0" stop-color="#e65f5c"/><stop offset="1" stop-color="#faf287"/></linearGradient><path d="M413.9 402l-1.8-6.6-2.6-9.7-1.2-4.6-2.6-9.6-18.4-69.6c-2-7.7-10-12.3-17.7-10.3-.1 0-.2.1-.3.1l-10.6 3 5.3 88.7.5 9.3.3 5.8.5 9.2.8 13.1c.1 2 1.8 3.6 3.9 3.6.5 0 1.1-.1 1.5-.3l40-17.5c1.9-.8 2.9-2.8 2.4-4.6z" fill="url(#m)"/><linearGradient id="n" gradientUnits="userSpaceOnUse" x1="364.023" y1="381.974" x2="408.335" y2="381.974"><stop offset="0" stop-color="#0d152c"/><stop offset="1" stop-color="#000024"/></linearGradient><path fill="url(#n)" d="M408.3 381l-43.7 11.5-.6-9.2 41.8-11.9z"/><linearGradient id="o" gradientUnits="userSpaceOnUse" x1="364.909" y1="396.631" x2="412.116" y2="396.631"><stop offset="0" stop-color="#0d152c"/><stop offset="1" stop-color="#000024"/></linearGradient><path fill="url(#o)" d="M412.1 395.3l-46.6 12.3-.6-9.2 44.7-12.7z"/><linearGradient id="p" gradientUnits="userSpaceOnUse" x1="301.812" y1="383.216" x2="345.281" y2="383.216"><stop offset="0" stop-color="#0d152c"/><stop offset="1" stop-color="#000024"/></linearGradient><path fill="url(#p)" d="M345.3 385.3l-.6 9.1-42.9-12.8 2.5-9.5z"/><linearGradient id="q" gradientUnits="userSpaceOnUse" x1="298.064" y1="397.791" x2="344.386" y2="397.791"><stop offset="0" stop-color="#0d152c"/><stop offset="1" stop-color="#000024"/></linearGradient><path fill="url(#q)" d="M344.4 400.3l-43.8-14.1-2.5 9.5 45.8 13.7z"/><linearGradient id="r" gradientUnits="userSpaceOnUse" x1="289.659" y1="369.75" x2="327.992" y2="369.75"><stop offset="0" stop-color="#e65f5c"/><stop offset="1" stop-color="#faf287"/></linearGradient><path d="M301.3 409.8c4.9-1.3 7.9-6.3 6.6-11.3-.1-.5-.3-1-.5-1.5l20.6-64.6-14.6-3.1-18.9 63.4c-4.5 2.4-6.2 8.1-3.7 12.6 2 3.8 6.4 5.7 10.5 4.5z" fill="url(#r)"/><linearGradient id="s" gradientUnits="userSpaceOnUse" x1="307.199" y1="321.926" x2="334.318" y2="321.926"><stop offset="0" stop-color="#e65f5c"/><stop offset="1" stop-color="#faf287"/></linearGradient><path d="M328.6 300.6c4.2.4 6.6 5.1 5.5 11l-5 28.2c-.4 2.1-2.1 3.8-3.6 3.4l-16.9-4.2c-1.3-.3-1.8-2.2-1-4l10.2-25.5c2.1-5.6 6.7-9.3 10.8-8.9z" fill="url(#s)"/><linearGradient id="t" gradientUnits="userSpaceOnUse" x1="326.562" y1="239.505" x2="388.44" y2="239.505"><stop offset="0" stop-color="#e65f5c"/><stop offset="1" stop-color="#faf287"/></linearGradient><path d="M354.1 221c14.9 0 27 11.8 27.5 26.6h5.2c.9 0 1.7.8 1.7 1.7v6.9c0 .9-.8 1.7-1.7 1.7h-58.4c-.9 0-1.7-.8-1.7-1.7v-7.7c-.1-15.2 12.2-27.5 27.4-27.5z" fill="url(#t)"/><linearGradient id="u" gradientUnits="userSpaceOnUse" x1="341.209" y1="377.853" x2="361.342" y2="377.853"><stop offset="0" stop-color="#e65f5c"/><stop offset="1" stop-color="#faf287"/></linearGradient><path d="M357.3 391h-12.1c-.8 0-1.5-.6-1.6-1.4l-2.4-24.9h20.1l-2.4 24.9c-.1.8-.7 1.4-1.6 1.4z" fill="url(#u)"/><linearGradient id="v" gradientUnits="userSpaceOnUse" x1="339.673" y1="364.37" x2="362.877" y2="364.37"><stop offset="0" stop-color="#e65f5c"/><stop offset="1" stop-color="#faf287"/></linearGradient><path d="M361.3 367.8h-20.1c-.9 0-1.6-.7-1.6-1.6v-3.8c0-.9.7-1.6 1.6-1.6h20.1c.9 0 1.6.7 1.6 1.6v3.8c0 .9-.7 1.6-1.6 1.6z" fill="url(#v)"/><linearGradient id="w" gradientUnits="userSpaceOnUse" x1="341.54" y1="365.395" x2="403.755" y2="365.395"><stop offset="0" stop-color="#e65f5c"/><stop offset="1" stop-color="#faf287"/></linearGradient><path d="M351.5 377.7c.5.1.9.1 1.4.3l32.4-27.7-1.9-10.2 15-4.9 5.1 17.7c.8 2.9-.3 6.1-2.9 7.7l-41 25.9c.1 5-3.9 9.1-8.9 9.2-5 .1-9.1-3.9-9.2-8.9-.1-5 3.9-9.1 8.9-9.2.4 0 .8 0 1.1.1z" fill="url(#w)"/><linearGradient id="x" gradientUnits="userSpaceOnUse" x1="378.127" y1="324.39" x2="403.164" y2="324.39"><stop offset="0" stop-color="#e65f5c"/><stop offset="1" stop-color="#faf287"/></linearGradient><path d="M385.4 302.9c4.5-1.3 9 2.2 10.5 8l7.2 27.9c.5 2.1-.5 4.3-2.1 4.5l-19.2 2.8c-1.5.2-2.8-1.3-2.8-3.3l-.7-27.4c-.3-6 2.7-11.2 7.1-12.5z" fill="url(#x)"/><linearGradient id="y" gradientUnits="userSpaceOnUse" x1="622.162" y1="451.853" x2="679.869" y2="451.853"><stop offset="0" stop-color="#e65f5c"/><stop offset="1" stop-color="#faf287"/></linearGradient><path d="M643.1 481c-8.8-11.7-15.8-24.8-20.7-38.6-.6-1.7.2-3.6 1.7-4.5l30.2-16.2c1-.5 2.2-.6 3.2-.1s1.8 1.4 2.1 2.5c3.5 13.3 10.1 25.7 19.3 36 .8.9 1.1 2 .9 3.1-.2 1.1-.9 2.1-1.9 2.6L647.7 482c-1.6.8-3.5.4-4.6-1z" fill="url(#y)"/><linearGradient id="z" gradientUnits="userSpaceOnUse" x1="624.739" y1="451.853" x2="677.29" y2="451.853"><stop offset="0" stop-color="#e65f5c"/><stop offset="1" stop-color="#faf287"/></linearGradient><path d="M645.1 479.4c.3.4.9.5 1.4.3l30.2-16.2c.3-.2.5-.4.6-.8.1-.3 0-.7-.3-1-9.4-10.6-16.2-23.3-19.9-37.1-.1-.3-.3-.6-.7-.8-.3-.1-.7-.1-1 0L625.2 440c-.5.3-.7.8-.5 1.3 4.9 13.8 11.7 26.6 20.4 38.1z" fill="url(#z)"/><linearGradient id="A" gradientUnits="userSpaceOnUse" x1="635.817" y1="445.631" x2="657.831" y2="445.631"><stop offset="0" stop-color="#0d152c"/><stop offset="1" stop-color="#000024"/></linearGradient><path d="M656.3 444.8l-16.5 7.3c-1.3.6-2.8 0-3.4-1.3l-.4-.9c-.6-1.3 0-2.8 1.3-3.4l16.5-7.3c1.3-.6 2.8 0 3.4 1.3l.4.9c.6 1.3 0 2.8-1.3 3.4z" fill="url(#A)"/><linearGradient id="B" gradientUnits="userSpaceOnUse" x1="641.833" y1="456.804" x2="663.847" y2="456.804"><stop offset="0" stop-color="#0d152c"/><stop offset="1" stop-color="#000024"/></linearGradient><path d="M662.3 456l-16.5 7.3c-1.3.6-2.8 0-3.4-1.3l-.4-.9c-.6-1.3 0-2.8 1.3-3.4l16.5-7.3c1.3-.6 2.8 0 3.4 1.3l.4.9c.6 1.3 0 2.8-1.3 3.4z" fill="url(#B)"/><linearGradient id="C" gradientUnits="userSpaceOnUse" x1="615.018" y1="391.188" x2="638.083" y2="391.188"><stop offset="0" stop-color="#e65f5c"/><stop offset="1" stop-color="#faf287"/></linearGradient><path d="M623.7 446.7c-4.3-2.8-5.5-8.5-2.8-12.8.3-.5.6-.9 1-1.3l-6.9-98.5 20 1.9.5 96.4c3.5 3.7 3.3 9.6-.4 13.1-3 3.1-7.8 3.5-11.4 1.2z" fill="url(#C)"/><linearGradient id="D" gradientUnits="userSpaceOnUse" x1="616.464" y1="347.283" x2="643.971" y2="347.283"><stop offset="0" stop-color="#e65f5c"/><stop offset="1" stop-color="#faf287"/></linearGradient><path d="M619.5 367.3c-.9-.7-1.5-1.8-1.6-2.9l-1.5-26.5c-.3-5.9 4.2-10.9 10.1-11.2 5-.3 9.6 3 10.9 7.9l6.4 23.7c.6 2.1-.7 4.2-2.7 4.7l-18.3 5c-1.1.2-2.3 0-3.3-.7z" fill="url(#D)"/><linearGradient id="E" gradientUnits="userSpaceOnUse" x1="569.933" y1="547.401" x2="585.484" y2="547.401"><stop offset="0" stop-color="#e65f5c"/><stop offset="1" stop-color="#faf287"/></linearGradient><path fill="url(#E)" d="M585.5 567.7h-10.6l-5-40.6h15.6z"/><linearGradient id="F" gradientUnits="userSpaceOnUse" x1="554.626" y1="571.107" x2="587.74" y2="571.107"><stop offset="0" stop-color="#e65f5c"/><stop offset="1" stop-color="#faf287"/></linearGradient><path d="M567.4 564.7h20.3v12.8h-33.1c0-7.1 5.8-12.8 12.8-12.8z" fill="url(#F)"/><linearGradient id="G" gradientUnits="userSpaceOnUse" x1="609.466" y1="547.401" x2="625.017" y2="547.401"><stop offset="0" stop-color="#e65f5c"/><stop offset="1" stop-color="#faf287"/></linearGradient><path fill="url(#G)" d="M625 567.7h-10.5l-5-40.6H625z"/><linearGradient id="H" gradientUnits="userSpaceOnUse" x1="594.159" y1="571.107" x2="627.273" y2="571.107"><stop offset="0" stop-color="#e65f5c"/><stop offset="1" stop-color="#faf287"/></linearGradient><path d="M607 564.7h20.3v12.8h-33.1c0-7.1 5.7-12.8 12.8-12.8z" fill="url(#H)"/><linearGradient id="I" gradientUnits="userSpaceOnUse" x1="565.491" y1="484.429" x2="629.049" y2="484.429"><stop offset="0" stop-color="#e65f5c"/><stop offset="1" stop-color="#faf287"/></linearGradient><path d="M585 547.2l-11.6-.6c-2.1-.1-3.7-1.8-3.7-3.8-3.1-47.2-7.3-97.8-.8-117.4 0-2.1 1.7-3.9 3.8-3.9h.6l46.4 6.7c1.9.3 3.3 1.9 3.3 3.8 5.9 23.1 6.2 65.1 6 108.7 0 2.1-1.7 3.9-3.8 3.9h-12.5c-1.9 0-3.5-1.4-3.8-3.3l-7.7-49c-.3-1.6-1.8-2.8-3.4-2.5-1.3.2-2.4 1.3-2.5 2.6l-6.1 51.2c-.2 1.9-1.9 3.4-3.8 3.4-.3.3-.4.3-.4.2z" fill="url(#I)"/><linearGradient id="J" gradientUnits="userSpaceOnUse" x1="567.619" y1="374.581" x2="635.181" y2="374.581"><stop offset="0" stop-color="#e65f5c"/><stop offset="1" stop-color="#faf287"/></linearGradient><path d="M593.1 432.2c-10.2-5.7-18.2-7.2-22.1-7.6-1-.1-2-.6-2.6-1.4-.7-.8-.9-1.9-.8-2.9l11.1-82.5c1.3-9.8 7.6-18.3 16.6-22.3 8.8-4 19-3.2 27 2.1.4.3.8.5 1.1.8a28.5 28.5 0 0 1 10.9 29.7c-6.8 27.9-9.2 73.6-9.6 82.5-.1 1.5-1.1 2.9-2.5 3.4-4.2 1.5-8.6 2.3-13.1 2.3-5.5 0-11-1.4-16-4.1z" fill="url(#J)"/><linearGradient id="K" gradientUnits="userSpaceOnUse" x1="581.342" y1="283.094" x2="623.558" y2="283.094"><stop offset="0" stop-color="#e65f5c"/><stop offset="1" stop-color="#faf287"/></linearGradient><circle cx="602.4" cy="283.1" r="21.1" fill="url(#K)"/><linearGradient id="L" gradientUnits="userSpaceOnUse" x1="578.136" y1="277.301" x2="627.47" y2="277.301"><stop offset="0" stop-color="#e65f5c"/><stop offset="1" stop-color="#faf287"/></linearGradient><path d="M617.4 299.8c-3.9 4.2-11.3 1.9-11.8-3.8v-1.3c.3-2.5 1.7-4.8 1.4-7.5-.1-.7-.3-1.3-.7-1.8-3.1-4.2-10.5 1.9-13.5-1.9-1.8-2.3.3-6-1.1-8.6-1.8-3.4-7.3-1.7-10.7-3.6-3.8-2.1-3.6-7.9-1.1-11.5 3.1-4.3 8.4-6.6 13.7-7 5.3-.3 10.5 1.1 15.5 3 5.6 2.2 11.2 5.2 14.6 10.1 4.2 6 4.6 14 2.5 21.1-1.2 4.2-5.6 9.4-8.8 12.8z" fill="url(#L)"/><linearGradient id="M" gradientUnits="userSpaceOnUse" x1="557.278" y1="367.161" x2="634.111" y2="367.161"><stop offset="0" stop-color="#e65f5c"/><stop offset="1" stop-color="#faf287"/></linearGradient><path d="M634.1 320.3c-.4-1.7-3.5-4.1-8.1-6-14.8-6-31.6-4.6-45.1 3.9-1 .1-1.8.7-2 1.7l-15.3 67.5-2 8.8-1.3 5.8-2 8.8-1.1 4.7c-.3 1.2.5 2.3 1.6 2.6h.3l65.9 5.7h.2c1.1 0 2.1-.9 2.1-2l.6-9.5.7-10.2.3-4.4.7-10.2 4.4-66.9.1-.3z" fill="url(#M)"/><linearGradient id="N" gradientUnits="userSpaceOnUse" x1="508.154" y1="342.957" x2="581.622" y2="342.957"><stop offset="0" stop-color="#e65f5c"/><stop offset="1" stop-color="#faf287"/></linearGradient><path d="M526 324.6c.1.5.2.9.2 1.4l36.9 21.3 9-5.2 9.6 12.5-19.2 13.7-42.1-33.2c-4.7 1.7-9.9-.7-11.6-5.3-1.7-4.7.7-9.9 5.3-11.6s9.9.7 11.6 5.3c.1.3.2.7.3 1.1z" fill="url(#N)"/><linearGradient id="O" gradientUnits="userSpaceOnUse" x1="564.379" y1="339.824" x2="602.493" y2="339.824"><stop offset="0" stop-color="#e65f5c"/><stop offset="1" stop-color="#faf287"/></linearGradient><path d="M564.4 345.5c-.1-1.2.3-2.3 1.1-3.1l18.8-18.8c4.2-4.2 10.9-4.2 15.1 0 3.6 3.6 4.1 9.1 1.4 13.3l-13.4 20.6c-1.2 1.8-3.6 2.3-5.3 1.1l-15.9-10.3c-1-.6-1.7-1.7-1.8-2.8z" fill="url(#O)"/><linearGradient id="P" gradientUnits="userSpaceOnUse" x1="561.688" y1="392.416" x2="629.719" y2="392.416"><stop offset="0" stop-color="#0d152c"/><stop offset="1" stop-color="#000024"/></linearGradient><path fill="url(#P)" d="M629.7 387.3l-.6 10.2-67.4-1.4 2-8.8z"/><linearGradient id="Q" gradientUnits="userSpaceOnUse" x1="558.388" y1="407.039" x2="628.766" y2="407.039"><stop offset="0" stop-color="#0d152c"/><stop offset="1" stop-color="#000024"/></linearGradient><path fill="url(#Q)" d="M628.8 401.9l-.7 10.2-69.7-1.4 2-8.8z"/><linearGradient id="R" gradientUnits="userSpaceOnUse" x1="568.487" y1="260.56" x2="630.364" y2="260.56"><stop offset="0" stop-color="#e65f5c"/><stop offset="1" stop-color="#faf287"/></linearGradient><path d="M602.9 242.1c-14.9 0-27 11.8-27.5 26.6h-5.2c-.9 0-1.7.8-1.7 1.7v6.9c0 .9.8 1.7 1.7 1.7h58.4c.9 0 1.7-.8 1.7-1.7v-7.7c.1-15.2-12.2-27.5-27.4-27.5z" fill="url(#R)"/><linearGradient id="S" gradientUnits="userSpaceOnUse" x1="114.544" y1="472.564" x2="176.883" y2="472.564"><stop offset="0" stop-color="#e65f5c"/><stop offset="1" stop-color="#faf287"/></linearGradient><path d="M173.3 515.9c-11.1 3.9-23.4 1.7-32.4-5.7-11.4-9.5-14.9-25.2-17.8-39.8l-8.6-43 17.9 12.4c12.9 8.9 26.1 18 35 30.9 8.9 12.9 12.8 30.4 5.7 44.3" fill="url(#S)"/><linearGradient id="T" gradientUnits="userSpaceOnUse" x1="146.115" y1="525.433" x2="174.636" y2="525.433"><stop offset="0" stop-color="#e65f5c"/><stop offset="1" stop-color="#faf287"/></linearGradient><path d="M171.8 567.9c1.8-13.2 3.7-26.6 2.4-40-1.1-11.9-4.8-23.5-12.1-33-3.9-5-8.7-9.4-14.1-12.8-1.4-.9-2.7 1.3-1.3 2.2 9.3 5.9 16.6 14.6 20.6 24.9 4.5 11.4 5.2 23.9 4.4 36-.5 7.3-1.5 14.6-2.5 21.9-.2.7.2 1.4.9 1.6.8.3 1.5-.1 1.7-.8z" fill="url(#T)"/><linearGradient id="U" gradientUnits="userSpaceOnUse" x1="80.426" y1="536.702" x2="154.321" y2="536.702"><stop offset="0" stop-color="#e65f5c"/><stop offset="1" stop-color="#faf287"/></linearGradient><path d="M154.3 544.5c-4.7 7.2-12.9 11.4-21.5 11.1-10.9-.5-20-8.1-28.2-15.3l-24.2-21.4 16-.8c11.5-.6 23.3-1.1 34.3 2.5s21.1 12.1 23.1 23.5" fill="url(#U)"/><linearGradient id="V" gradientUnits="userSpaceOnUse" x1="123.346" y1="556.434" x2="177.108" y2="556.434"><stop offset="0" stop-color="#e65f5c"/><stop offset="1" stop-color="#faf287"/></linearGradient><path d="M176.9 575.5c-8.7-15.5-18.9-32.6-37-38.1-5-1.5-10.3-2.1-15.6-1.6-1.7.1-1.2 2.7.4 2.5 8.8-.7 17.6 1.6 24.8 6.6 7 4.8 12.4 11.4 17.1 18.4 2.8 4.3 5.4 8.8 7.9 13.3.9 1.4 3.3.4 2.4-1.1z" fill="url(#V)"/><linearGradient id="W" gradientUnits="userSpaceOnUse" x1="105.954" y1="578.113" x2="719.574" y2="578.113"><stop offset="0" stop-color="#e65f5c"/><stop offset="1" stop-color="#faf287"/></linearGradient><path d="M718.7 579H106.8c-.5 0-.9-.4-.9-.9s.4-.9.9-.9h611.9c.5 0 .9.4.9.9s-.4.9-.9.9z" fill="url(#W)"/></svg>