<svg xmlns="http://www.w3.org/2000/svg" width="800" height="800"><linearGradient id="a" gradientUnits="userSpaceOnUse" x1="396.04" y1="196.715" x2="447.406" y2="196.715"><stop offset="0" stop-color="#e65f5c"/><stop offset="1" stop-color="#faf287"/></linearGradient><path d="M446.1 194.1c5.2 11-5.8 14.2-18.4 20.1-12.6 5.9-22 12.4-27.2 1.3-5.2-11-9.4-32.9 8.4-41.3 18.5-8.6 32 8.9 37.2 19.9z" fill="url(#a)"/><linearGradient id="b" gradientUnits="userSpaceOnUse" x1="403.482" y1="198.868" x2="437.359" y2="198.868"><stop offset="0" stop-color="#e65f5c"/><stop offset="1" stop-color="#faf287"/></linearGradient><circle cx="420.4" cy="198.9" r="16.9" fill="url(#b)"/><linearGradient id="c" gradientUnits="userSpaceOnUse" x1="444.241" y1="270.01" x2="514.005" y2="270.01"><stop offset="0" stop-color="#e65f5c"/><stop offset="1" stop-color="#faf287"/></linearGradient><path d="M504.3 274c-.6-.8-1.2-1.5-1.8-2.2-.8-1-1.5-1.9-2.3-2.8-8.8-10.1-18.1-16.5-28.4-17.2h-.2l-20.5 20-7 6.8.2.4 3.8 9.4H514c-3-5.1-6.2-9.8-9.7-14.4z" fill="url(#c)"/><linearGradient id="d" gradientUnits="userSpaceOnUse" x1="400.295" y1="192.173" x2="437.579" y2="192.173"><stop offset="0" stop-color="#e65f5c"/><stop offset="1" stop-color="#faf287"/></linearGradient><path d="M402 205.7l6.1-2.8-.8-8.7 4.1 7.2 2.9-1.4-.5-5.1 2.4 4.2 21.5-10.1c-4.2-9-14.9-12.8-23.9-8.6l-3.1 1.5c-9.1 4.1-12.9 14.8-8.7 23.8z" fill="url(#d)"/><linearGradient id="e" gradientUnits="userSpaceOnUse" x1="177.281" y1="397.029" x2="553.715" y2="397.029"><stop offset="0" stop-color="#e65f5c"/><stop offset="1" stop-color="#faf287"/></linearGradient><path d="M542.3 513.1H188.7c-6.3 0-11.4-5.1-11.4-11.4V289.3c0-4.6 3.7-8.3 8.3-8.3h359.6c4.7 0 8.5 3.8 8.5 8.5v212.4c0 6.1-5.1 11.2-11.4 11.2z" fill="url(#e)"/><linearGradient id="f" gradientUnits="userSpaceOnUse" x1="188.66" y1="400.545" x2="542.335" y2="400.545"><stop offset="0" stop-color="#0d152c"/><stop offset="1" stop-color="#000024"/></linearGradient><path d="M199.7 501.8h331.6c6.1 0 11-4.9 11-11V310.4c0-6.1-4.9-11-11-11H199.7c-6.1 0-11 4.9-11 11v180.4c0 6 4.9 11 11 11z" fill="url(#f)"/><linearGradient id="g" gradientUnits="userSpaceOnUse" x1="177.122" y1="279.996" x2="553.556" y2="279.996"><stop offset="0" stop-color="#e65f5c"/><stop offset="1" stop-color="#faf287"/></linearGradient><path d="M553.6 288.6H177.1v-5.8c0-6.3 5.1-11.4 11.4-11.4h353.6c6.3 0 11.4 5.1 11.4 11.4v5.8z" fill="url(#g)"/><linearGradient id="h" gradientUnits="userSpaceOnUse" x1="194.923" y1="280.013" x2="200.831" y2="280.013"><stop offset="0" stop-color="#e65f5c"/><stop offset="1" stop-color="#faf287"/></linearGradient><circle cx="197.9" cy="280" r="3" fill="url(#h)"/><linearGradient id="i" gradientUnits="userSpaceOnUse" x1="206.135" y1="280.013" x2="212.043" y2="280.013"><stop offset="0" stop-color="#e65f5c"/><stop offset="1" stop-color="#faf287"/></linearGradient><circle cx="209.1" cy="280" r="3" fill="url(#i)"/><linearGradient id="j" gradientUnits="userSpaceOnUse" x1="217.348" y1="280.013" x2="223.256" y2="280.013"><stop offset="0" stop-color="#e65f5c"/><stop offset="1" stop-color="#faf287"/></linearGradient><circle cx="220.3" cy="280" r="3" fill="url(#j)"/><linearGradient id="k" gradientUnits="userSpaceOnUse" x1="339.639" y1="441.27" x2="382.397" y2="441.27"><stop offset="0" stop-color="#e65f5c"/><stop offset="1" stop-color="#faf287"/></linearGradient><path d="M375.8 462.6h-29.7c-3.6 0-6.5-2.9-6.6-6.6v-29.7c0-3.6 2.9-6.5 6.6-6.6h29.7c3.6 0 6.5 2.9 6.6 6.6V456c0 3.7-2.9 6.6-6.6 6.6zm-29.6-41.3c-2.9 0-5.2 2.3-5.2 5.2v29.7c0 2.9 2.3 5.2 5.2 5.2h29.7c2.9 0 5.2-2.3 5.2-5.2v-29.7c0-2.9-2.3-5.2-5.2-5.2h-29.7z" fill="url(#k)"/><linearGradient id="l" gradientUnits="userSpaceOnUse" x1="349.983" y1="441.27" x2="372.052" y2="441.27"><stop offset="0" stop-color="#e65f5c"/><stop offset="1" stop-color="#faf287"/></linearGradient><path d="M370 454.4h-17.9c-1.1 0-2.1-.9-2.1-2.1v-22.1c0-1.1.9-2.1 2.1-2.1h13c.5 0 .9.2 1.3.5l4.9 4c.5.4.8 1 .8 1.6v18.1c0 1.1-1 2.1-2.1 2.1zm-17.9-24.9c-.4 0-.7.3-.7.7v22.1c0 .4.3.7.7.7H370c.4 0 .7-.3.7-.7v-18.1c0-.2-.1-.4-.3-.5l-4.9-4c-.1-.1-.3-.2-.4-.2h-13z" fill="url(#l)"/><linearGradient id="m" gradientUnits="userSpaceOnUse" x1="354.811" y1="437.132" x2="367.224" y2="437.132"><stop offset="0" stop-color="#e65f5c"/><stop offset="1" stop-color="#faf287"/></linearGradient><path d="M366.5 437.8h-11c-.4 0-.7-.3-.7-.7 0-.4.3-.7.7-.7h11c.4 0 .7.3.7.7 0 .4-.3.7-.7.7z" fill="url(#m)"/><linearGradient id="n" gradientUnits="userSpaceOnUse" x1="354.811" y1="441.27" x2="367.224" y2="441.27"><stop offset="0" stop-color="#e65f5c"/><stop offset="1" stop-color="#faf287"/></linearGradient><path d="M366.5 442h-11c-.4 0-.7-.3-.7-.7 0-.4.3-.7.7-.7h11c.4 0 .7.3.7.7 0 .4-.3.7-.7.7z" fill="url(#n)"/><linearGradient id="o" gradientUnits="userSpaceOnUse" x1="354.811" y1="445.408" x2="367.224" y2="445.408"><stop offset="0" stop-color="#e65f5c"/><stop offset="1" stop-color="#faf287"/></linearGradient><path d="M366.5 446.1h-11c-.4 0-.7-.3-.7-.7 0-.4.3-.7.7-.7h11c.4 0 .7.3.7.7 0 .4-.3.7-.7.7z" fill="url(#o)"/><linearGradient id="p" gradientUnits="userSpaceOnUse" x1="409.982" y1="441.27" x2="452.74" y2="441.27"><stop offset="0" stop-color="#e65f5c"/><stop offset="1" stop-color="#faf287"/></linearGradient><path d="M446.2 462.6h-29.7c-3.6 0-6.5-2.9-6.6-6.6v-29.7c0-3.6 2.9-6.5 6.6-6.6h29.7c3.6 0 6.5 2.9 6.6 6.6V456c-.1 3.7-3 6.6-6.6 6.6zm-29.7-41.3c-2.9 0-5.2 2.3-5.2 5.2v29.7c0 2.9 2.3 5.2 5.2 5.2h29.7c2.9 0 5.2-2.3 5.2-5.2v-29.7c0-2.9-2.3-5.2-5.2-5.2h-29.7z" fill="url(#p)"/><linearGradient id="q" gradientUnits="userSpaceOnUse" x1="419.637" y1="441.27" x2="443.085" y2="441.27"><stop offset="0" stop-color="#e65f5c"/><stop offset="1" stop-color="#faf287"/></linearGradient><path d="M441 448.9h-19.3c-1.1 0-2.1-.9-2.1-2.1v-11c0-1.1.9-2.1 2.1-2.1H441c1.1 0 2.1.9 2.1 2.1v11c0 1.1-.9 2.1-2.1 2.1zm-19.3-13.8c-.4 0-.7.3-.7.7v11c0 .4.3.7.7.7H441c.4 0 .7-.3.7-.7v-11c0-.4-.3-.7-.7-.7h-19.3z" fill="url(#q)"/><linearGradient id="r" gradientUnits="userSpaceOnUse" x1="419.637" y1="439.076" x2="443.085" y2="439.076"><stop offset="0" stop-color="#e65f5c"/><stop offset="1" stop-color="#faf287"/></linearGradient><path d="M431.4 443.1c-.4 0-.8-.1-1.1-.3l-10.3-6.4c-.3-.2-.4-.6-.2-1 .2-.3.6-.4.9-.2l10.3 6.4c.2.1.5.1.7 0l10.3-6.4c.3-.2.7-.1 1 .2.2.3.1.7-.2.9l-10.3 6.4c-.4.3-.8.4-1.1.4z" fill="url(#r)"/><linearGradient id="s" gradientUnits="userSpaceOnUse" x1="269.295" y1="441.27" x2="312.053" y2="441.27"><stop offset="0" stop-color="#e65f5c"/><stop offset="1" stop-color="#faf287"/></linearGradient><path d="M305.5 462.6h-29.7c-3.6 0-6.5-2.9-6.6-6.6v-29.7c0-3.6 2.9-6.5 6.6-6.6h29.7c3.6 0 6.5 2.9 6.6 6.6V456c-.1 3.7-3 6.6-6.6 6.6zm-29.7-41.3c-2.9 0-5.2 2.3-5.2 5.2v29.7c0 2.9 2.3 5.2 5.2 5.2h29.7c2.9 0 5.2-2.3 5.2-5.2v-29.7c0-2.9-2.3-5.2-5.2-5.2h-29.7z" fill="url(#s)"/><linearGradient id="t" gradientUnits="userSpaceOnUse" x1="278.95" y1="441.27" x2="302.398" y2="441.27"><stop offset="0" stop-color="#e65f5c"/><stop offset="1" stop-color="#faf287"/></linearGradient><path d="M300.3 448.9H281c-1.1 0-2.1-.9-2.1-2.1v-11c0-1.1.9-2.1 2.1-2.1h19.3c1.1 0 2.1.9 2.1 2.1v11c0 1.1-.9 2.1-2.1 2.1zM281 435.1c-.4 0-.7.3-.7.7v11c0 .4.3.7.7.7h19.3c.4 0 .7-.3.7-.7v-11c0-.4-.3-.7-.7-.7H281z" fill="url(#t)"/><linearGradient id="u" gradientUnits="userSpaceOnUse" x1="282.011" y1="443.856" x2="298.648" y2="443.856"><stop offset="0" stop-color="#e65f5c"/><stop offset="1" stop-color="#faf287"/></linearGradient><path d="M297.3 448.9h-13.9c-.8 0-1.4-.6-1.4-1.4 0-.2.1-.5.2-.7l4.2-7.2c.4-.7 1.2-.9 1.9-.5.2.1.4.3.5.5l2.7 4.7 1.6-2.7c.4-.7 1.2-.9 1.9-.5.2.1.4.3.5.5l3 5.3c.4.7.2 1.5-.5 1.9-.3 0-.5.1-.7.1zm0-1.4l-3-5.3-2.2 3.7c-.1.2-.4.3-.6.3-.2 0-.5-.1-.6-.3l-3.3-5.7-4.2 7.2h13.9z" fill="url(#u)"/><linearGradient id="v" gradientUnits="userSpaceOnUse" x1="296.881" y1="437.822" x2="299.639" y2="437.822"><stop offset="0" stop-color="#e65f5c"/><stop offset="1" stop-color="#faf287"/></linearGradient><circle cx="298.3" cy="437.8" r="1.4" fill="url(#v)"/><linearGradient id="w" gradientUnits="userSpaceOnUse" x1="615.58" y1="602.596" x2="628.058" y2="602.596"><stop offset="0" stop-color="#e65f5c"/><stop offset="1" stop-color="#faf287"/></linearGradient><path fill="url(#w)" d="M628.1 618.9h-8.5l-4-32.6h12.5z"/><linearGradient id="x" gradientUnits="userSpaceOnUse" x1="602.951" y1="621.619" x2="630.214" y2="621.619"><stop offset="0" stop-color="#e65f5c"/><stop offset="1" stop-color="#faf287"/></linearGradient><path d="M630.2 627.1h-27.3v-.3c0-5.9 4.8-10.6 10.6-10.6h16.7v10.9z" fill="url(#x)"/><linearGradient id="y" gradientUnits="userSpaceOnUse" x1="650.062" y1="602.596" x2="662.541" y2="602.596"><stop offset="0" stop-color="#e65f5c"/><stop offset="1" stop-color="#faf287"/></linearGradient><path fill="url(#y)" d="M662.5 618.9h-8.4l-4-32.6h12.4z"/><linearGradient id="z" gradientUnits="userSpaceOnUse" x1="637.433" y1="621.619" x2="664.696" y2="621.619"><stop offset="0" stop-color="#e65f5c"/><stop offset="1" stop-color="#faf287"/></linearGradient><path d="M664.7 627.1h-27.3v-.3c0-5.9 4.8-10.6 10.6-10.6h16.7v10.9z" fill="url(#z)"/><linearGradient id="A" gradientUnits="userSpaceOnUse" x1="613.617" y1="542.158" x2="671.5" y2="542.158"><stop offset="0" stop-color="#e65f5c"/><stop offset="1" stop-color="#faf287"/></linearGradient><path d="M660 604.8l-7.8-2.4c-1.2-.4-2.1-1.4-2.2-2.6l-7.3-69.2c0-.2-.2-.3-.3-.3-.2 0-.3.1-.4.3l-12.2 67c-.3 1.7-1.9 2.8-3.6 2.5h-.1l-10-2.1c-1.5-.3-2.6-1.7-2.5-3.2l7.4-109.9 50.4-5.4L664 602c-.1 1.6-1.5 2.9-3.1 2.9-.3 0-.6 0-.9-.1z" fill="url(#A)"/><linearGradient id="B" gradientUnits="userSpaceOnUse" x1="643.018" y1="372.242" x2="676.895" y2="372.242"><stop offset="0" stop-color="#e65f5c"/><stop offset="1" stop-color="#faf287"/></linearGradient><circle cx="660" cy="372.2" r="16.9" fill="url(#B)"/><linearGradient id="C" gradientUnits="userSpaceOnUse" x1="620.984" y1="440.818" x2="683.828" y2="440.818"><stop offset="0" stop-color="#e65f5c"/><stop offset="1" stop-color="#faf287"/></linearGradient><path d="M621 485.5l10.9-68.9c2.3-14.2 15.6-24 29.9-21.7 1.1.2 2.2.4 3.2.7 12.9 3.7 20.8 16.6 18.3 29.8L671.9 487l-50.9-1.5z" fill="url(#C)"/><linearGradient id="D" gradientUnits="userSpaceOnUse" x1="653.781" y1="482.184" x2="677.145" y2="482.184"><stop offset="0" stop-color="#e65f5c"/><stop offset="1" stop-color="#faf287"/></linearGradient><path d="M664.6 497.8c3.2-2.1 4.1-6.4 2-9.6-.2-.3-.5-.7-.8-1l11.3-21.9-12.7 1.4-8.8 20.6c-2.6 2.8-2.4 7.2.4 9.9 2.4 2.1 6 2.4 8.6.6z" fill="url(#D)"/><linearGradient id="E" gradientUnits="userSpaceOnUse" x1="660.059" y1="444.449" x2="689.738" y2="444.449"><stop offset="0" stop-color="#e65f5c"/><stop offset="1" stop-color="#faf287"/></linearGradient><path d="M667.1 483.4c-.6-.1-1.2-.4-1.7-.8l-4.3-4c-1-.9-1.3-2.3-.8-3.5l8.6-20.5-1.2-40.5c.7-5.5 5.8-9.3 11.2-8.6 5.5.7 9.3 5.8 8.6 11.2l2.1 25.5c.6 7.7-1.6 15.4-6.2 21.7L670 482.2c-.5.7-1.3 1.2-2.2 1.2h-.7z" fill="url(#E)"/><linearGradient id="F" gradientUnits="userSpaceOnUse" x1="562.289" y1="370.959" x2="591.143" y2="370.959"><stop offset="0" stop-color="#e65f5c"/><stop offset="1" stop-color="#faf287"/></linearGradient><path d="M562.4 363c.7 3.8 4.3 6.3 8.1 5.6l1.2-.3 15.8 19 3.7-12.3-15.5-16.1c-1.6-3.5-5.7-5.1-9.2-3.5-3.1 1.3-4.7 4.4-4.1 7.6z" fill="url(#F)"/><linearGradient id="G" gradientUnits="userSpaceOnUse" x1="574.314" y1="392.014" x2="643.185" y2="392.014"><stop offset="0" stop-color="#e65f5c"/><stop offset="1" stop-color="#faf287"/></linearGradient><path d="M574.8 370.9c.3-.5.8-1 1.4-1.2l5.4-2.4c1.2-.5 2.6-.3 3.5.7l15.5 16 37.8 14.7c4.8 2.8 6.3 8.9 3.5 13.7-2.8 4.8-8.9 6.3-13.7 3.5l-24.3-8c-7.4-2.4-13.6-7.4-17.5-14.1L574.7 374c-.4-.8-.6-1.7-.3-2.5.1-.2.2-.4.4-.6z" fill="url(#G)"/><linearGradient id="H" gradientUnits="userSpaceOnUse" x1="660.301" y1="453.048" x2="673.696" y2="453.048"><stop offset="0" stop-color="#e65f5c"/><stop offset="1" stop-color="#faf287"/></linearGradient><path opacity=".1" fill="url(#H)" d="M673.7 431l-.7 22-12.7 22.1 10.6-24.6z"/><linearGradient id="I" gradientUnits="userSpaceOnUse" x1="638.005" y1="370.243" x2="681.168" y2="370.243"><stop offset="0" stop-color="#e65f5c"/><stop offset="1" stop-color="#faf287"/></linearGradient><path d="M658 375.4c-2.2.3-4.3-1.1-4.8-3.2-.5-2.4-2.4-4.4-4.8-5-3.1-.7-6.9.8-9.2-1.6-1-1.1-1.4-2.6-1.1-4 .4-2.3 2.1-4 3.8-5.4 3.7-2.9 8.3-4.6 13-4.9 2.4-.1 4.9.1 7.3.4 2.5.2 5.1.6 7.5 1.4 5.6 2.1 9.8 7 11 12.9 1.1 5.9-.4 12-4.2 16.6-2.2 2.8-5.1 5-8.4 6.4-.8.4-1.7.4-2.5.1-2-.8-1.7-3.3-.8-5 1-1.8 2.5-3.5 1.7-5.7-.4-1-1.2-1.8-2.2-2.3-1.8-1.2-4-.9-6.3-.7z" fill="url(#I)"/><linearGradient id="J" gradientUnits="userSpaceOnUse" x1="335.724" y1="351.198" x2="568.133" y2="351.198"><stop offset="0" stop-color="#e65f5c"/><stop offset="1" stop-color="#faf287"/></linearGradient><path d="M556.8 385H347.1c-6.3 0-11.4-5.1-11.4-11.4v-44.8c0-6.3 5.1-11.4 11.4-11.4h209.7c6.3 0 11.4 5.1 11.4 11.4v44.8c-.1 6.3-5.2 11.4-11.4 11.4z" fill="url(#J)"/><linearGradient id="K" gradientUnits="userSpaceOnUse" x1="335.379" y1="351.199" x2="568.478" y2="351.199"><stop offset="0" stop-color="#e65f5c"/><stop offset="1" stop-color="#faf287"/></linearGradient><path d="M556.8 385.3H347.1c-6.5 0-11.7-5.3-11.7-11.7v-44.8c0-6.5 5.3-11.7 11.7-11.7h209.7c6.5 0 11.7 5.3 11.7 11.7v44.8c0 6.5-5.3 11.7-11.7 11.7zm-209.7-66.9c-5.7 0-10.3 4.6-10.3 10.3v44.8c0 5.7 4.6 10.3 10.3 10.3h209.7c5.7 0 10.3-4.6 10.3-10.3v-44.8c0-5.7-4.6-10.3-10.3-10.3H347.1z" fill="url(#K)"/><linearGradient id="L" gradientUnits="userSpaceOnUse" x1="361.24" y1="350.854" x2="542.616" y2="350.854"><stop offset="0" stop-color="#0d152c"/><stop offset="1" stop-color="#000024"/></linearGradient><path d="M531.2 374H372.6c-6.3 0-11.4-5.1-11.4-11.4v-23.4c0-6.3 5.1-11.4 11.4-11.4h158.6c6.3 0 11.4 5.1 11.4 11.4v23.4c0 6.3-5.1 11.3-11.4 11.4z" fill="url(#L)"/><linearGradient id="M" gradientUnits="userSpaceOnUse" x1="393.145" y1="347.71" x2="420.361" y2="347.71"><stop offset="0" stop-color="#e65f5c"/><stop offset="1" stop-color="#faf287"/></linearGradient><circle cx="406.8" cy="347.7" r="13.6" fill="url(#M)"/><linearGradient id="N" gradientUnits="userSpaceOnUse" x1="382.23" y1="355.138" x2="521.626" y2="355.138"><stop offset="0" stop-color="#e65f5c"/><stop offset="1" stop-color="#faf287"/></linearGradient><path d="M521.4 372.6l-19.2-16.1-18.9-15.8c-1-.9-2.5-.9-3.6 0l-18.8 15.9-4.6 3.9-6.9-5.8-21.1-17.7c-1-.9-2.5-.9-3.6 0l-21 17.7-21.3 18c-.3.2-.3.7-.1 1 .1.2.3.2.5.2l43.7-.1h13.8l-.1.1 41.2-.1 39.4-.1c.4 0 .7-.3.7-.7.1-.1 0-.3-.1-.4z" fill="url(#N)"/><linearGradient id="O" gradientUnits="userSpaceOnUse" x1="568.366" y1="627.4" x2="702.157" y2="627.4"><stop offset="0" stop-color="#e65f5c"/><stop offset="1" stop-color="#faf287"/></linearGradient><path d="M701.5 628.1H569.1c-.4 0-.7-.3-.7-.7 0-.4.3-.7.7-.7h132.4c.4 0 .7.3.7.7 0 .4-.4.7-.7.7z" fill="url(#O)"/><linearGradient id="P" gradientUnits="userSpaceOnUse" x1="445.017" y1="242.574" x2="515.601" y2="242.574"><stop offset="0" stop-color="#e65f5c"/><stop offset="1" stop-color="#faf287"/></linearGradient><path d="M514.4 262.9c-1.1-1.8-2.9-3.1-5-3.5-.4-.1-.8-.1-1.1-.1l-52.5-47c-1-1.1-2.4-1.7-3.9-1.9h-.9c-3.4.2-6.1 3.1-6 6.5.1 1.6.7 3.1 1.8 4.2l20.1 17.5 33 28.8c0 .5.1 1.1.2 1.6.8 3.1 3.5 5.4 6.7 5.8 1.4.2 2.9-.1 4.2-.7 1-.5 1.9-1.2 2.7-2 .1-.1.1-.2.2-.3 2.1-2.6 2.2-6.2.5-8.9z" fill="url(#P)"/><linearGradient id="Q" gradientUnits="userSpaceOnUse" x1="410.345" y1="276.847" x2="427.098" y2="276.847"><stop offset="0" stop-color="#e65f5c"/><stop offset="1" stop-color="#faf287"/></linearGradient><path d="M424.6 308.2l-.5-19.9-.4-16.5-.3-11.6-.6-22.5c-.3-3.4-3.4-6-6.8-5.6-1.6.1-3 .9-4.1 2-.2.2-.4.4-.5.7-.8 1.2-1.2 2.7-1.1 4.2l1.2 32.9.6 16.5.8 21.1c-.2.3-.4.6-.6 1-1 1.9-1.2 4.1-.5 6.1 1.4 4.1 5.8 6.3 9.9 4.9l.9-.3c3.9-1.8 5.6-6.5 3.7-10.4-.4-1.1-1-2-1.7-2.6z" fill="url(#Q)"/><linearGradient id="R" gradientUnits="userSpaceOnUse" x1="410.987" y1="240.825" x2="472.654" y2="240.825"><stop offset="0" stop-color="#e65f5c"/><stop offset="1" stop-color="#faf287"/></linearGradient><path d="M471.9 251.8l-4.9-13.2-7.9-21.4c-1.2-3.2-3.7-5.6-6.9-6.7-.1 0-.3-.1-.4-.1-3.1-.9-6.4-.5-9.1 1.3l-26.6 16.9c-5.1 3.2-6.7 9.8-3.6 15 3.3 5.7 6.9 11.3 10.8 16.7 3.1 4.2 8.9 4.7 9.9 11.6h19.6l19.8-17.8-.7-2.3z" fill="url(#R)"/><linearGradient id="S" gradientUnits="userSpaceOnUse" x1="151.63" y1="397.204" x2="183.591" y2="397.204"><stop offset="0" stop-color="#e65f5c"/><stop offset="1" stop-color="#faf287"/></linearGradient><circle cx="167.6" cy="397.2" r="16" fill="url(#S)"/><linearGradient id="T" gradientUnits="userSpaceOnUse" x1="167.21" y1="413.752" x2="209.55" y2="413.752"><stop offset="0" stop-color="#e65f5c"/><stop offset="1" stop-color="#faf287"/></linearGradient><path d="M206.8 386.2c.2.1.3.3.5.4 2.9 2.7 3 7.2.3 10.1l-.6.6c-.2.2-.4.3-.6.4l1.1 36.5c.1 2.5-1.5 4.7-3.8 5.4h-.1l-29.6 3.2c-3.4.4-6.4-2.1-6.8-5.5-.4-3.4 2.1-6.4 5.5-6.8h.1l21.1-1.9 3.7-31.6c-.2-.2-.5-.4-.7-.7-2.6-3-2.2-7.5.8-10.1 2.7-2.1 6.5-2.1 9.1 0z" fill="url(#T)"/><linearGradient id="U" gradientUnits="userSpaceOnUse" x1="193.928" y1="604.224" x2="205.701" y2="604.224"><stop offset="0" stop-color="#e65f5c"/><stop offset="1" stop-color="#faf287"/></linearGradient><path fill="url(#U)" d="M193.9 619.6h8l3.8-30.8h-11.8z"/><linearGradient id="V" gradientUnits="userSpaceOnUse" x1="191.895" y1="622.172" x2="217.615" y2="622.172"><stop offset="0" stop-color="#e65f5c"/><stop offset="1" stop-color="#faf287"/></linearGradient><path d="M191.9 617h15.7c5.5 0 10 4.5 10 10v.3h-25.7V617z" fill="url(#V)"/><linearGradient id="W" gradientUnits="userSpaceOnUse" x1="114.647" y1="597.402" x2="140.502" y2="597.402"><stop offset="0" stop-color="#e65f5c"/><stop offset="1" stop-color="#faf287"/></linearGradient><path fill="url(#W)" d="M114.6 608.6l6.9 4.1 19-24.5-10.1-6.1z"/><linearGradient id="X" gradientUnits="userSpaceOnUse" x1="108.943" y1="616.321" x2="132.62" y2="616.321"><stop offset="0" stop-color="#e65f5c"/><stop offset="1" stop-color="#faf287"/></linearGradient><path d="M114.2 605.3l13.5 8c4.8 2.8 6.3 9 3.5 13.7l-.2.3-22.1-13.2 5.3-8.8z" fill="url(#X)"/><linearGradient id="Y" gradientUnits="userSpaceOnUse" x1="119.161" y1="535.389" x2="208.494" y2="535.389"><stop offset="0" stop-color="#e65f5c"/><stop offset="1" stop-color="#faf287"/></linearGradient><path d="M203.8 608.7h-8.9c-1.5 0-2.8-1.1-2.9-2.6l-9-84.6c-.1-.5-.5-.9-1.1-.9-.3 0-.6.3-.8.6l-16.2 36-28.8 46.8c-.8 1.2-2.3 1.7-3.7 1.1l-11.5-5.1c-1.5-.7-2.2-2.4-1.5-3.9 0-.1.1-.2.2-.3l26.4-44.3 8.1-37.3c-2.6-16.2 8.4-40.2 8.5-40.5l.1-.1 30.1-11.8.2.2c11.9 39 19.1 80.9 13.8 143.8-.2 1.8-1.5 2.9-3 2.9z" fill="url(#Y)"/><linearGradient id="Z" gradientUnits="userSpaceOnUse" x1="148.208" y1="448.169" x2="194.224" y2="448.169"><stop offset="0" stop-color="#e65f5c"/><stop offset="1" stop-color="#faf287"/></linearGradient><path d="M161.5 477.7l-.1-.3c-.1-.1-6.8-14.3-11.9-29.4-2-5.9-1.4-12.4 1.5-17.8 3-5.5 8.2-9.5 14.4-11 10.9-2.6 22 3.1 26.2 13.5 4.1 10.2 2.8 21.2 1.6 29.8v.2l-.2.1-31.5 14.9z" fill="url(#Z)"/><linearGradient id="aa" gradientUnits="userSpaceOnUse" x1="161.611" y1="381.439" x2="186.986" y2="381.439"><stop offset="0" stop-color="#e65f5c"/><stop offset="1" stop-color="#faf287"/></linearGradient><path d="M187 388.2h-25.4v-11.1c5.6-2.2 11-4.1 14.3 0 6.1 0 11.1 5 11.1 11.1z" fill="url(#aa)"/><linearGradient id="ab" gradientUnits="userSpaceOnUse" x1="140.791" y1="394.632" x2="179.622" y2="394.632"><stop offset="0" stop-color="#e65f5c"/><stop offset="1" stop-color="#faf287"/></linearGradient><path d="M160.2 375.2c-15.2 0-19.4 19-19.4 29.7 0 6 2.7 8.1 7 8.8l1.5-8 3.5 8.4h3.7l1.2-2.5 2.7 2.4c10.6 0 19.3 1.6 19.3-9.1-.1-10.7-3.8-29.7-19.5-29.7z" fill="url(#ab)"/><linearGradient id="ac" gradientUnits="userSpaceOnUse" x1="97.843" y1="627.4" x2="231.634" y2="627.4"><stop offset="0" stop-color="#e65f5c"/><stop offset="1" stop-color="#faf287"/></linearGradient><path d="M230.9 628.1H98.5c-.4 0-.7-.3-.7-.7 0-.4.3-.7.7-.7h132.4c.4 0 .7.3.7.7 0 .4-.3.7-.7.7z" fill="url(#ac)"/><linearGradient id="ad" gradientUnits="userSpaceOnUse" x1="197.228" y1="379.819" x2="239.985" y2="379.819"><stop offset="0" stop-color="#0d152c"/><stop offset="1" stop-color="#000024"/></linearGradient><path d="M233.4 401.2h-29.7c-3.6 0-6.5-2.9-6.6-6.6V365c0-3.6 2.9-6.5 6.6-6.6h29.7c3.6 0 6.5 2.9 6.6 6.6v29.7c0 3.6-2.9 6.5-6.6 6.5z" fill="url(#ad)"/><linearGradient id="ae" gradientUnits="userSpaceOnUse" x1="197.228" y1="379.819" x2="239.985" y2="379.819"><stop offset="0" stop-color="#e65f5c"/><stop offset="1" stop-color="#faf287"/></linearGradient><path d="M233.4 401.2h-29.7c-3.6 0-6.5-2.9-6.6-6.6V365c0-3.6 2.9-6.5 6.6-6.6h29.7c3.6 0 6.5 2.9 6.6 6.6v29.7c0 3.6-2.9 6.5-6.6 6.5zm-29.6-41.4c-2.9 0-5.2 2.3-5.2 5.2v29.7c0 2.9 2.3 5.2 5.2 5.2h29.7c2.9 0 5.2-2.3 5.2-5.2V365c0-2.9-2.3-5.2-5.2-5.2h-29.7z" fill="url(#ae)"/><linearGradient id="af" gradientUnits="userSpaceOnUse" x1="206.883" y1="379.819" x2="230.33" y2="379.819"><stop offset="0" stop-color="#e65f5c"/><stop offset="1" stop-color="#faf287"/></linearGradient><path d="M228.3 389.1H209c-1.1 0-2.1-.9-2.1-2.1v-14.5c0-1.1.9-2.1 2.1-2.1h5.4c.7 0 1.4.4 1.8 1l1.5 2.5h10.6c1.1 0 2.1.9 2.1 2.1v11c-.1 1.2-1 2.1-2.1 2.1z" fill="url(#af)"/><linearGradient id="ag" gradientUnits="userSpaceOnUse" x1="171.025" y1="418.614" x2="228.515" y2="418.614"><stop offset="0" stop-color="#e65f5c"/><stop offset="1" stop-color="#faf287"/></linearGradient><path d="M227.6 396.4c.1.2.2.4.3.5 1.6 3.6 0 7.8-3.6 9.4-.2.1-.5.2-.8.3-.2.1-.5.1-.7.2L209.6 441c-.9 2.3-3.2 3.7-5.6 3.5h-.1l-28.5-8.6c-3.2-1-5.1-4.4-4.1-7.6 1-3.2 4.4-5.1 7.6-4.1h.1l20.2 6.5 15.6-27.7c-.1-.3-.3-.6-.4-.9-1.2-3.8.9-7.8 4.7-9 3.4-1.1 6.9.4 8.5 3.3z" fill="url(#ag)"/></svg>