<svg xmlns="http://www.w3.org/2000/svg" width="800" height="800"><linearGradient id="a" gradientUnits="userSpaceOnUse" x1="274.721" y1="525.778" x2="578.489" y2="525.778"><stop offset="0" stop-color="#e65f5c"/><stop offset="1" stop-color="#faf287"/></linearGradient><path d="M571.7 631.6H281.5c-3.7 0-6.8-3-6.8-6.8V426.7c0-3.7 3-6.8 6.8-6.8h290.2c3.7 0 6.8 3 6.8 6.8v198.2c0 3.7-3.1 6.7-6.8 6.7z" fill="url(#a)"/><linearGradient id="b" gradientUnits="userSpaceOnUse" x1="274.721" y1="525.778" x2="578.489" y2="525.778"><stop offset="0" stop-color="#e65f5c"/><stop offset="1" stop-color="#faf287"/></linearGradient><path d="M571.7 631.6H281.5c-3.7 0-6.8-3-6.8-6.8V426.7c0-3.7 3-6.8 6.8-6.8h290.2c3.7 0 6.8 3 6.8 6.8v198.2c0 3.7-3.1 6.7-6.8 6.7zM281.5 421.4c-2.9 0-5.3 2.4-5.3 5.3v198.2c0 2.9 2.4 5.3 5.3 5.3h290.2c2.9 0 5.3-2.4 5.3-5.3V426.7c0-2.9-2.4-5.3-5.3-5.3H281.5z" fill="url(#b)"/><linearGradient id="c" gradientUnits="userSpaceOnUse" x1="393.013" y1="569.864" x2="460.197" y2="569.864"><stop offset="0" stop-color="#e65f5c"/><stop offset="1" stop-color="#faf287"/></linearGradient><path d="M460.2 630.5H393V519.2c0-5.5 4.5-9.9 9.9-9.9h47.3c5.5 0 9.9 4.5 9.9 9.9v111.3z" fill="url(#c)"/><linearGradient id="d" gradientUnits="userSpaceOnUse" x1="517.509" y1="342.221" x2="555.877" y2="342.221"><stop offset="0" stop-color="#e65f5c"/><stop offset="1" stop-color="#faf287"/></linearGradient><path d="M555.9 377.7h-38.4v-64.1c0-3.7 3-6.8 6.8-6.8h24.8c3.7 0 6.8 3 6.8 6.8v64.1z" fill="url(#d)"/><linearGradient id="e" gradientUnits="userSpaceOnUse" x1="517.509" y1="342.221" x2="555.877" y2="342.221"><stop offset="0" stop-color="#e65f5c"/><stop offset="1" stop-color="#faf287"/></linearGradient><path d="M555.9 377.7h-38.4v-64.1c0-3.7 3-6.8 6.8-6.8h24.8c3.7 0 6.8 3 6.8 6.8v64.1zm-36.9-1.5h35.4v-62.6c0-2.9-2.4-5.3-5.3-5.3h-24.8c-2.9 0-5.3 2.4-5.3 5.3v62.6z" fill="url(#e)"/><linearGradient id="f" gradientUnits="userSpaceOnUse" x1="265.676" y1="330.792" x2="413.441" y2="330.792"><stop offset="0" stop-color="#e65f5c"/><stop offset="1" stop-color="#faf287"/></linearGradient><circle cx="339.6" cy="330.8" r="73.9" fill="url(#f)"/><linearGradient id="g" gradientUnits="userSpaceOnUse" x1="507.801" y1="212.359" x2="561.863" y2="212.359"><stop offset="0" stop-color="#e65f5c"/><stop offset="1" stop-color="#faf287"/></linearGradient><path d="M537.8 295.5c-6.7-.2-12.6-6.3-12.6-12.9 0-6.7 5.8-12.8 12.4-13.1 14.8-.7 26.9-16.6 23.7-31-3.3-14.5-21-23.6-34.7-17.9-10.5 4.4-21.1-9.5-18.4-20.5 2.7-11.1 12.7-18.5 22-25s19.3-14.2 21.5-25.4c2.2-11.1-9.3-24.5-19.4-19.3" fill="url(#g)"/><linearGradient id="h" gradientUnits="userSpaceOnUse" x1="299.346" y1="509.653" x2="373.174" y2="509.653"><stop offset="0" stop-color="#e65f5c"/><stop offset="1" stop-color="#faf287"/></linearGradient><path d="M364.6 541.6h-56.8c-4.7 0-8.5-3.8-8.5-8.5v-46.8c0-4.7 3.8-8.5 8.5-8.5h56.8c4.7 0 8.5 3.8 8.5 8.5V533c.1 4.8-3.8 8.6-8.5 8.6z" fill="url(#h)"/><linearGradient id="i" gradientUnits="userSpaceOnUse" x1="481.349" y1="509.653" x2="555.177" y2="509.653"><stop offset="0" stop-color="#e65f5c"/><stop offset="1" stop-color="#faf287"/></linearGradient><path d="M546.6 541.6h-56.8c-4.7 0-8.5-3.8-8.5-8.5v-46.8c0-4.7 3.8-8.5 8.5-8.5h56.8c4.7 0 8.5 3.8 8.5 8.5V533c.1 4.8-3.7 8.6-8.5 8.6z" fill="url(#i)"/><linearGradient id="j" gradientUnits="userSpaceOnUse" x1="253.054" y1="360.335" x2="600.156" y2="360.335"><stop offset="0" stop-color="#e65f5c"/><stop offset="1" stop-color="#faf287"/></linearGradient><path d="M253.1 424v-30.5c0-4.8 2.6-9.2 6.7-11.5l169.4-96.8c4.3-2.4 9.6-2.3 13.7.3L594 381.9c3.8 2.4 6.1 6.7 6.1 11.2V424c0 7.3-5.9 13.3-13.3 13.3H266.3c-7.3 0-13.2-6-13.2-13.3z" fill="url(#j)"/><linearGradient id="k" gradientUnits="userSpaceOnUse" x1="253.054" y1="423.09" x2="600.156" y2="423.09"><stop offset="0" stop-color="#e65f5c"/><stop offset="1" stop-color="#faf287"/></linearGradient><path d="M586.9 423.7H266.3c-7.3 0-13.3-5.9-13.3-13.3v12.1c0 7.3 5.9 13.3 13.3 13.3h320.5c7.3 0 13.3-5.9 13.3-13.3v-12.1c.1 7.4-5.9 13.3-13.2 13.3z" opacity=".2" fill="url(#k)"/><linearGradient id="l" gradientUnits="userSpaceOnUse" x1="612.894" y1="509.769" x2="697.561" y2="509.769"><stop offset="0" stop-color="#e65f5c"/><stop offset="1" stop-color="#faf287"/></linearGradient><path d="M612.9 528c0-23.4 19-78.9 42.3-78.9s42.3 55.5 42.3 78.9c0 23.4-19 42.3-42.3 42.3s-42.3-18.9-42.3-42.3z" fill="url(#l)"/><linearGradient id="m" gradientUnits="userSpaceOnUse" x1="654.474" y1="553.986" x2="655.982" y2="553.986"><stop offset="0" stop-color="#e65f5c"/><stop offset="1" stop-color="#faf287"/></linearGradient><path d="M655.2 630.7c-.4 0-.8-.3-.8-.8V478c0-.4.3-.8.8-.8.4 0 .8.3.8.8v152c0 .4-.4.7-.8.7z" fill="url(#m)"/><linearGradient id="n" gradientUnits="userSpaceOnUse" x1="654.474" y1="533.346" x2="677.502" y2="533.346"><stop offset="0" stop-color="#e65f5c"/><stop offset="1" stop-color="#faf287"/></linearGradient><path d="M655.2 545.4c-.4 0-.8-.3-.8-.8 0-.2.1-.4.2-.5l21.5-22.6c.3-.3.8-.3 1.1 0 .3.3.3.8 0 1.1l-21.5 22.6c-.1.1-.3.2-.5.2z" fill="url(#n)"/><linearGradient id="o" gradientUnits="userSpaceOnUse" x1="635.877" y1="498.062" x2="655.982" y2="498.062"><stop offset="0" stop-color="#e65f5c"/><stop offset="1" stop-color="#faf287"/></linearGradient><path d="M655.2 507.3c-.2 0-.4-.1-.5-.2l-18.6-17c-.3-.3-.3-.8 0-1.1.3-.3.8-.3 1.1 0l18.6 17c.3.3.3.8 0 1.1-.2.1-.4.2-.6.2z" fill="url(#o)"/><linearGradient id="p" gradientUnits="userSpaceOnUse" x1="96.184" y1="454.647" x2="220.732" y2="454.647"><stop offset="0" stop-color="#e65f5c"/><stop offset="1" stop-color="#faf287"/></linearGradient><path d="M96.2 481.5c0-34.4 27.9-116 62.3-116s62.3 81.6 62.3 116-27.9 62.3-62.3 62.3-62.3-27.9-62.3-62.3z" fill="url(#p)"/><linearGradient id="q" gradientUnits="userSpaceOnUse" x1="157.704" y1="519.693" x2="159.212" y2="519.693"><stop offset="0" stop-color="#e65f5c"/><stop offset="1" stop-color="#faf287"/></linearGradient><path d="M158.5 632.3c-.4 0-.8-.3-.8-.8V407.9c0-.4.3-.8.8-.8s.8.3.8.8v223.6c-.1.4-.4.8-.8.8z" fill="url(#q)"/><linearGradient id="r" gradientUnits="userSpaceOnUse" x1="157.704" y1="489.329" x2="190.87" y2="489.329"><stop offset="0" stop-color="#e65f5c"/><stop offset="1" stop-color="#faf287"/></linearGradient><path d="M158.5 506.7c-.4 0-.8-.3-.8-.8 0-.2.1-.4.2-.5l31.7-33.2c.3-.3.8-.3 1.1 0 .3.3.3.8 0 1.1L159 506.5c-.1.1-.3.2-.5.2z" fill="url(#r)"/><linearGradient id="s" gradientUnits="userSpaceOnUse" x1="130.347" y1="437.426" x2="159.212" y2="437.426"><stop offset="0" stop-color="#e65f5c"/><stop offset="1" stop-color="#faf287"/></linearGradient><path d="M158.5 450.7c-.2 0-.4-.1-.5-.2l-27.4-25c-.3-.3-.3-.8 0-1.1s.8-.3 1.1 0l27.4 25c.3.3.3.8 0 1.1-.2.1-.4.2-.6.2z" fill="url(#s)"/><linearGradient id="t" gradientUnits="userSpaceOnUse" x1="621.643" y1="617.98" x2="688.221" y2="617.98"><stop offset="0" stop-color="#e65f5c"/><stop offset="1" stop-color="#faf287"/></linearGradient><path d="M625.7 630.7l.2.2h61.3c1.2-4.9 1.6-9.7-.2-14-2.6-6-10.1-9.8-16.1-7.2-1.4.6-2.7 1.6-3.6 2.9-2.4-4.2-6.6-7.4-11.4-7.4-6.1 0-11.2 5-12.8 10.8-2.7-4.5-7.9-7.6-13.1-6.3-8.7 2.2-11.4 15.5-4.3 21z" fill="url(#t)"/><linearGradient id="u" gradientUnits="userSpaceOnUse" x1="90.882" y1="606.399" x2="225.285" y2="606.399"><stop offset="0" stop-color="#e65f5c"/><stop offset="1" stop-color="#faf287"/></linearGradient><path d="M99 632c.1.1.3.2.4.3h123.8c2.4-9.8 3.3-19.7-.3-28.2-5.2-12.2-20.4-19.8-32.6-14.5-2.9 1.3-5.4 3.3-7.3 5.8-4.7-8.5-13.3-14.9-23.1-14.9-12.3 0-22.5 10.1-25.9 21.7-5.4-9.1-16-15.4-26.4-12.7C90.3 594 84.8 621 99 632z" fill="url(#u)"/><linearGradient id="v" gradientUnits="userSpaceOnUse" x1="79.576" y1="631.501" x2="720.424" y2="631.501"><stop offset="0" stop-color="#e65f5c"/><stop offset="1" stop-color="#faf287"/></linearGradient><path fill="url(#v)" d="M79.6 631.4l640.8-1.3v1.5l-640.8 1.3z"/><linearGradient id="w" gradientUnits="userSpaceOnUse" x1="262.193" y1="583.467" x2="295.957" y2="583.467"><stop offset="0" stop-color="#e65f5c"/><stop offset="1" stop-color="#faf287"/></linearGradient><path d="M295.8 599.5c.6-2.3-.8-4.5-3-5.1-.2-.1-.5-.1-.7-.1l-23.9-29.9-5.9 5.5 25.3 28.6c0 2.3 1.9 4.2 4.2 4.3 1.8-.1 3.6-1.4 4-3.3z" fill="url(#w)"/><linearGradient id="x" gradientUnits="userSpaceOnUse" x1="256.676" y1="566.373" x2="273.451" y2="566.373"><stop offset="0" stop-color="#e65f5c"/><stop offset="1" stop-color="#faf287"/></linearGradient><path d="M272.7 569l-7.6 5.8c-.8.6-2 .5-2.6-.4-.1-.1-.1-.2-.2-.2l-4.6-8.3c-1.7-2.3-1.3-5.6 1-7.3 2.3-1.7 5.6-1.3 7.3 1l6.8 6.6c.7.7.8 1.9 0 2.7.1 0 0 .1-.1.1z" fill="url(#x)"/><linearGradient id="y" gradientUnits="userSpaceOnUse" x1="250.381" y1="541.336" x2="269.626" y2="541.336"><stop offset="0" stop-color="#e65f5c"/><stop offset="1" stop-color="#faf287"/></linearGradient><circle cx="260" cy="541.3" r="9.6" fill="url(#y)"/><linearGradient id="z" gradientUnits="userSpaceOnUse" x1="277.8" y1="661.658" x2="285.347" y2="661.658"><stop offset="0" stop-color="#e65f5c"/><stop offset="1" stop-color="#faf287"/></linearGradient><path fill="url(#z)" d="M280.5 666.2h4.8l-.4-9h-7.1z"/><linearGradient id="A" gradientUnits="userSpaceOnUse" x1="279.318" y1="667.697" x2="294.806" y2="667.697"><stop offset="0" stop-color="#e65f5c"/><stop offset="1" stop-color="#faf287"/></linearGradient><path d="M279.3 664.6h9.5c3.3 0 6 2.7 6 6v.2h-15.5v-6.2z" fill="url(#A)"/><linearGradient id="B" gradientUnits="userSpaceOnUse" x1="229.333" y1="656.386" x2="237.755" y2="656.386"><stop offset="0" stop-color="#e65f5c"/><stop offset="1" stop-color="#faf287"/></linearGradient><path fill="url(#B)" d="M229.3 659.4l4.1 2.5 4.4-7.9-5-3.1z"/><linearGradient id="C" gradientUnits="userSpaceOnUse" x1="225.844" y1="664.092" x2="240.024" y2="664.092"><stop offset="0" stop-color="#e65f5c"/><stop offset="1" stop-color="#faf287"/></linearGradient><path d="M229.1 657.4l8 5c2.8 1.7 3.7 5.5 2 8.3l-.1.2-13.2-8.1 3.3-5.4z" fill="url(#C)"/><linearGradient id="D" gradientUnits="userSpaceOnUse" x1="229.78" y1="625.137" x2="286.493" y2="625.137"><stop offset="0" stop-color="#e65f5c"/><stop offset="1" stop-color="#faf287"/></linearGradient><path d="M280.2 663.5c-.7 0-1.4-.5-1.6-1.1l-17.4-41.5c-.1-.3-.5-.5-.8-.3-.1 0-.2.1-.3.2l-23.9 37.6c-.5.7-1.4 1-2.2.6l-3.3-1.5c-.9-.4-1.3-1.4-.9-2.3l19.6-43.6c-.4-1-4.6-11.7 1.8-17l17.4-7.7.4 13.3 17.3 60c.3.9-.3 1.9-1.2 2.2l-4.5 1.2c-.1-.1-.3-.1-.4-.1z" fill="url(#D)"/><linearGradient id="E" gradientUnits="userSpaceOnUse" x1="247.987" y1="575.676" x2="270.225" y2="575.676"><stop offset="0" stop-color="#e65f5c"/><stop offset="1" stop-color="#faf287"/></linearGradient><path d="M269 567.3c-.7-2.7-1.6-5.3-2.9-6.6-.5-.4-.9-.9-1.3-1.4-.8-1.1-1.9-1.9-3.1-2.6.4-.2.7-.5.7-.9 0-.9-1.9-1.6-4.3-1.6s-4.3.7-4.3 1.6c0 .2.1.4.3.5-3.2 1.3-5.4 4.2-5.7 7.6-.6 6-.7 13.6 1.2 18.4 1.6 4 1.8 8.4.4 12.5-.3.8.2 1.7 1 2 .4.1.7.1 1.1 0l17.2-6.9c.6-.2 1-.8 1-1.5V578c-.1-3.6-.5-7.2-1.3-10.7z" fill="url(#E)"/><linearGradient id="F" gradientUnits="userSpaceOnUse" x1="230.795" y1="589.222" x2="252.399" y2="589.222"><stop offset="0" stop-color="#e65f5c"/><stop offset="1" stop-color="#faf287"/></linearGradient><path d="M236 610.7c2.3-.5 3.7-2.8 3.1-5.1-.1-.2-.1-.5-.2-.7l13.5-35.5-6.8-1.8-12.5 35.2c-2.1 1.1-2.9 3.6-1.9 5.7.9 1.7 2.9 2.6 4.8 2.2z" fill="url(#F)"/><linearGradient id="G" gradientUnits="userSpaceOnUse" x1="242.623" y1="567.384" x2="258.157" y2="567.384"><stop offset="0" stop-color="#e65f5c"/><stop offset="1" stop-color="#faf287"/></linearGradient><path d="M252.3 576.1l-8.6-4c-.9-.4-1.4-1.6-.9-2.5 0-.1.1-.2.1-.2l5.2-7.9c1.2-2.6 4.4-3.7 7-2.5 2.6 1.2 3.7 4.3 2.5 6.9L255 575c-.3 1-1.4 1.6-2.3 1.3-.2-.1-.3-.1-.4-.2z" fill="url(#G)"/><linearGradient id="H" gradientUnits="userSpaceOnUse" x1="239.47" y1="541.369" x2="270.671" y2="541.369"><stop offset="0" stop-color="#e65f5c"/><stop offset="1" stop-color="#faf287"/></linearGradient><path d="M268.8 539c.4.1.9 0 1.3-.2.7-.5.6-1.5.4-2.3-1.2-4-4.4-7-8.4-8.1-1.4-.4-3.1-.3-3.9.8-4.1-2.7-9.5-2-12.8 1.6-1.6 1.8-2.6 4-3 6.4-.8 4-4.3 12.3-2.4 16 1.3 2.4 7.3.5 9.8 1.6 2.6 1.1 5.5.9 7.8-.6 2.3-1.6 3.3-4.5 2.5-7.2-.4-1-1-1.9-1.5-2.8-.6-.9-.8-2-.7-3 .4-1.9 8-2.3 10.9-2.2z" fill="url(#H)"/></svg>