<svg xmlns="http://www.w3.org/2000/svg" width="800" height="800"><linearGradient id="a" gradientUnits="userSpaceOnUse" x1="61.02" y1="399.95" x2="739.05" y2="399.95" gradientTransform="matrix(1 0 0 -1 0 800)"><stop offset="0" stop-color="#e65f5c"/><stop offset="1" stop-color="#faf287"/></linearGradient><path d="M64.2 540.2c-2.4-11.1-3.5-22.7-3.1-34.6.8-24.2 6.2-47.9 12-71.4 13-52.6 28.2-105 52.2-153.6 28.1-56.7 69.4-109.3 126.4-138.8 100.2-51.7 216.7-11.9 308.2 39.6 4.1 2.3 8.3 4.7 12.4 7.1 91.8 53.8 219 154.8 144.1 272-40.2 62.7-104.9 104.4-171.3 135.5-68.7 32.1-143.3 60.3-217.3 77-43.4 9.8-91 15.1-134 .1-60.6-21.2-115.9-69.8-129.6-132.9z" fill="url(#a)"/><linearGradient id="b" gradientUnits="userSpaceOnUse" x1="102.044" y1="403.257" x2="683.944" y2="403.257" gradientTransform="matrix(1 0 0 -1 0 800)"><stop offset="0" stop-color="#e65f5c"/><stop offset="1" stop-color="#faf287"/></linearGradient><path d="M104.8 517c-2.1-9.5-3-19.5-2.7-29.7.7-20.7 5.3-41.1 10.3-61.3 11.2-45.1 24.2-90.1 44.8-131.8 24.1-48.7 59.5-93.8 108.5-119.1 85.9-44.4 185.9-10.2 264.5 33.9 3.6 2 7.1 4 10.6 6.1 78.8 46.2 188 132.9 123.7 233.4-34.5 53.9-90 89.8-147 116.4-58.9 27.6-123 51.8-186.5 66.1-37.3 8.4-78.1 13-115 .1-52-18.2-99.5-59.9-111.2-114.1z" fill="url(#b)"/><linearGradient id="c" gradientUnits="userSpaceOnUse" x1="126.2" y1="409.75" x2="629.8" y2="409.75" gradientTransform="matrix(1 0 0 -1 0 800)"><stop offset="0" stop-color="#0d152c"/><stop offset="1" stop-color="#000024"/></linearGradient><path d="M629.8 434.5c0 8.4-1 16.8-3 24.9-.7 2.7-1.5 5.4-2.4 8.1-1.1 3.2-2.4 6.4-3.8 9.5-.7 1.6-1.5 3.1-2.3 4.6 0 8.6-1.8 17.1-5.2 25-6.2 14.2-17.3 25.6-31.3 32.2-8.7 4.2-18.3 6.4-27.9 6.4H221.7c-14.8 0-29.3-3.9-42.1-11.3l-.2-.1c-1.8-1.1-3.6-2.2-5.3-3.4-3.9-2.7-7.6-5.7-10.9-9-4.6-4.5-8.6-9.5-12-14.9-8-12.7-12.2-27.4-12.2-42.4-8.1-14.2-12.8-31.3-12.8-49.6 0-23.1 7.5-44.2 19.8-60.1 2.6-3.3 5.4-6.5 8.4-9.4s6.2-5.5 9.6-7.9c2.7-1.9 5.6-3.6 8.6-5.1 1.2-.6 2.5-1.2 3.7-1.8 1.1-.5 2.2-.9 3.4-1.4 1.4-.5 2.7-1 4.1-1.4 1.4-.4 2.8-.8 4.1-1.1 2-.5 4-.9 6.1-1.2 1.7-.3 3.4-.4 5.1-.6 1.4-.1 2.7-.2 4.1-.2h.7c1.5 0 3 .1 4.5.2.2-.3.3-.6.5-.9.6-1.1 1.2-2.3 1.8-3.4l.3-.6c.5-.9 1-1.8 1.6-2.7.2-.4.5-.8.7-1.2.1-.1.1-.2.2-.3.3-.4.5-.9.8-1.3 1.3-2.1 2.7-4.2 4.1-6.2l.4-.5c.2-.3.4-.6.7-.9.6-.8 1.2-1.7 1.8-2.5.4-.6.9-1.2 1.3-1.7 1.1-1.4 2.3-2.9 3.4-4.3s2.4-2.8 3.6-4.2c.2-.2.3-.4.5-.6l1.8-2 .3-.3c.2-.2.4-.5.7-.7 1-1 2-2.1 3-3.1 5.1-5.1 10.6-9.9 16.4-14.3.2-.2.5-.4.7-.5l3.3-2.4c6.1-4.4 12.4-8.3 19-11.8.5-.3.9-.5 1.4-.7 5.9-3.1 12-5.9 18.2-8.4 3.4-1.3 6.8-2.6 10.3-3.7 2.3-.8 4.6-1.5 7-2.2 3.7-1.1 7.4-2 11.1-2.9 11-2.5 22.2-4 33.5-4.6 3.4-.2 6.9-.3 10.4-.3 16.9 0 33.7 2.1 50 6.3.3.5.9.8 1.6.8h1.4c.6.2 1.2.3 1.9.5 3.5 1 6.9 2.1 10.3 3.3l.9.3c8.4 3 16.5 6.5 24.3 10.7 7.1 3.7 13.9 7.9 20.4 12.6 1 .7 2 1.4 3 2.2 1.2-.8 2.4-1.5 3.6-2.2 4.7-2.7 9.7-4.8 14.9-6.4 10.9-3.2 22.4-3.7 33.5-1.3 14.2 3 27.1 10.5 37.5 21.1 4.2 4.4 8 9.1 11.2 14.3.2.4.5.7.7 1.1 2.8 4.5 5.2 9.3 7.2 14.3.1.2.1.4.2.5 1.8 4.6 3.3 9.4 4.4 14.3.1.2.1.5.2.7 1 4.7 1.7 9.5 2.1 14.3v.5c.2 2.5.3 5 .3 7.5 0 2.3-.1 4.5-.2 6.7 0 .2 0 .5-.1.7 0 .6-.1 1.3-.1 1.9 3.3 2.6 6.3 5.5 9.1 8.6 1.2 1.4 2.5 2.8 3.6 4.2 3.6 4.5 6.7 9.2 9.3 14.3 7.2 14.2 11.4 30.2 11.4 47.4z" fill="url(#c)"/><linearGradient id="d" gradientUnits="userSpaceOnUse" x1="204.6" y1="284.2" x2="565.4" y2="284.2" gradientTransform="matrix(1 0 0 -1 0 800)"><stop offset="0" stop-color="#e65f5c"/><stop offset="1" stop-color="#faf287"/></linearGradient><path d="M565.4 519.3c0 2.6-9 5.1-24.8 7.2h-298c-13.3 0-26.3-3.5-37.8-10.1l-.2-.1c4.5-1.6 12.7-3.2 23.8-4.6l.5-.1c5-.6 10.6-1.2 16.7-1.7h.5c4.8-.4 10-.8 15.4-1.2h.5c2.1-.2 4.2-.3 6.4-.4l.8-.1c15.9-1 34.1-1.8 53.7-2.3 2.8-.1 5.5-.1 8.3-.2 3.1-.1 6.3-.1 9.5-.2 2.4-.1 4.9-.1 7.4-.1h.1c11.2-.2 22.8-.3 34.6-.3 29.3 0 56.9.5 81.4 1.5h.1c3.8.1 7.5.3 11.1.5l3.1.1c4.1.2 8 .4 11.9.6 45.6 2.6 75 6.8 75 11.5z" fill="url(#d)"/><linearGradient id="e" gradientUnits="userSpaceOnUse" x1="409.726" y1="298.9" x2="417.93" y2="298.9" gradientTransform="matrix(1 0 0 -1 0 800)"><stop offset="0" stop-color="#e65f5c"/><stop offset="1" stop-color="#faf287"/></linearGradient><path d="M417.9 503.3c0 .4-.1.8-.1 1.2l-8.1-1.2v-.3c0-1.2.4-2.3 1-3.3.8-1.3 2-2 3.3-2s2.5.9 3.2 2.2c.5 1.2.8 2.3.7 3.4z" fill="url(#e)"/><linearGradient id="f" gradientUnits="userSpaceOnUse" x1="409.935" y1="303.35" x2="418.143" y2="303.35" gradientTransform="matrix(1 0 0 -1 0 800)"><stop offset="0" stop-color="#e65f5c"/><stop offset="1" stop-color="#faf287"/></linearGradient><path d="M409.9 496.5c.1-3 2-5.3 4.3-5.2 2.3.1 4 2.5 3.9 5.5s-2 5.3-4.3 5.2c-2.2 0-4-2.5-3.9-5.5z" fill="url(#f)"/><linearGradient id="g" gradientUnits="userSpaceOnUse" x1="410.144" y1="309.85" x2="418.357" y2="309.85" gradientTransform="matrix(1 0 0 -1 0 800)"><stop offset="0" stop-color="#e65f5c"/><stop offset="1" stop-color="#faf287"/></linearGradient><path d="M410.1 490c.1-3 2-5.3 4.3-5.2 2.3.1 4 2.5 3.9 5.5s-2 5.3-4.3 5.2c-2.2-.1-3.9-2.6-3.9-5.5z" fill="url(#g)"/><linearGradient id="h" gradientUnits="userSpaceOnUse" x1="410.35" y1="316.45" x2="418.558" y2="316.45" gradientTransform="matrix(1 0 0 -1 0 800)"><stop offset="0" stop-color="#e65f5c"/><stop offset="1" stop-color="#faf287"/></linearGradient><path d="M410.4 483.4c.1-3 2-5.3 4.3-5.2 2.3.1 4 2.5 3.9 5.5s-2 5.3-4.3 5.2c-2.3-.1-4-2.5-3.9-5.5z" fill="url(#h)"/><linearGradient id="i" gradientUnits="userSpaceOnUse" x1="410.555" y1="323.05" x2="418.764" y2="323.05" gradientTransform="matrix(1 0 0 -1 0 800)"><stop offset="0" stop-color="#e65f5c"/><stop offset="1" stop-color="#faf287"/></linearGradient><path d="M410.6 476.8c.1-3 2-5.3 4.3-5.2 2.3.1 4 2.5 3.9 5.5s-2 5.3-4.3 5.2-4-2.5-3.9-5.5z" fill="url(#i)"/><linearGradient id="j" gradientUnits="userSpaceOnUse" x1="395.316" y1="355.901" x2="436.233" y2="355.901" gradientTransform="matrix(1 0 0 -1 0 800)"><stop offset="0" stop-color="#e65f5c"/><stop offset="1" stop-color="#faf287"/></linearGradient><path d="M400.7 431.5c-.5-.7-1-1.5-1.5-2.3l10.8-1.4-11.7-.3c-2.1-5-2.1-10.6.1-15.6l15.4 8.6-14.1-11.1c5.7-9.2 17.8-12.1 27.1-6.4 9.2 5.7 12.1 17.8 6.4 27.1-.5.8-1.1 1.6-1.7 2.3.8 1.1 1.6 2.4 2.1 3.7l-14.2 6.8 15.1-4.5c1.9 6.4.5 13.3-3.8 18.4 6.4 8.7 4.6 21.1-4.2 27.5s-21.1 4.6-27.5-4.2c-5.4-7.3-5.1-17.4.8-24.3-5.3-7.3-5-17.3.9-24.3z" fill="url(#j)"/><linearGradient id="k" gradientUnits="userSpaceOnUse" x1="395.316" y1="333.699" x2="435.464" y2="333.699" gradientTransform="matrix(1 0 0 -1 0 800)"><stop offset="0" stop-color="#e65f5c"/><stop offset="1" stop-color="#faf287"/></linearGradient><path d="M435.4 444.8c-.1 4.4-1.8 8.6-4.6 12 6.4 8.7 4.6 21.1-4.2 27.5s-21.1 4.6-27.5-4.2c-5.4-7.3-5.1-17.4.8-24.3-2.5-3.4 35.6-13.2 35.5-11z" opacity=".1" fill="url(#k)"/><linearGradient id="l" gradientUnits="userSpaceOnUse" x1="351.412" y1="298.9" x2="359.616" y2="298.9" gradientTransform="matrix(1 0 0 -1 0 800)"><stop offset="0" stop-color="#e65f5c"/><stop offset="1" stop-color="#faf287"/></linearGradient><path d="M359.6 503.3c0 .4-.1.8-.1 1.2l-8.1-1.2v-.3c0-1.2.4-2.3 1-3.3.8-1.3 2-2 3.3-2s2.5.9 3.2 2.2c.5 1.2.8 2.3.7 3.4z" fill="url(#l)"/><linearGradient id="m" gradientUnits="userSpaceOnUse" x1="351.617" y1="303.35" x2="359.825" y2="303.35" gradientTransform="matrix(1 0 0 -1 0 800)"><stop offset="0" stop-color="#e65f5c"/><stop offset="1" stop-color="#faf287"/></linearGradient><path d="M351.6 496.5c.1-3 2-5.3 4.3-5.2 2.3.1 4 2.5 3.9 5.5s-2 5.3-4.3 5.2c-2.2 0-4-2.5-3.9-5.5z" fill="url(#m)"/><linearGradient id="n" gradientUnits="userSpaceOnUse" x1="351.826" y1="309.85" x2="360.034" y2="309.85" gradientTransform="matrix(1 0 0 -1 0 800)"><stop offset="0" stop-color="#e65f5c"/><stop offset="1" stop-color="#faf287"/></linearGradient><path d="M351.8 490c.1-3 2-5.3 4.3-5.2 2.3.1 4 2.5 3.9 5.5s-2 5.3-4.3 5.2c-2.2-.1-4-2.6-3.9-5.5z" fill="url(#n)"/><linearGradient id="o" gradientUnits="userSpaceOnUse" x1="352.032" y1="316.45" x2="360.24" y2="316.45" gradientTransform="matrix(1 0 0 -1 0 800)"><stop offset="0" stop-color="#e65f5c"/><stop offset="1" stop-color="#faf287"/></linearGradient><path d="M352 483.4c.1-3 2-5.3 4.3-5.2s4 2.5 3.9 5.5-2 5.3-4.3 5.2c-2.2-.1-4-2.5-3.9-5.5z" fill="url(#o)"/><linearGradient id="p" gradientUnits="userSpaceOnUse" x1="352.237" y1="323.05" x2="360.445" y2="323.05" gradientTransform="matrix(1 0 0 -1 0 800)"><stop offset="0" stop-color="#e65f5c"/><stop offset="1" stop-color="#faf287"/></linearGradient><path d="M352.2 476.8c.1-3 2-5.3 4.3-5.2 2.3.1 4 2.5 3.9 5.5s-2 5.3-4.3 5.2c-2.2 0-4-2.5-3.9-5.5z" fill="url(#p)"/><linearGradient id="q" gradientUnits="userSpaceOnUse" x1="337.002" y1="355.901" x2="377.919" y2="355.901" gradientTransform="matrix(1 0 0 -1 0 800)"><stop offset="0" stop-color="#e65f5c"/><stop offset="1" stop-color="#faf287"/></linearGradient><path d="M342.4 431.5c-.5-.7-1-1.5-1.5-2.3l10.8-1.4-11.7-.3c-2.1-5-2.1-10.6.1-15.6l15.4 8.6-14.1-11.1c5.7-9.2 17.8-12.1 27.1-6.4 9.2 5.7 12.1 17.8 6.4 27.1-.5.8-1.1 1.6-1.7 2.3.8 1.1 1.6 2.4 2.1 3.7l-14.2 6.8 15.1-4.5c1.9 6.4.5 13.3-3.8 18.4 6.4 8.7 4.6 21.1-4.2 27.5s-21.1 4.6-27.5-4.2c-5.4-7.3-5.1-17.4.8-24.3-5.3-7.3-5-17.3.9-24.3z" fill="url(#q)"/><linearGradient id="r" gradientUnits="userSpaceOnUse" x1="337.002" y1="333.699" x2="377.15" y2="333.699" gradientTransform="matrix(1 0 0 -1 0 800)"><stop offset="0" stop-color="#e65f5c"/><stop offset="1" stop-color="#faf287"/></linearGradient><path d="M377.1 444.8c-.1 4.4-1.8 8.6-4.6 12 6.4 8.7 4.6 21.1-4.2 27.5s-21.1 4.6-27.5-4.2c-5.4-7.3-5.1-17.4.8-24.3-2.5-3.4 35.6-13.2 35.5-11z" opacity=".1" fill="url(#r)"/><linearGradient id="s" gradientUnits="userSpaceOnUse" x1="503.1" y1="296.652" x2="518.913" y2="296.652" gradientTransform="matrix(1 0 0 -1 0 800)"><stop offset="0" stop-color="#e65f5c"/><stop offset="1" stop-color="#faf287"/></linearGradient><path d="M518.9 507.5c0 .8-.1 1.6-.3 2.3-5.1-.8-10.3-1.6-15.5-2.2v-.6c0-2.2.7-4.4 1.8-6.3 1.5-2.4 3.8-3.9 6.4-3.8 2.5.1 4.8 1.7 6.1 4.2 1.1 2 1.6 4.2 1.5 6.4z" fill="url(#s)"/><linearGradient id="t" gradientUnits="userSpaceOnUse" x1="503.492" y1="305.35" x2="519.308" y2="305.35" gradientTransform="matrix(1 0 0 -1 0 800)"><stop offset="0" stop-color="#e65f5c"/><stop offset="1" stop-color="#faf287"/></linearGradient><path d="M503.5 494.4c.2-5.7 3.9-10.2 8.2-10.1 4.4.1 7.8 4.9 7.6 10.6s-3.9 10.2-8.2 10.1c-4.4-.1-7.8-4.9-7.6-10.6z" fill="url(#t)"/><linearGradient id="u" gradientUnits="userSpaceOnUse" x1="503.892" y1="317.95" x2="519.708" y2="317.95" gradientTransform="matrix(1 0 0 -1 0 800)"><stop offset="0" stop-color="#e65f5c"/><stop offset="1" stop-color="#faf287"/></linearGradient><path d="M503.9 481.8c.2-5.7 3.9-10.2 8.2-10.1 4.4.1 7.8 4.9 7.6 10.6s-3.9 10.2-8.2 10.1c-4.4-.2-7.8-4.9-7.6-10.6z" fill="url(#u)"/><linearGradient id="v" gradientUnits="userSpaceOnUse" x1="504.292" y1="330.65" x2="520.108" y2="330.65" gradientTransform="matrix(1 0 0 -1 0 800)"><stop offset="0" stop-color="#e65f5c"/><stop offset="1" stop-color="#faf287"/></linearGradient><path d="M504.3 469.1c.2-5.7 3.9-10.2 8.2-10.1 4.4.1 7.8 4.9 7.6 10.6s-3.9 10.2-8.2 10.1c-4.4-.1-7.8-4.9-7.6-10.6z" fill="url(#v)"/><linearGradient id="w" gradientUnits="userSpaceOnUse" x1="504.246" y1="343.85" x2="520.063" y2="343.85" gradientTransform="matrix(1 0 0 -1 0 800)"><stop offset="0" stop-color="#e65f5c"/><stop offset="1" stop-color="#faf287"/></linearGradient><path d="M504.3 455.9c.2-5.7 3.9-10.2 8.2-10.1 4.4.1 7.8 4.9 7.6 10.6s-3.9 10.2-8.2 10.1c-4.4-.1-7.8-4.9-7.6-10.6z" fill="url(#w)"/><linearGradient id="x" gradientUnits="userSpaceOnUse" x1="475.4" y1="406.308" x2="554.107" y2="406.308" gradientTransform="matrix(1 0 0 -1 0 800)"><stop offset="0" stop-color="#e65f5c"/><stop offset="1" stop-color="#faf287"/></linearGradient><path d="M485.7 369.2c-1-1.4-2-2.9-2.8-4.4l20.9-2.8-22.5-.5c-4.1-9.6-4-20.5.2-30l29.6 16.6-27.1-21.3c11-17.8 34.4-23.2 52.2-12.2s23.2 34.4 12.2 52.2c-1 1.5-2 3-3.2 4.4 1.6 2.2 3 4.6 4.1 7l-27.4 13.2 29-8.7c3.7 12.2 1 25.5-7.2 35.4 12.4 16.8 8.8 40.5-8 53-16.8 12.4-40.5 8.8-53-8-10.4-14.1-9.8-33.4 1.5-46.8-10.3-14.3-9.7-33.7 1.5-47.1z" fill="url(#x)"/><linearGradient id="y" gradientUnits="userSpaceOnUse" x1="475.393" y1="363.774" x2="552.6" y2="363.774" gradientTransform="matrix(1 0 0 -1 0 800)"><stop offset="0" stop-color="#e65f5c"/><stop offset="1" stop-color="#faf287"/></linearGradient><path d="M552.6 394.8c-.3 8.5-3.4 16.6-8.8 23.1 12.4 16.8 8.8 40.5-8 53-16.8 12.4-40.5 8.8-53-8-10.4-14.1-9.8-33.4 1.5-46.8-4.9-6.6 68.4-25.6 68.3-21.3z" opacity=".1" fill="url(#y)"/><linearGradient id="z" gradientUnits="userSpaceOnUse" x1="217.5" y1="415.2" x2="305.4" y2="415.2" gradientTransform="matrix(1 0 0 -1 0 800)"><stop offset="0" stop-color="#e65f5c"/><stop offset="1" stop-color="#faf287"/></linearGradient><path fill="url(#z)" d="M217.5 508.2h9.7l7.2-116.5 71-118.6-3.1-3.3v-8.4l-76.8 127.5z"/><linearGradient id="A" gradientUnits="userSpaceOnUse" x1="221.9" y1="411" x2="305.4" y2="411" gradientTransform="matrix(1 0 0 -1 0 800)"><stop offset="0" stop-color="#e65f5c"/><stop offset="1" stop-color="#faf287"/></linearGradient><path fill="url(#A)" d="M221.9 508.2h5.3l7.2-116.5 71-118.6-3.1-3.3L229 389.9z"/><linearGradient id="B" gradientUnits="userSpaceOnUse" x1="205.6" y1="287.85" x2="568.2" y2="287.85" gradientTransform="matrix(1 0 0 -1 0 800)"><stop offset="0" stop-color="#e65f5c"/><stop offset="1" stop-color="#faf287"/></linearGradient><path fill="url(#B)" d="M205.6 509.2l184.1 14.1h.2l178.1-11h.2v-7.5l-196.3-3.6-163.8-.2h-1.2l-.1.9z"/><linearGradient id="C" gradientUnits="userSpaceOnUse" x1="205.6" y1="287.85" x2="568.2" y2="287.85" gradientTransform="matrix(1 0 0 -1 0 800)"><stop offset="0" stop-color="#e65f5c"/><stop offset="1" stop-color="#faf287"/></linearGradient><path fill="url(#C)" d="M205.6 509.2l184.1 14.1h.2l178.1-11 .2-.1v-7.3h-.2l-178.3 6-181.6-9.9-.4.2-.9.7z"/><linearGradient id="D" gradientUnits="userSpaceOnUse" x1="205.6" y1="287.75" x2="389.7" y2="287.75" gradientTransform="matrix(1 0 0 -1 0 800)"><stop offset="0" stop-color="#e65f5c"/><stop offset="1" stop-color="#faf287"/></linearGradient><path fill="url(#D)" d="M205.6 509.2l184.1 14.1v-12.4l-182-9.7-.9.7z"/><linearGradient id="E" gradientUnits="userSpaceOnUse" x1="302.3" y1="413.85" x2="557.6" y2="413.85" gradientTransform="matrix(1 0 0 -1 0 800)"><stop offset="0" stop-color="#e65f5c"/><stop offset="1" stop-color="#faf287"/></linearGradient><path fill="url(#E)" d="M302.3 269.6l81.2 87.1-2.6 153.3 6.9.8h7l.9-147.5 151.9 50.8 2.6 90.4 5.6.6 1.8.2-4.3-97.5L394.4 352l-87.1-90.5h-5z"/><linearGradient id="F" gradientUnits="userSpaceOnUse" x1="395" y1="367.2" x2="555.8" y2="367.2" gradientTransform="matrix(1 0 0 -1 0 800)"><stop offset="0" stop-color="#e65f5c"/><stop offset="1" stop-color="#faf287"/></linearGradient><path fill="url(#F)" d="M395 360.5l.7 2.8 151.9 50.8 2.6 90.4 5.6.6-4.4-92.9z"/><linearGradient id="G" gradientUnits="userSpaceOnUse" x1="302.3" y1="413.85" x2="389.7" y2="413.85" gradientTransform="matrix(1 0 0 -1 0 800)"><stop offset="0" stop-color="#e65f5c"/><stop offset="1" stop-color="#faf287"/></linearGradient><path fill="url(#G)" d="M302.3 269.6l81.2 87.1-2.6 153.3 6.9.8 1.9-159.1-87.4-90.2z"/><linearGradient id="H" gradientUnits="userSpaceOnUse" x1="395.3" y1="367.9" x2="553.2" y2="367.9" gradientTransform="matrix(1 0 0 -1 0 800)"><stop offset="0" stop-color="#e65f5c"/><stop offset="1" stop-color="#faf287"/></linearGradient><path fill="url(#H)" d="M395.3 422l55.8 11 97.6 19.2 4.5-1.8v-.3l-.3-6.2L395.4 412z"/><linearGradient id="I" gradientUnits="userSpaceOnUse" x1="451.1" y1="357.4" x2="553.2" y2="357.4" gradientTransform="matrix(1 0 0 -1 0 800)"><stop offset="0" stop-color="#e65f5c"/><stop offset="1" stop-color="#faf287"/></linearGradient><path fill="url(#I)" d="M451.1 433l97.6 19.2 4.5-1.8v-.3z"/><linearGradient id="J" gradientUnits="userSpaceOnUse" x1="454.834" y1="354.1" x2="468.304" y2="354.1" gradientTransform="matrix(1 0 0 -1 0 800)"><stop offset="0" stop-color="#e65f5c"/><stop offset="1" stop-color="#faf287"/></linearGradient><path fill="url(#J)" d="M454.8 383.1l1.5 83 .8 42.6 6.9-.3 4.3-.1-1.3-124-3-1-.7-.2z"/><linearGradient id="K" gradientUnits="userSpaceOnUse" x1="454.9" y1="354.1" x2="463.988" y2="354.1" gradientTransform="matrix(1 0 0 -1 0 800)"><stop offset="0" stop-color="#e65f5c"/><stop offset="1" stop-color="#faf287"/></linearGradient><path fill="url(#K)" d="M454.9 383.1l1.4 83 .8 42.6 6.9-.3V383.1z"/><linearGradient id="L" gradientUnits="userSpaceOnUse" x1="336.013" y1="392.297" x2="352.644" y2="392.297" gradientTransform="matrix(1 0 0 -1 0 800)"><stop offset="0" stop-color="#e65f5c"/><stop offset="1" stop-color="#faf287"/></linearGradient><path d="M347.3 404.3c.4.2.8.5 1.2.7.4.4.8.8 1.2 1.3 1.6 2.1 3.2 4.6 3 7.3 0 .8-.3 1.5-.9 2.1-.7.6-1.7.6-2.5.6-1 0-2 0-2.8-.5s-1.5-1.5-2.5-1.4h-.4c-.3-.1-.4-.6-.6-.8-.4-.5-1.2-.4-1.8-.2-.6.2-1.3.6-1.9.3-.3-.2-.6-.5-.8-.8-1.4-2.3-1.7-5.1-2-7.7-.2-1.6-1.4-7.2 2-5.9 1.5.6 3 1.7 4.4 2.5l4.4 2.5z" fill="url(#L)"/><linearGradient id="M" gradientUnits="userSpaceOnUse" x1="343.19" y1="390.406" x2="353.302" y2="390.406" gradientTransform="matrix(1 0 0 -1 0 800)"><stop offset="0" stop-color="#e65f5c"/><stop offset="1" stop-color="#faf287"/></linearGradient><path d="M343.9 404.8c.6.5 1.5.4 2.1-.1s.9-1.2 1-2c.4-.1.6.4.8.7.4.5 1.3.5 1.7 1.1.3.4.2.9.4 1.4.2.6.9.9 1.3 1.3.4.5.7 1.1.8 1.7l.6 1.9c.3.8.5 1.6.6 2.4s-.2 1.7-.7 2.3c-.8.9-2.2 1-3.5 1-.4 0-.8 0-1.2-.1-1.1-.3-1.8-1.4-2.1-2.5-.3-1.1-.3-2.3-.4-3.4-.2-1.1-.5-2.2-1-3.2-.3-.8-1.3-2-1.3-2.8.5-.1.7.1.9.3z" fill="url(#M)"/><linearGradient id="N" gradientUnits="userSpaceOnUse" x1="340.04" y1="398.8" x2="347.111" y2="398.8" gradientTransform="matrix(1 0 0 -1 0 800)"><stop offset="0" stop-color="#e65f5c"/><stop offset="1" stop-color="#faf287"/></linearGradient><path d="M345.3 400.9c-.2-.5-.3-1.1-.3-1.7 0-1.2.5-2.2 1.1-3.3l-4.4.6c-.5.1-1.1.2-1.4.6-.2.4-.2 1 0 1.4s.4.9.5 1.4c0 .4.1.8.1 1.2.1.3.3.6.6.8 1.3 1.4 2.2 3 3.1 4.6 0 0 2.6-2.1 2.5-2.8-.1-.4-.8-.8-1.1-1.2-.3-.4-.6-1-.7-1.6z" fill="url(#N)"/><linearGradient id="O" gradientUnits="userSpaceOnUse" x1="303.2" y1="404.85" x2="382.9" y2="404.85" gradientTransform="matrix(1 0 0 -1 0 800)"><stop offset="0" stop-color="#e65f5c"/><stop offset="1" stop-color="#faf287"/></linearGradient><path fill="url(#O)" d="M382.9 385.9v3.8l-64.7 12.6-3.4 2.1h-11.6v-2.1l63.6-15.4z"/><linearGradient id="P" gradientUnits="userSpaceOnUse" x1="303.2" y1="402.95" x2="382.9" y2="402.95" gradientTransform="matrix(1 0 0 -1 0 800)"><stop offset="0" stop-color="#e65f5c"/><stop offset="1" stop-color="#faf287"/></linearGradient><path fill="url(#P)" d="M382.9 389.7l-64.7 12.6-3.4 2.1h-11.6l64.1-13.7z"/><linearGradient id="Q" gradientUnits="userSpaceOnUse" x1="320.141" y1="302.699" x2="332.308" y2="302.699" gradientTransform="matrix(1 0 0 -1 0 800)"><stop offset="0" stop-color="#e65f5c"/><stop offset="1" stop-color="#faf287"/></linearGradient><path d="M330.9 493.2c-1.5-1.8-4-2.3-6.1-1.3-.2.1-.4.3-.6.4-.4.5-.1 1.3-.1 1.9.1 1.6-1.2 2.9-2.4 4.1-.6.6-1.3 1.3-1.5 2.1s-.1 1.9.7 2.3c.3.2.7.3 1.1.3 1.2.2 2.5.3 3.7.1 1.2-.2 2.4-.9 3-2.1.1-.3.3-.6.5-.8.7-.5 1.7.1 2.5-.3.6-.3.7-.8.7-1.5-.1-1.7-.3-3.7-1.5-5.2z" fill="url(#Q)"/><linearGradient id="R" gradientUnits="userSpaceOnUse" x1="331.82" y1="305.393" x2="340.741" y2="305.393" gradientTransform="matrix(1 0 0 -1 0 800)"><stop offset="0" stop-color="#e65f5c"/><stop offset="1" stop-color="#faf287"/></linearGradient><path d="M340.1 493.2c.5 1.2.5 2.6.6 3.9 0 .8.1 1.6-.4 2.2-.4.6-1.2 1-2 1.2-1.6.3-3.5 0-4.5-1.3-.8-1-1-2.3-.8-3.6.1-1 .4-2.2-.4-3-.2-.2-.4-.3-.6-.5-.4-.5-.3-1.2-.1-1.7.3-.6.5-1.1.6-1.7 0-.3 5.2.2 5.7.4.6.3.5.9.7 1.5.4.9.9 1.7 1.2 2.6z" fill="url(#R)"/><linearGradient id="S" gradientUnits="userSpaceOnUse" x1="316.195" y1="334.29" x2="342.889" y2="334.29" gradientTransform="matrix(1 0 0 -1 0 800)"><stop offset="0" stop-color="#e65f5c"/><stop offset="1" stop-color="#faf287"/></linearGradient><path d="M341.1 438c1 .7 1.4 1.9 1.6 3.1.4 3.3-.3 6.6-.4 9.9-.1 4.6 1.3 9.4.1 13.9-.7 2.7-.1 5.8-.7 8.5-.2.8-.5 1.6-.7 2.4-.4 1.7 0 3.6.6 5.3.2.5.3.9.3 1.4 0 .8-.2 1.5-.6 2.2l-2.3 5.4c-.3.6-1.3.7-1.9.8-1.2.1-2.6.2-3.6-.5s-1.2-2-1.4-3.2c-.3-2.3-.4-4.6-.4-6.8 0-.6 0-1.2-.2-1.8-.2-.7-.7-1.2-.8-1.9-.2-.9.3-1.8.5-2.7.1-.8.1-1.7 0-2.5-.1-1.2-.3-2.5-.5-3.7-.3-1.7.1-3.4.4-5.1.2-1.6-.1-3.2-.4-4.8 0 1.3-.1 2.6-.5 3.8-.2.6-.5 1.2-.7 1.8-.8 2.8.9 5.7.7 8.6-.1 1.4-.6 2.7-.5 4 .1 1 .6 1.9.9 2.8s.5 2 0 2.9c-1.2 2.4-.3 5.6.8 8 .2.4.4.9.6 1.3.3 1.1.1 2.3.1 3.4-.7.1-1.3-.1-1.8-.5-.2-.2-.3-.4-.5-.6-.5-.4-1-.8-1.6-1-.4-.2-.7-.3-1.2-.3-.4.1-.8.4-1.1.7l-1.2.9-.6.3c-.2 0-.5-.1-.6-.3v-.2c-.1-1.2-.2-2.3-.2-3.5 0-2-2.4-3.4-2.7-5.4-.2-1.6.2-3.2.1-4.8-.1-.8-.3-1.6-.3-2.5 0-.5.1-1.1.2-1.6v-1.8l-.1-1.9c-.1-1.8-.2-3.7-1-5.4-.9-2-1.4-4-1.5-6.2-.1-1.3 0-2.7-.2-4-.1-1.2-.4-2.4-.4-3.6.1-.9.4-1.9.5-2.8.1-1.8-.5-3.6-1.1-5.3s-.9-3.7-.2-5.3c.1-.3.3-.5.5-.7.3-.2.6-.3.9-.3 6.6-1.4 13.3-1.8 20-1.3 1.1 0 2.1.4 3.1.9z" fill="url(#S)"/><linearGradient id="T" gradientUnits="userSpaceOnUse" x1="313.147" y1="408.9" x2="325.439" y2="408.9" gradientTransform="matrix(1 0 0 -1 0 800)"><stop offset="0" stop-color="#e65f5c"/><stop offset="1" stop-color="#faf287"/></linearGradient><circle cx="319.3" cy="391.1" r="6.1" fill="url(#T)"/><linearGradient id="U" gradientUnits="userSpaceOnUse" x1="315.733" y1="400.95" x2="328.42" y2="400.95" gradientTransform="matrix(1 0 0 -1 0 800)"><stop offset="0" stop-color="#e65f5c"/><stop offset="1" stop-color="#faf287"/></linearGradient><path d="M318.1 398.8c.1.4.1.7 0 1.1-.1.2-.2.5-.4.7-.6.8-1.3 1.5-2 2.1.4.8 1 1.5 1.8 1.8s1.7.6 2.5.7c.4.1.9.1 1.3.1.4-.1.8-.3 1.2-.5l3.4-2c.5-.3 1-.6 1.4-1 .6-.6 1-1.5 1-2.4 0-.2 0-.3-.1-.5-.1-.1-.3-.2-.5-.2-1.2-.3-2.1-1.2-2.7-2.3-.5-1.1-.8-2.3-.9-3.6l-3.6 1.9c-.5.3-1.1.6-1.6.8-.4.2-1.1.3-1.3.6-.5.7.4 2 .5 2.7z" fill="url(#U)"/><linearGradient id="V" gradientUnits="userSpaceOnUse" x1="314.479" y1="381.42" x2="338.775" y2="381.42" gradientTransform="matrix(1 0 0 -1 0 800)"><stop offset="0" stop-color="#e65f5c"/><stop offset="1" stop-color="#faf287"/></linearGradient><path d="M315.8 401.6c-.5.4-.9 1-1.2 1.6-.2.8 0 1.6.2 2.3 1 3.2 1.8 6.5 2.3 9.9.3 2.3.4 4.6.6 7 .3 4.7.8 12.3 1.4 17 2.3.1 4.5-.6 6.8-.8 4.3-.5 8.7.6 12.8-.4-1-4-2-10.8-3-14.8-.4-1.6-.8-3.2-.9-4.8-.1-1.2 0-2.3 0-3.5 0-2.3-.1-4.6-.2-6.9-.1-2.7-.3-5.4-.9-8 0-.3-.2-.6-.4-.9-.4-.3-.9-.2-1.3-.1-1.4.2-2.8-.2-4-.9-.5-.3-1.2-.8-1.7-.4-.2.2-.3.5-.4.8-.4 1.1-1.3 2-2.4 2.4s-2.2.6-3.4.7c-.4.1-.7 0-1.1-.1-.5-.3-.6-1.5-1.3-1.6-.6-.2-1.5 1.1-1.9 1.5z" fill="url(#V)"/><linearGradient id="W" gradientUnits="userSpaceOnUse" x1="307.671" y1="379.622" x2="342.179" y2="379.622" gradientTransform="matrix(1 0 0 -1 0 800)"><stop offset="0" stop-color="#e65f5c"/><stop offset="1" stop-color="#faf287"/></linearGradient><path d="M324.8 411c-1.4-1.4-2-3.3-3.1-5-.7-1.1-1.6-2.1-2.7-2.9-.5-.3-1-.8-1.4-1.2-.4-.4-.6-1-1.2-1.2-.5-.1-.9 0-1.3.4l-1 1c-1.6 1.7-4.5 1.9-5.8 3.9-.3.4-.6.9-.7 1.4-.4 2.8.4 5.7 2 8 .3.5.8.9 1.4 1.2-.1.7 0 1.4.3 2.1.7 2.4 1.6 4.8 2.6 7.1-.2.9-.4 1.8-.5 2.8-.3 2.3 0 4.7-.3 7.1-.2 1.9-.8 3.8-.8 5.7 0 .3 0 .7.3.8.1.1.3.1.5.1l4.7.1c2.7.1 5.5.2 8.2-.3.4-.1.7-.2 1-.3.9-.5 1.2-1.7 1.4-2.7.2-1.3.3-2.7.2-4 .6 1.8 1.3 3.7 3 4.5.9.4 2 .4 3 .4 2.2-.1 4.3-.3 6.4-.7.5.1.9-.3.9-.7V436.3c0-4.3-1-8.3-1.4-12.6-.1-1.3-.1-2.7-.4-4-.1-.5-.3-1.1-.4-1.6s-.2-1.1-.2-1.6l-.3-4.2c-.1-2-.3-3.8-.5-5.8-.1-1.9-.4-3.8-.8-5.6-.3-1.2-1-2.5-2.2-2.6-.6-.1-1.3.2-1.9.4-1.5.5-3.1.5-4.6 0-.5-.2-.9-.3-1.4-.4s-1 .1-1.3.5c-.1.3-.2.6-.2 1-.1 3.5-.4 7.4-1.5 11.2z" fill="url(#W)"/><linearGradient id="X" gradientUnits="userSpaceOnUse" x1="308" y1="386.966" x2="329.351" y2="386.966" gradientTransform="matrix(1 0 0 -1 0 800)"><stop offset="0" stop-color="#e65f5c"/><stop offset="1" stop-color="#faf287"/></linearGradient><path d="M318.7 411.1c-1.8-1.9-3.6-3.8-5.9-4.9-.9-.5-1.9-.8-2.9-.6-1 .2-1.9 1-1.9 2 0 .6.4 1.2.5 1.8.1.7-.1 1.4.2 2.1.2.4.4.8.8 1.2l2.7 3.2c1.2 1.3 2.3 2.7 3.8 3.6s3.4 1.4 5 .7c1.2-.5 2.1-1.4 2.8-2.5.7-1.1 1.2-2.2 1.8-3.4 1-1.8 2.3-3.3 3.8-4.7-.8-.2-1.8-.5-2.3-1.2-.1-.2-.3-.4-.4-.7l-.6-1.3c-.4 0-.8.1-1.2.4l-.9.9c-.5.4-1.3.5-1.8 1-.2.2-.4.4-.5.6-.7 1.1-1.8 1.7-3 1.8z" fill="url(#X)"/><linearGradient id="Y" gradientUnits="userSpaceOnUse" x1="325.423" y1="398.772" x2="336.187" y2="398.772" gradientTransform="matrix(1 0 0 -1 0 800)"><stop offset="0" stop-color="#e65f5c"/><stop offset="1" stop-color="#faf287"/></linearGradient><path d="M329.5 403.1c1.3-2.4 1.3-5.3 1.6-8.1 0-.7.3-1.4.7-2 .8-.9 2.1-.9 3.3-.8.3 0 .8.2.7.5 0 .1-.1.2-.2.3-1.1 1.4-1.8 3.2-1.9 5 .6.4 1.5-.4 2.1 0 .4.3.2 1 0 1.4-.5 1.1-1.1 2.1-1.7 3.2-.5.9-1 1.8-1.8 2.5-.5.5-1.1.8-1.6 1.3-1.2 1.1-1.8 2.6-3 3.7-.1.1-.2.2-.4.2s-.3-.1-.4-.2c-.6-.5-1.1-1.1-1.5-1.8-.5-.8-.4-1.1.3-1.7 1.7-.9 3-2 3.8-3.5z" fill="url(#Y)"/><linearGradient id="Z" gradientUnits="userSpaceOnUse" x1="309.24" y1="393.046" x2="318.63" y2="393.046" gradientTransform="matrix(1 0 0 -1 0 800)"><stop offset="0" stop-color="#e65f5c"/><stop offset="1" stop-color="#faf287"/></linearGradient><path d="M316.4 409.4c.2.1.5.3.8.2.1-.1.2-.1.3-.2.4-.6.8-1.2 1.1-1.9 0-.1.1-.2.1-.3 0-.2-.2-.4-.4-.6-1.1-.7-2.3-1.3-3.5-1.7-1-.4-2.1-.7-3.1-.6-.8.1-1.6.4-2.1 1.1-.8 1 .5 1.3 1.3 1.6 1.8.9 3.8 1.4 5.5 2.4z" fill="url(#Z)"/><linearGradient id="aa" gradientUnits="userSpaceOnUse" x1="315.221" y1="385.605" x2="316.508" y2="385.605" gradientTransform="matrix(1 0 0 -1 0 800)"><stop offset="0" stop-color="#e65f5c"/><stop offset="1" stop-color="#faf287"/></linearGradient><path d="M315.2 415.9c0 .2 0 .4.2.5.1-.5 0-1.1.1-1.7.2-.8 1-1.4 1-2.3-1.5-.2-1.3 2.7-1.3 3.5z" fill="url(#aa)"/><linearGradient id="ab" gradientUnits="userSpaceOnUse" x1="366.8" y1="411.7" x2="382.871" y2="411.7" gradientTransform="matrix(1 0 0 -1 0 800)"><stop offset="0" stop-color="#e65f5c"/><stop offset="1" stop-color="#faf287"/></linearGradient><path fill="url(#ab)" d="M382.9 385.9v3.8l-15.6 1-.5-3.8z"/><linearGradient id="ac" gradientUnits="userSpaceOnUse" x1="311.9" y1="412.476" x2="325.328" y2="412.476" gradientTransform="matrix(1 0 0 -1 0 800)"><stop offset="0" stop-color="#e65f5c"/><stop offset="1" stop-color="#faf287"/></linearGradient><path d="M313.8 392.1c1-.8.4-2.5 1.1-3.5.4-.6 1-.9 1.7-1.2.8-.4 1.6-.6 2.4-.7.9-.1 1.7.2 2.3.8.2.3.4.6.7.9.6.7 1.5 1 2.4.8.5-.1 1-.5 1-1-.1-.3-.2-.6-.5-.8l-1.1-1.2c-1.2-1.4-2.6-2.8-4.5-3.2-1.3-.2-2.6.1-3.8.5-.5.2-1.1.4-1.2.9-.1.3 0 .7 0 1.1-.2.7-1 .9-1.5 1.5-.4.6-.3 1.3-.4 1.9s-.5 1.3-.5 1.9c0 .4.2 1.2.6 1.3s1-.5 1.3 0z" fill="url(#ac)"/><linearGradient id="ad" gradientUnits="userSpaceOnUse" x1="311.56" y1="415.024" x2="324.94" y2="415.024" gradientTransform="matrix(1 0 0 -1 0 800)"><stop offset="0" stop-color="#e65f5c"/><stop offset="1" stop-color="#faf287"/></linearGradient><path d="M324.9 387.7c-.3-1.7-1-3.3-2-4.7-.9-1.3-2.2-2.3-3.6-2.9-1.5-.6-3.1-.4-4.5.4-1 .7-1.8 1.7-2.3 2.9-1 2.1-1.4 4.8-.2 6.8.5-.6 1.3-.3 1.9-.5.9-.2 1.6-.8 2.4-1.2 2.6-1.1 5.7-.2 8.3-.8z" fill="url(#ad)"/><linearGradient id="ae" gradientUnits="userSpaceOnUse" x1="312.756" y1="413.45" x2="314.291" y2="413.45" gradientTransform="matrix(1 0 0 -1 0 800)"><stop offset="0" stop-color="#e65f5c"/><stop offset="1" stop-color="#faf287"/></linearGradient><path d="M312.9 387.6c-.1-.7-.1-1.5.3-2 0-.1.1-.1.2-.1s.1.1.2.1c.3.4.5.9.7 1.4-.6-.1-1.2.1-1.4.6" fill="url(#ae)"/><linearGradient id="af" gradientUnits="userSpaceOnUse" x1="321.649" y1="415.22" x2="323.517" y2="415.22" gradientTransform="matrix(1 0 0 -1 0 800)"><stop offset="0" stop-color="#e65f5c"/><stop offset="1" stop-color="#faf287"/></linearGradient><path d="M321.8 385.7l-.1-1.4v-.3c.1-.2.4-.3.6-.2.2.1.3.3.4.4.3.5.6 1 .8 1.6-.6-.1-1.3-.1-1.9 0" fill="url(#af)"/><linearGradient id="ag" gradientUnits="userSpaceOnUse" x1="308.7" y1="357.05" x2="325.247" y2="357.05" gradientTransform="matrix(1 0 0 -1 0 800)"><stop offset="0" stop-color="#e65f5c"/><stop offset="1" stop-color="#faf287"/></linearGradient><path fill="url(#ag)" d="M325.3 441.3v3.1l-2.7.2h-13.9v-3.3z"/><linearGradient id="ah" gradientUnits="userSpaceOnUse" x1="264.8" y1="384.25" x2="325.3" y2="384.25" gradientTransform="matrix(1 0 0 -1 0 800)"><stop offset="0" stop-color="#e65f5c"/><stop offset="1" stop-color="#faf287"/></linearGradient><path fill="url(#ah)" d="M325.3 441.3v3.3h-16.6l-43.9-55.1v-2.6h9.2z"/><linearGradient id="ai" gradientUnits="userSpaceOnUse" x1="264.8" y1="384.25" x2="325.3" y2="384.25" gradientTransform="matrix(1 0 0 -1 0 800)"><stop offset="0" stop-color="#e65f5c"/><stop offset="1" stop-color="#faf287"/></linearGradient><path fill="url(#ai)" d="M325.3 441.3v3.3h-16.6l-43.9-55.1v-2.6h9.2z"/><linearGradient id="aj" gradientUnits="userSpaceOnUse" x1="264.8" y1="384.25" x2="325.3" y2="384.25" gradientTransform="matrix(1 0 0 -1 0 800)"><stop offset="0" stop-color="#e65f5c"/><stop offset="1" stop-color="#faf287"/></linearGradient><path fill="url(#aj)" d="M325.3 441.3v3.3h-16.6l-43.9-55.1v-2.6l44.2 54.4z"/><linearGradient id="ak" gradientUnits="userSpaceOnUse" x1="265.938" y1="301.849" x2="279.284" y2="301.849" gradientTransform="matrix(1 0 0 -1 0 800)"><stop offset="0" stop-color="#e65f5c"/><stop offset="1" stop-color="#faf287"/></linearGradient><path d="M270.5 496.4c.1.6-.3 1.2-.9 1.3h-.1c-1.1.4-2.2.7-3 1.5s-.9 2.3 0 3c.5.3 1 .4 1.5.4 1.7.1 3.5.1 5.1-.6 1.1-.5 2.2-1.4 3.4-1.3.6 0 1.3.3 1.9 0s.7-1.1.7-1.8c0-1.4-.2-2.8-.6-4.2-.1-.2-2.5-.3-2.8-.4l-3-.4c-.6-.1-1.8-.5-2.2 0-.2.6 0 2 0 2.5z" fill="url(#ak)"/><linearGradient id="al" gradientUnits="userSpaceOnUse" x1="288.07" y1="313.352" x2="295.061" y2="313.352" gradientTransform="matrix(1 0 0 -1 0 800)"><stop offset="0" stop-color="#e65f5c"/><stop offset="1" stop-color="#faf287"/></linearGradient><path d="M288.2 486.9c.1.7.3 1.4.6 2 .4 1 .9 2.2 1.9 2.7.9.5 2 .3 3-.1.4-.2.7-.4 1-.7.3-.5.4-1.1.4-1.7 0-1.5-.1-3-.8-4.3-.6-1.2-1.6-2.1-1.6-3.4l-3.5.7c-.2 0-.4.1-.5.2s-.2.3-.2.4c-.4 1.2-.5 2.7-.3 4.2z" fill="url(#al)"/><linearGradient id="am" gradientUnits="userSpaceOnUse" x1="246.37" y1="350.262" x2="252.957" y2="350.262" gradientTransform="matrix(1 0 0 -1 0 800)"><stop offset="0" stop-color="#e65f5c"/><stop offset="1" stop-color="#faf287"/></linearGradient><path d="M246.4 450.4c-.1 1.2-.1 2.6.6 3.6.6 1.1 2 1.8 3.2 1.3.1 0 .2-.1.3-.2v-.4c-.5-1.4-.5-2.9.1-4.3.1-.2.2-.4.4-.3.1 0 .1.1.2.2.2.3.3.7.3 1.1-.1.3-.1.7 0 1s.4.6.7.5c.2-.1.3-.3.3-.5.9-2.5.5-5.2.1-7.8 0-.2-.2-.4-.4-.4h-.1c-1.8-.2-2.8-.6-3.8 1.1-1 1.5-1.9 3.4-1.9 5.1z" fill="url(#am)"/><linearGradient id="an" gradientUnits="userSpaceOnUse" x1="266.5" y1="329.686" x2="295.621" y2="329.686" gradientTransform="matrix(1 0 0 -1 0 800)"><stop offset="0" stop-color="#e65f5c"/><stop offset="1" stop-color="#faf287"/></linearGradient><path d="M267.6 444.1c-.5 2.2-1.1 4.5-1.1 6.8 0 1.4.1 2.9.3 4.3l.4 3.3c.1 1.1.3 2.2.5 3.3.1.6.2 1.2.2 1.7 0 .6-.1 1.1-.3 1.7-.2 1.2-.4 2.4-.4 3.6 0 1.9.2 3.8.3 5.8.3 3.8.3 7.7-.1 11.5-.2 1 .1 2.1.6 3l.6.9c.3.9-.4 1.8-.6 2.7-.2 1.5.8 2.8 2.2 3.1 3.1.4 6.2.2 9 1.6.3-.9-.3-1.8-.1-2.7.2-.5.7-.9 1-1.3.5-.7.7-1.5.7-2.3 0-1.1-.2-2.2-.6-3.2-.3-.8-.8-1.7-.8-2.6 0-.4.2-.9 0-1.3-.1-.2-.3-.4-.5-.6-1.1-1.3-1.9-2.9-2-4.5-.1-1.7-.1-3.4.2-5 .2-1.6.4-3.3 1.5-4.5-.5-3.8-.2-7.6.8-11.2.1-.3.3-.7.6-.8.3 0 .6.1.7.3.6.6.9 1.4 1.2 2.2.3.8.6 1.8.4 2.6-.1.4-.3.7-.4 1.1-.2.7-.2 1.5.1 2.3.1.3.2.5.3.8 0 .3-.1.5-.2.7-.3.9-.2 1.9.3 2.7.5.8 1.1 1.6 1.8 2.2-.3 1.5-.2 3 .2 4.4.1.1.1.3 0 .4s-.2.2-.4.3c-.4.3-.1.9.1 1.3.7 1.1 1.5 2.2 2.3 3.2.8.9.7 2.7 1.8 3 .5.1 1 .1 1.5 0 1.1-.2 2.4-.5 2.9-1.5.2-.4.3-.9.7-1.2s.8-.4 1-.7c.2-.4 0-.9 0-1.3.1-.4.4-.8.6-1.2.3-1-.9-1.9-1.1-2.9-.2-1.5 1.7-2.7 1.6-4.2-.2-3.3-.3-6.7-.4-10-.2-3-.2-6-.1-9 .1-1.9.4-3.8-.3-5.5-1-2.4-3.7-3.8-6.3-4.1s-5.2.4-7.8.8c-4.2.4-8.6.5-12.9 0z" fill="url(#an)"/><linearGradient id="ao" gradientUnits="userSpaceOnUse" x1="269.247" y1="398.7" x2="281.539" y2="398.7" gradientTransform="matrix(1 0 0 -1 0 800)"><stop offset="0" stop-color="#e65f5c"/><stop offset="1" stop-color="#faf287"/></linearGradient><circle cx="275.4" cy="401.3" r="6.1" fill="url(#ao)"/><linearGradient id="ap" gradientUnits="userSpaceOnUse" x1="270.335" y1="389.339" x2="285.583" y2="389.339" gradientTransform="matrix(1 0 0 -1 0 800)"><stop offset="0" stop-color="#e65f5c"/><stop offset="1" stop-color="#faf287"/></linearGradient><path d="M272.9 408.6c-.4 1-1.4 1.6-2.5 1.6-.2.9.3 1.8.9 2.6 2.6 3 6.6 4.4 10.5 3.6.7-.1 1.4-.4 2.1-.9.8-.7 1.4-1.7 1.6-2.7.2-1.1.2-2.1.1-3.2 0-.2 0-.4-.2-.6-.2-.1-.3-.2-.5-.2-1.3-.1-2.7-.2-3.8-.8-1.1-.6-1.9-2.1-1.4-3.3-.1.2-2.3.3-2.6.3-.9.1-1.8.3-2.8.4-.4 0-.9.1-1.3.2-.6.3-.3.1-.2.7.1.9.4 1.5.1 2.3z" fill="url(#ap)"/><linearGradient id="aq" gradientUnits="userSpaceOnUse" x1="247.978" y1="373.01" x2="292.641" y2="373.01" gradientTransform="matrix(1 0 0 -1 0 800)"><stop offset="0" stop-color="#e65f5c"/><stop offset="1" stop-color="#faf287"/></linearGradient><path d="M277.6 412.3c-.8 0-1.7-.1-2.5-.3-.8-.2-1.5-.7-2-1.3-.3-.4-.5-1-.9-1.2-.7-.4-1.6.3-2.2.9-.5.6-1.2 1.1-1.8 1.5-.8.4-1.8.6-2.6 1.1-.6.5-1.1 1-1.5 1.7l-5.4 7.4c-2.2 3-4.1 6.2-6 9.3-1.7 2.7-2.6 5.9-3.8 8.8-.1.2-.1.4-.1.6s.3.4.5.2c-.6.6-.1 1.5-.2 2.3-.2.6-.5 1.1-.9 1.4.8-.1 1.7-.1 2.5.1.9.2 1.7.6 2.4 1.2.5-.1.4-.9.8-1.2.2-.2.5-.2.8-.2 1-.2 1.4-1.4 2.2-2.1.7-.6 1.6-.8 2.3-1.3 1.1-.9 1.4-2.5 2-3.8.5-1.1 1.3-2.1 1.7-3.2.3-.7.4-1.5.8-2.2.7-1.1 1.9-1.7 3.1-2.2.7-.3 1.5-.7 2.3-.6 0 1.8-.3 3.5.1 5.3.1.6.3 1.2.5 1.8.7 2.7.9 5.6.9 8.4 1.8-.4 3.6-.6 5.4-.6 1.4 0 2.8.1 4.3.1 1.7 0 3.4-.4 5-.5 1.7-.1 3.5 0 4.9.8-.1-2.4-.1-4.9.2-7.3l.4-3.8c.1-1.1.3-2.2.5-3.3.2-.9.5-1.7.8-2.6.9-3.1.7-6.3.5-9.5-.1-1.6-.7-3.3-1.5-4.7-.3-.5-.6-1.1-.9-1.6-1.8-2.5-4.8-3.9-7.9-3.7-.2 0-.4 0-.6.1-.3.2-.6.5-.7.9-.9 1.3-2 2.5-3.4 3.3z" fill="url(#aq)"/><linearGradient id="ar" gradientUnits="userSpaceOnUse" x1="268.106" y1="399.312" x2="281.148" y2="399.312" gradientTransform="matrix(1 0 0 -1 0 800)"><stop offset="0" stop-color="#e65f5c"/><stop offset="1" stop-color="#faf287"/></linearGradient><path d="M270 403.4c.2-.4.6-.5.9-.8.5-.6.3-1.5.4-2.3.1-1.2 1.1-2.1 2.2-2.5s2.3-.4 3.5-.2c.6 0 1.1.2 1.6.5.2.1.4.3.6.5.7.4 1.6.2 2.1-.5-1.4-1.6-2.9-3.4-4.9-3.9-.7-.1-1.4-.2-2.2-.2-1 0-1.9 0-2.8.3-1.2.5-2 1.6-2.5 2.9-.4 1.2-.6 2.5-.6 3.8-.1.9-.1 1.7 0 2.6.1 1.2.6 2.3 1.3 3.3.1.2.2.3.4.4 1.6.7-.2-3.6 0-3.9z" fill="url(#ar)"/><linearGradient id="as" gradientUnits="userSpaceOnUse" x1="266.828" y1="404.264" x2="280.948" y2="404.264" gradientTransform="matrix(1 0 0 -1 0 800)"><stop offset="0" stop-color="#e65f5c"/><stop offset="1" stop-color="#faf287"/></linearGradient><path d="M280.9 397c-.2-1.8-1.5-3.3-2.9-4.5-1.1-1-2.4-1.8-3.9-2.3-1.4-.4-3.1-.3-4.4.5-1 .7-1.6 1.8-2.1 2.9-.6 1.3-1 2.8-.9 4.2.1 1.5.8 2.9 2.1 3.7.5-.7 1.2-1 2-1.3 3.4-1.2 6.7-2.3 10.1-3.2z" fill="url(#as)"/><linearGradient id="at" gradientUnits="userSpaceOnUse" x1="268.895" y1="402.805" x2="270.379" y2="402.805" gradientTransform="matrix(1 0 0 -1 0 800)"><stop offset="0" stop-color="#e65f5c"/><stop offset="1" stop-color="#faf287"/></linearGradient><path d="M269.3 396.3c.1 0 .2.1.3.2.3.5.6 1 .8 1.5-.4.1-1.2.2-1.4-.2-.2-.2 0-1.5.3-1.5z" fill="url(#at)"/><linearGradient id="au" gradientUnits="userSpaceOnUse" x1="277.856" y1="405.536" x2="279.563" y2="405.536" gradientTransform="matrix(1 0 0 -1 0 800)"><stop offset="0" stop-color="#e65f5c"/><stop offset="1" stop-color="#faf287"/></linearGradient><path d="M278.1 395.4c-.1.1-.2-.1-.2-.2v-1.6l.1-.1c.3 0 .6.2.8.5.3.4.6.8.8 1.3H278" fill="url(#au)"/><linearGradient id="av" gradientUnits="userSpaceOnUse" x1="286.018" y1="382.156" x2="306.103" y2="382.156" gradientTransform="matrix(1 0 0 -1 0 800)"><stop offset="0" stop-color="#e65f5c"/><stop offset="1" stop-color="#faf287"/></linearGradient><path d="M298.3 420.1c.4-.3.7-.6 1.1-.9 1.1-.7 2.3-1 3.5-1.4 1.2-.5 2.4-1.2 2.9-2.4.2-.7.3-1.5.2-2.3 0-.3 0-.6-.2-.9-.1-.3-.4-.5-.6-.7-1.6-1.2-3.8-1.3-5.8-1.2-4.4.3-8.8 1.4-12.8 3.2-.2.1-.4.2-.5.4-.1.2-.1.3-.1.5-.1 1.1.1 2.3.4 3.3.5 1.4 1.6 2.5 2.1 3.9.2.6.3 1.3.5 1.9.1.6.5 1.2 1.1 1.6 1.5.9 2.9-.3 4-1.3l4.2-3.7z" fill="url(#av)"/><linearGradient id="aw" gradientUnits="userSpaceOnUse" x1="264.715" y1="373.398" x2="294.55" y2="373.398" gradientTransform="matrix(1 0 0 -1 0 800)"><stop offset="0" stop-color="#e65f5c"/><stop offset="1" stop-color="#faf287"/></linearGradient><path d="M278.5 425.4l-1.9-4.2c-.3-.6-.5-1.2-.7-1.8-.2-.7-.3-1.5-.5-2.3-.7-2.5-2.4-4.5-3.2-7l-.3-.6c-.2-.2-.6-.2-.9-.2-1.2.2-2.1 1.1-3.2 1.6l-1.5.6c-.5.2-.9.7-1 1.2-.1.6.2 1.2.4 1.7 1 2.4 1.3 5 1.3 7.6 0 1.7-.1 3.6-1.1 5-2 2.7-.7 6.6 0 9.9l.3 1.2c.1.5.1 1 .1 1.5 0 1.7-.1 3.5-.8 5.1.7.4 1.5.6 2.3.7 2.2.3 4.5.5 6.7.6.7.1 1.4 0 2.1-.1 1.7-.5 2.9-2 2.8-3.8.1 1.1.3 2.2 1.1 3 .8.7 1.9.8 2.9.9 3 .2 5.9.1 8.9-.2.2 0 .4-.1.5-.1.6-.3.6-1.1.6-1.7-.1-1.2-.2-2.4-.3-3.5-.1-.7-.2-1.5-.2-2.3.1-.8.2-1.5.4-2.3.5-2.4.9-4.8.7-7.3-.1-.6-.1-1.2-.1-1.8.1-1.4.8-2.6.7-4-.4-4-.7-8-1.8-11.8-.2-.7-.5-1.4-1-1.8-.8-.5-1.8-.2-2.7-.6-.4-.2-.8-.4-1.2-.7-.8-.5-1.7-.8-2.6-.8-.7 0-1.5.1-1.9.7-.2.3-.3.7-.4 1-.6 2.3-1.2 4.7-1.9 7l-.6 2.2-1.7 6c-.3.6-.2.8-.3 1.4z" fill="url(#aw)"/><linearGradient id="ax" gradientUnits="userSpaceOnUse" x1="280.948" y1="376.75" x2="325.382" y2="376.75" gradientTransform="matrix(1 0 0 -1 0 800)"><stop offset="0" stop-color="#e65f5c"/><stop offset="1" stop-color="#faf287"/></linearGradient><path fill="url(#ax)" d="M288.3 402.1l37.1 39v3.3h-16.6L280.9 408"/><linearGradient id="ay" gradientUnits="userSpaceOnUse" x1="280.948" y1="376.75" x2="325.382" y2="376.75" gradientTransform="matrix(1 0 0 -1 0 800)"><stop offset="0" stop-color="#e65f5c"/><stop offset="1" stop-color="#faf287"/></linearGradient><path fill="url(#ay)" d="M288.3 402.1l37.1 39v3.3h-16.6L280.9 408"/><linearGradient id="az" gradientUnits="userSpaceOnUse" x1="280.948" y1="374.05" x2="325.382" y2="374.05" gradientTransform="matrix(1 0 0 -1 0 800)"><stop offset="0" stop-color="#e65f5c"/><stop offset="1" stop-color="#faf287"/></linearGradient><path fill="url(#az)" d="M281.5 407.5l.2.1 27.4 33.5h16.3v3.3h-16.6L280.9 408z"/><linearGradient id="aA" gradientUnits="userSpaceOnUse" x1="282.495" y1="389.966" x2="294.214" y2="389.966" gradientTransform="matrix(1 0 0 -1 0 800)"><stop offset="0" stop-color="#e65f5c"/><stop offset="1" stop-color="#faf287"/></linearGradient><path d="M285.8 408.4c-1.3.6-2.8 1.3-3.2 2.8-.1.2-.1.5 0 .8.2.6.8 1 1.4 1.1.6 0 1.3-.1 1.8-.3l7.9-2.6c.2-.1.5-.2.5-.4 0-.1 0-.3-.1-.4-.2-.6-.5-1.8-1-2.2-.4-.3-1.3-.2-1.8-.2-1.9-.2-3.7.6-5.5 1.4z" fill="url(#aA)"/><linearGradient id="aB" gradientUnits="userSpaceOnUse" x1="291.18" y1="389.3" x2="305.864" y2="389.3" gradientTransform="matrix(1 0 0 -1 0 800)"><stop offset="0" stop-color="#e65f5c"/><stop offset="1" stop-color="#faf287"/></linearGradient><path d="M292.9 410.3c1.3 0 2.7.2 3.9.6 1.3.4 2.4 1.2 3.3 2.2.2.3.4.6.5 1s1.3.6 1.1.9c.8-.1.6.3 1.5.3s1.8-.2 2.3-.9c.4-.6.5-1.2.4-1.9 0-.5-.1-.9-.3-1.3-.4-.8-1.3-1.2-2.1-1.6l-6.9-3.1c-.4-.2-.8-.4-1.3-.4h-1.1l-3.1.4c1.4.9 2.2 2.4 2.1 4.1" fill="url(#aB)"/></svg>