<svg xmlns="http://www.w3.org/2000/svg" width="800" height="800"><linearGradient id="a" gradientUnits="userSpaceOnUse" x1="223.594" y1="404.135" x2="576.957" y2="404.135"><stop offset="0" stop-color="#e65f5c"/><stop offset="1" stop-color="#faf287"/></linearGradient><path fill="url(#a)" d="M223.6 265.5H577v277.3H223.6z"/><linearGradient id="b" gradientUnits="userSpaceOnUse" x1="223.594" y1="404.135" x2="576.957" y2="404.135"><stop offset="0" stop-color="#e65f5c"/><stop offset="1" stop-color="#faf287"/></linearGradient><path opacity=".1" fill="url(#b)" d="M223.6 265.5H577v277.3H223.6z"/><linearGradient id="c" gradientUnits="userSpaceOnUse" x1="150" y1="423.98" x2="650" y2="423.98"><stop offset="0" stop-color="#e65f5c"/><stop offset="1" stop-color="#faf287"/></linearGradient><path fill="url(#c)" d="M150 303.5h500v240.9H150z"/><linearGradient id="d" gradientUnits="userSpaceOnUse" x1="254.19" y1="400" x2="546.362" y2="400"><stop offset="0" stop-color="#e65f5c"/><stop offset="1" stop-color="#faf287"/></linearGradient><path fill="url(#d)" d="M254.2 236.8h292.2v326.4H254.2z"/><linearGradient id="e" gradientUnits="userSpaceOnUse" x1="170.397" y1="355.899" x2="232.139" y2="355.899"><stop offset="0" stop-color="#0d152c"/><stop offset="1" stop-color="#000024"/></linearGradient><path fill="url(#e)" d="M170.4 336.1h61.7v39.7h-61.7z"/><linearGradient id="f" gradientUnits="userSpaceOnUse" x1="170.397" y1="423.153" x2="232.139" y2="423.153"><stop offset="0" stop-color="#0d152c"/><stop offset="1" stop-color="#000024"/></linearGradient><path fill="url(#f)" d="M170.4 403.3h61.7V443h-61.7z"/><linearGradient id="g" gradientUnits="userSpaceOnUse" x1="170.397" y1="490.408" x2="232.139" y2="490.408"><stop offset="0" stop-color="#0d152c"/><stop offset="1" stop-color="#000024"/></linearGradient><path fill="url(#g)" d="M170.4 470.6h61.7v39.7h-61.7z"/><linearGradient id="h" gradientUnits="userSpaceOnUse" x1="291.676" y1="288.644" x2="353.418" y2="288.644"><stop offset="0" stop-color="#0d152c"/><stop offset="1" stop-color="#000024"/></linearGradient><path fill="url(#h)" d="M291.7 268.8h61.7v39.7h-61.7z"/><linearGradient id="i" gradientUnits="userSpaceOnUse" x1="291.676" y1="355.899" x2="353.418" y2="355.899"><stop offset="0" stop-color="#0d152c"/><stop offset="1" stop-color="#000024"/></linearGradient><path fill="url(#i)" d="M291.7 336.1h61.7v39.7h-61.7z"/><linearGradient id="j" gradientUnits="userSpaceOnUse" x1="291.676" y1="423.153" x2="353.418" y2="423.153"><stop offset="0" stop-color="#0d152c"/><stop offset="1" stop-color="#000024"/></linearGradient><path fill="url(#j)" d="M291.7 403.3h61.7V443h-61.7z"/><linearGradient id="k" gradientUnits="userSpaceOnUse" x1="447.133" y1="288.644" x2="508.875" y2="288.644"><stop offset="0" stop-color="#0d152c"/><stop offset="1" stop-color="#000024"/></linearGradient><path fill="url(#k)" d="M447.1 268.8h61.7v39.7h-61.7z"/><linearGradient id="l" gradientUnits="userSpaceOnUse" x1="447.133" y1="355.899" x2="508.875" y2="355.899"><stop offset="0" stop-color="#0d152c"/><stop offset="1" stop-color="#000024"/></linearGradient><path fill="url(#l)" d="M447.1 336.1h61.7v39.7h-61.7z"/><linearGradient id="m" gradientUnits="userSpaceOnUse" x1="447.133" y1="423.153" x2="508.875" y2="423.153"><stop offset="0" stop-color="#0d152c"/><stop offset="1" stop-color="#000024"/></linearGradient><path fill="url(#m)" d="M447.1 403.3h61.7V443h-61.7z"/><linearGradient id="n" gradientUnits="userSpaceOnUse" x1="563.451" y1="355.899" x2="625.193" y2="355.899"><stop offset="0" stop-color="#0d152c"/><stop offset="1" stop-color="#000024"/></linearGradient><path fill="url(#n)" d="M563.5 336.1h61.7v39.7h-61.7z"/><linearGradient id="o" gradientUnits="userSpaceOnUse" x1="563.451" y1="423.153" x2="625.193" y2="423.153"><stop offset="0" stop-color="#0d152c"/><stop offset="1" stop-color="#000024"/></linearGradient><path fill="url(#o)" d="M563.5 403.3h61.7V443h-61.7z"/><linearGradient id="p" gradientUnits="userSpaceOnUse" x1="563.451" y1="490.408" x2="625.193" y2="490.408"><stop offset="0" stop-color="#0d152c"/><stop offset="1" stop-color="#000024"/></linearGradient><path fill="url(#p)" d="M563.5 470.6h61.7v39.7h-61.7z"/><linearGradient id="q" gradientUnits="userSpaceOnUse" x1="373.264" y1="510.254" x2="427.288" y2="510.254"><stop offset="0" stop-color="#0d152c"/><stop offset="1" stop-color="#000024"/></linearGradient><path fill="url(#q)" d="M373.3 457.3h54v105.8h-54z"/><linearGradient id="r" gradientUnits="userSpaceOnUse" x1="291.676" y1="274.862" x2="353.418" y2="274.862"><stop offset="0" stop-color="#e65f5c"/><stop offset="1" stop-color="#faf287"/></linearGradient><path opacity=".1" fill="url(#r)" d="M291.7 268.8h61.7v12.1h-61.7z"/><linearGradient id="s" gradientUnits="userSpaceOnUse" x1="447.133" y1="274.862" x2="508.875" y2="274.862"><stop offset="0" stop-color="#e65f5c"/><stop offset="1" stop-color="#faf287"/></linearGradient><path opacity=".1" fill="url(#s)" d="M447.1 268.8h61.7v12.1h-61.7z"/><linearGradient id="t" gradientUnits="userSpaceOnUse" x1="447.133" y1="342.117" x2="508.875" y2="342.117"><stop offset="0" stop-color="#e65f5c"/><stop offset="1" stop-color="#faf287"/></linearGradient><path opacity=".1" fill="url(#t)" d="M447.1 336.1h61.7v12.1h-61.7z"/><linearGradient id="u" gradientUnits="userSpaceOnUse" x1="447.133" y1="409.372" x2="508.875" y2="409.372"><stop offset="0" stop-color="#e65f5c"/><stop offset="1" stop-color="#faf287"/></linearGradient><path opacity=".1" fill="url(#u)" d="M447.1 403.3h61.7v12.1h-61.7z"/><linearGradient id="v" gradientUnits="userSpaceOnUse" x1="291.676" y1="342.117" x2="353.418" y2="342.117"><stop offset="0" stop-color="#e65f5c"/><stop offset="1" stop-color="#faf287"/></linearGradient><path opacity=".1" fill="url(#v)" d="M291.7 336.1h61.7v12.1h-61.7z"/><linearGradient id="w" gradientUnits="userSpaceOnUse" x1="291.676" y1="409.372" x2="353.418" y2="409.372"><stop offset="0" stop-color="#e65f5c"/><stop offset="1" stop-color="#faf287"/></linearGradient><path opacity=".1" fill="url(#w)" d="M291.7 403.3h61.7v12.1h-61.7z"/><linearGradient id="x" gradientUnits="userSpaceOnUse" x1="170.397" y1="340.739" x2="232.139" y2="340.739"><stop offset="0" stop-color="#e65f5c"/><stop offset="1" stop-color="#faf287"/></linearGradient><path opacity=".1" fill="url(#x)" d="M170.4 336.1h61.7v9.4h-61.7z"/><linearGradient id="y" gradientUnits="userSpaceOnUse" x1="170.397" y1="407.993" x2="232.139" y2="407.993"><stop offset="0" stop-color="#e65f5c"/><stop offset="1" stop-color="#faf287"/></linearGradient><path opacity=".1" fill="url(#y)" d="M170.4 403.3h61.7v9.4h-61.7z"/><linearGradient id="z" gradientUnits="userSpaceOnUse" x1="170.397" y1="475.248" x2="232.139" y2="475.248"><stop offset="0" stop-color="#e65f5c"/><stop offset="1" stop-color="#faf287"/></linearGradient><path opacity=".1" fill="url(#z)" d="M170.4 470.6h61.7v9.4h-61.7z"/><linearGradient id="A" gradientUnits="userSpaceOnUse" x1="563.451" y1="340.739" x2="625.193" y2="340.739"><stop offset="0" stop-color="#e65f5c"/><stop offset="1" stop-color="#faf287"/></linearGradient><path opacity=".1" fill="url(#A)" d="M563.5 336.1h61.7v9.4h-61.7z"/><linearGradient id="B" gradientUnits="userSpaceOnUse" x1="563.451" y1="407.993" x2="625.193" y2="407.993"><stop offset="0" stop-color="#e65f5c"/><stop offset="1" stop-color="#faf287"/></linearGradient><path opacity=".1" fill="url(#B)" d="M563.5 403.3h61.7v9.4h-61.7z"/><linearGradient id="C" gradientUnits="userSpaceOnUse" x1="563.451" y1="475.248" x2="625.193" y2="475.248"><stop offset="0" stop-color="#e65f5c"/><stop offset="1" stop-color="#faf287"/></linearGradient><path opacity=".1" fill="url(#C)" d="M563.5 470.6h61.7v9.4h-61.7z"/></svg>