<svg xmlns="http://www.w3.org/2000/svg" width="800" height="800"><linearGradient id="a" gradientUnits="userSpaceOnUse" x1="154.678" y1="580.959" x2="479.115" y2="580.959"><stop offset="0" stop-color="#e65f5c"/><stop offset="1" stop-color="#faf287"/></linearGradient><ellipse cx="316.9" cy="581" rx="162.2" ry="31.6" fill="url(#a)"/><linearGradient id="b" gradientUnits="userSpaceOnUse" x1="610.573" y1="553.757" x2="626.271" y2="553.757"><stop offset="0" stop-color="#e65f5c"/><stop offset="1" stop-color="#faf287"/></linearGradient><path d="M626.3 554.7c-1.9 4.1-6.7 6-10.8 4.1-4.1-1.9-6-6.7-4.1-10.8.7.4 1.3 1 1.8 1.6.8.9 1.3 2 2.2 2.9 1.7 1.7 4.4 2.3 6.8 2.4 1.3 0 2.7-.1 4.1-.2z" opacity=".1" fill="url(#b)"/><linearGradient id="c" gradientUnits="userSpaceOnUse" x1="605.745" y1="569.421" x2="629.89" y2="569.421"><stop offset="0" stop-color="#e65f5c"/><stop offset="1" stop-color="#faf287"/></linearGradient><path d="M605.7 566.8s6.5-.2 8.4-1.6c2-1.4 10-3.1 10.5-.8.5 2.2 9.7 11.1 2.4 11.2-7.3 0-17-1.1-19-2.3-1.8-1.3-2.3-6.5-2.3-6.5z" fill="url(#c)"/><linearGradient id="d" gradientUnits="userSpaceOnUse" x1="605.763" y1="571.173" x2="629.88" y2="571.173"><stop offset="0" stop-color="#e65f5c"/><stop offset="1" stop-color="#faf287"/></linearGradient><path d="M627.2 574.8c-7.3.1-17-1.2-19-2.3-1.5-.9-2.1-4.2-2.3-5.7h-.2s.4 5.2 2.3 6.4c1.9 1.2 11.6 2.4 19 2.3 2.1 0 2.8-.8 2.8-1.9-.2.7-1 1.2-2.6 1.2z" opacity=".2" fill="url(#d)"/><linearGradient id="e" gradientUnits="userSpaceOnUse" x1="253.889" y1="581.989" x2="280.398" y2="581.989"><stop offset="0" stop-color="#e65f5c"/><stop offset="1" stop-color="#faf287"/></linearGradient><path d="M264.3 575.8c-1.9 2.9-4.4 5.4-6.5 8.2-2.1 2.8-3.9 6-3.9 9.5-.1.4.1.9.4 1.2.2.2.5.2.8.3l8.1 1c1.2.2 2.5.3 3.7.1 1.3-.3 2.6-.7 3.8-1.4.9-.4 1.7-1 2.3-1.8.4-.6.5-1.4.9-2.1 1.1-2 4-1.9 6.2-1.6.7-6-1-12.1-2.7-17.9-.1-.4-.2-.7-.5-1-.3-.3-.7-.5-1.1-.6-2-.6-6.7-3.1-8.3-2-.9 1.2-2.2 6.6-3.2 8.1z" fill="url(#e)"/><linearGradient id="f" gradientUnits="userSpaceOnUse" x1="297.39" y1="580.056" x2="335.719" y2="580.056"><stop offset="0" stop-color="#e65f5c"/><stop offset="1" stop-color="#faf287"/></linearGradient><path d="M303.6 587.7c1.6-.7 3.2-1.7 4.9-1.3 2.4.5 3.4 3.3 5.5 4.7 1.2.8 2.8 1.1 4.3 1.3 4.6.6 9.2.9 13.8.8 1.5 0 3.3-.4 3.7-1.8.4-1.4-1-2.5-2.2-3.3-2.6-1.6-5.3-3-8.1-4.2-1.4-.5-2.7-1.2-3.9-2.1-2-1.6-3-4.2-3.9-6.6-.7-1.9-1.4-6.1-2.9-7.6-1.6-1.6-3.8-.5-5.8-.1-3.2.7-6.8 1.2-8.9 4-3 4.3-5.3 20.3 3.5 16.2z" fill="url(#f)"/><linearGradient id="g" gradientUnits="userSpaceOnUse" x1="150" y1="559.185" x2="480.267" y2="559.185"><stop offset="0" stop-color="#e65f5c"/><stop offset="1" stop-color="#faf287"/></linearGradient><path d="M187 573.3s-30.1-8.1-35.8-7.5c-5.7.6 8.6-27.7 18.1-24.3 9.5 3.5 22.2 12.5 29.4-.3s11.3-19.7 20.1-19.1 21-5.5 29.9 0 15 12.3 27.2 12c12.2-.3 23.7-27.9 33.2-16.9 9.5 11.1 20.9 21.2 29.8 17.5s19.1 1.9 27.2 8.1 22.4 3.5 27.8-1.4 9.5-8.3 21-7.6c11.5.7 48.2 9 61.8 19.3s-17.7 23.5-32.6 23.5-17.7 4.1-30.6 10.4c-12.9 6.2-34-3.5-48.9 6.9-14.9 10.4-34-5.5-59.7 0-25.8 5.5-20.4 13.1-35.3 7.6s-9.5-7.6-31.2-9-45.5 3.5-47.5-5.5-15.6-11.1-23.8-13.8c-7.9-2.6 19.9.1 19.9.1z" fill="url(#g)"/><linearGradient id="h" gradientUnits="userSpaceOnUse" x1="393.248" y1="570.153" x2="615.749" y2="570.153"><stop offset="0" stop-color="#e65f5c"/><stop offset="1" stop-color="#faf287"/></linearGradient><path d="M418.2 579.5s-20.3-5.4-24.1-5c-3.8.4 5.8-18.4 12.2-16.1 6.4 2.3 14.9 8.3 19.8-.2s7.6-13.1 13.6-12.6 14.2-3.7 20.1 0 10.1 8.2 18.3 8c8.2-.2 16-18.5 22.4-11.2 6.4 7.3 14.1 14 20.1 11.6 6-2.4 12.9 1.2 18.4 5.3 5.5 4.1 15.1 2.3 18.7-.9 3.6-3.2 6.4-5.5 14.2-5s32.5 5.9 41.6 12.8c9.1 6.9-11.9 15.5-22 15.5s-11.9 2.7-20.6 6.9c-8.7 4.1-22.9-2.3-32.9 4.6-10.1 6.9-22.9-3.7-40.3 0s-13.7 8.7-23.8 5c-10.1-3.7-6.4-5-21-5.9s-30.6 2.3-32-3.7c-1.4-5.9-10.5-7.3-16-9.1s13.3 0 13.3 0z" fill="url(#h)"/><linearGradient id="i" gradientUnits="userSpaceOnUse" x1="437.18" y1="544.724" x2="445.563" y2="544.724"><stop offset="0" stop-color="#e65f5c"/><stop offset="1" stop-color="#faf287"/></linearGradient><path d="M437.3 543.5c.6-2.1 3-3.2 5.2-2.5 2.2.7 3.5 2.9 2.9 5-.6 2.1-3 3.2-5.2 2.5-2.2-.7-3.5-3-2.9-5z" fill="url(#i)"/><linearGradient id="j" gradientUnits="userSpaceOnUse" x1="610.646" y1="534.99" x2="633.575" y2="534.99"><stop offset="0" stop-color="#e65f5c"/><stop offset="1" stop-color="#faf287"/></linearGradient><path d="M618.1 570.5c1.8-3.2-.2-7.2-2.5-10.1-2.3-2.9-5-5.9-5-9.5.1-5.3 5.7-8.4 10.1-11.2 3.3-2.1 6.4-4.5 9.1-7.3 1.1-1.1 2.1-2.3 2.8-3.7.9-2.1.9-4.4.8-6.7-.2-7.5-.6-15-1.1-22.5" fill="url(#j)"/><linearGradient id="k" gradientUnits="userSpaceOnUse" x1="624.546" y1="499.413" x2="640.944" y2="499.413"><stop offset="0" stop-color="#e65f5c"/><stop offset="1" stop-color="#faf287"/></linearGradient><path d="M640.9 499.1c-.1-2.8-1.7-5.3-4.1-6.7L635 496l.1-4.4c-.9-.3-1.8-.4-2.7-.3-4.5.2-8 4.1-7.8 8.6.2 4.5 4.1 8 8.6 7.8 4.5-.3 7.9-4.1 7.7-8.6z" fill="url(#k)"/><linearGradient id="l" gradientUnits="userSpaceOnUse" x1="610.785" y1="550.922" x2="627.185" y2="550.922"><stop offset="0" stop-color="#e65f5c"/><stop offset="1" stop-color="#faf287"/></linearGradient><path d="M626.3 554.7c-2.1 4-7 5.6-11 3.5s-5.6-7-3.5-11 7-5.6 11-3.5c1.8.9 3.2 2.5 3.9 4.4l-5.1 4.2 5.7-1.3c-.1 1.3-.4 2.5-1 3.7z" fill="url(#l)"/><linearGradient id="m" gradientUnits="userSpaceOnUse" x1="613.444" y1="530.517" x2="630.048" y2="530.517"><stop offset="0" stop-color="#e65f5c"/><stop offset="1" stop-color="#faf287"/></linearGradient><path d="M622.2 538.7c-4.5.3-8.4-3.1-8.7-7.6-.3-4 2.3-7.5 6.1-8.5v3.4l1.9-3.7c4.5-.2 8.4 3.2 8.6 7.8v.1c0 .9-.1 1.9-.4 2.8-1 3.2-4 5.6-7.5 5.7z" fill="url(#m)"/><linearGradient id="n" gradientUnits="userSpaceOnUse" x1="633.665" y1="517.254" x2="650" y2="517.254"><stop offset="0" stop-color="#e65f5c"/><stop offset="1" stop-color="#faf287"/></linearGradient><path d="M642.2 525.4c-4.5.2-8.3-3.4-8.5-7.9-.2-4.5 3.4-8.3 7.9-8.5 1.5-.1 2.9.3 4.2 1l-1.5 4 3-2.9c1.6 1.5 2.6 3.5 2.7 5.7 0 .8 0 1.5-.2 2.3-.8 3.6-4 6.2-7.6 6.3z" fill="url(#n)"/><linearGradient id="o" gradientUnits="userSpaceOnUse" x1="624.583" y1="501.584" x2="640.754" y2="501.584"><stop offset="0" stop-color="#e65f5c"/><stop offset="1" stop-color="#faf287"/></linearGradient><path d="M639.8 501.2c-1.9.2-3.7.8-5.6.9-1.9.1-4-.3-5.2-1.8-.7-.8-1-1.8-1.5-2.7-.5-.8-1.2-1.5-2.1-2-2 4.1-.2 9 3.9 10.9 4.1 2 9 .2 10.9-3.9.2-.5.4-1.1.6-1.6-.4.2-.7.2-1 .2z" opacity=".1" fill="url(#o)"/><linearGradient id="p" gradientUnits="userSpaceOnUse" x1="633.569" y1="519.595" x2="649.779" y2="519.595"><stop offset="0" stop-color="#e65f5c"/><stop offset="1" stop-color="#faf287"/></linearGradient><path d="M642.2 525.4c-4.5.2-8.4-3.3-8.6-7.9-.1-1.3.2-2.7.8-3.9.7.4 1.2 1 1.7 1.6.6.9.9 1.9 1.6 2.7 1.3 1.5 3.5 2 5.4 1.9s3.9-.7 5.9-.8h.8c-.9 3.7-4 6.3-7.6 6.4z" opacity=".1" fill="url(#p)"/><linearGradient id="q" gradientUnits="userSpaceOnUse" x1="613.612" y1="532.942" x2="629.692" y2="532.942"><stop offset="0" stop-color="#e65f5c"/><stop offset="1" stop-color="#faf287"/></linearGradient><path d="M622.2 538.7c-4.5.2-8.4-3.3-8.6-7.8-.1-1.3.2-2.6.7-3.8.7.4 1.3 1 1.8 1.7.6.9 1 1.9 1.8 2.8 1.4 1.5 3.7 2.1 5.8 2s4-.5 6-.7c-1 3.4-4 5.7-7.5 5.8z" opacity=".1" fill="url(#q)"/><linearGradient id="r" gradientUnits="userSpaceOnUse" x1="259.029" y1="283.142" x2="302.705" y2="283.142"><stop offset="0" stop-color="#e65f5c"/><stop offset="1" stop-color="#faf287"/></linearGradient><path d="M270.2 292.4c0-.4 0-.9.2-1.3.5-.8 1.7-.6 2.7-.4 3.8.9 7.7.1 11.6.3 3.9.2 8.3 2.2 9 6 2.8-2 5.2-4.5 7.2-7.4 1.1-1.6 2-3.5 1.9-5.4-.2-2.8-2.5-4.9-4.7-6.6l-6.4-5.3c-.8-.8-1.8-1.4-2.9-1.8-1.5-.5-3.1-.3-4.7-.3-4.7 0-9.7-2.1-13.9 0-1.8.9-3.1 2.4-4.3 3.9L260 281c-.4.4-.8 1-.9 1.6-.2.8.3 1.7.4 2.5.3 1.5-.4 3.1.1 4.6.8 2.4 3.8 2.8 5.6 4.2.7.5 1.7 2.3 2.5 2.3 1.4-.1 2.4-2.7 2.5-3.8z" fill="url(#r)"/><linearGradient id="s" gradientUnits="userSpaceOnUse" x1="263.71" y1="312.43" x2="304.667" y2="312.43"><stop offset="0" stop-color="#e65f5c"/><stop offset="1" stop-color="#faf287"/></linearGradient><path d="M271.1 308.6c-.1 1.9-1.2 3.6-2.2 5.2-1.4 2.1-2.9 4.3-5.2 5.4 11.3 6 24.5 7.4 36.8 3.9 2-.6 4.3-1.8 4.2-3.9-2.3-.6-4.8-1.3-6.8-2.7-2.4-1.7-3.9-4.3-5-7-1-2.7-1.5-5.6-2.2-8.5 0-.3-.2-.6-.4-.8-.3-.2-.7-.3-1.1-.3l-7.8-.1c-3.2 0-6.7-.1-9.7 1.3-3.6 1.7-.5 4.4-.6 7.5z" fill="url(#s)"/><linearGradient id="t" gradientUnits="userSpaceOnUse" x1="263.71" y1="312.43" x2="304.667" y2="312.43"><stop offset="0" stop-color="#e65f5c"/><stop offset="1" stop-color="#faf287"/></linearGradient><path d="M271.1 308.6c-.1 1.9-1.2 3.6-2.2 5.2-1.4 2.1-2.9 4.3-5.2 5.4 11.3 6 24.5 7.4 36.8 3.9 2-.6 4.3-1.8 4.2-3.9-2.3-.6-4.8-1.3-6.8-2.7-2.4-1.7-3.9-4.3-5-7-1-2.7-1.5-5.6-2.2-8.5 0-.3-.2-.6-.4-.8-.3-.2-.7-.3-1.1-.3l-7.8-.1c-3.2 0-6.7-.1-9.7 1.3-3.6 1.7-.5 4.4-.6 7.5z" opacity=".1" fill="url(#t)"/><linearGradient id="u" gradientUnits="userSpaceOnUse" x1="252.632" y1="487.547" x2="323.479" y2="487.547"><stop offset="0" stop-color="#e65f5c"/><stop offset="1" stop-color="#faf287"/></linearGradient><path d="M257 400.9c-2.7 6.6-4.2 13.7-4.4 20.8-.1 5.3.4 10.7 1 16 .9 8.6 1.9 17.2 2.8 25.8.3 3.6.9 7.1 1.7 10.6 1 3.9 2.7 7.6 3.8 11.4 3.6 11.9 2.6 24.8.2 37.1-.3 1.3-.5 2.7-.5 4.1.1 2.1.9 4 1.4 6 3.2 12.2-4.1 25.8.6 37.5.1.4.4.8.7 1 .5.2 1 .2 1.5-.1 1.3-.5 2.6-1.1 3.9-1.8 2.5 3.1 5.8 5.5 9.6 6.9 2.8-.7 3.3-4.1 4.2-6.8.7-1.9 1.3-3.9 1.7-5.9.4-2.5.6-4.9.6-7.4l2.4-84.5-.2 25.8c-.1 2.1 0 4.2.4 6.2.4 1.7 1 3.4 1.4 5.1.5 2.5.5 5 .4 7.5-.1 14.9 1.2 29.8 4.1 44.4.9 4.8 2.1 9.6 4.5 13.9.2.4.5.7.9.9.5.1 1-.3 1.4-.7 4.7-4.2 11.6-4.9 17.1-1.9-.5-2.5 1.9-5.4.2-7.3-.5-.5-1.2-.8-1.8-1.3-1.1-.9-1.3-2.5-1.5-3.9-.7-6.3-.7-12.6 0-18.9.8-7.9 2.7-15.8 1.3-23.5-1-5.6-3.7-11.1-3.1-16.8.4-3.8 2.1-7.3 3.3-10.9 5.3-15.8 0-33.5 3.8-49.8.9-3.7 2.2-7.8.6-11.3l2.4-.7-5.1-11.6c-1.1-2.5-2.2-5-4.1-6.9-3.2-3.2-7.9-4-12.4-4.7l-36.2-5.6c-3-.5-7.4-1.7-8.6 1.3z" fill="url(#u)"/><linearGradient id="v" gradientUnits="userSpaceOnUse" x1="264.308" y1="293.082" x2="295.264" y2="293.082"><stop offset="0" stop-color="#e65f5c"/><stop offset="1" stop-color="#faf287"/></linearGradient><circle cx="279.8" cy="293.1" r="15.5" fill="url(#v)"/><linearGradient id="w" gradientUnits="userSpaceOnUse" x1="256.099" y1="349.559" x2="309.269" y2="349.559"><stop offset="0" stop-color="#e65f5c"/><stop offset="1" stop-color="#faf287"/></linearGradient><path d="M271.3 311.5c-.8-.4-1.6-.6-2.5-.4-.4.1-.8.4-1.2.6l-7.3 5.1c-1 .7-2 1.5-2.8 2.4-1.3 1.7-1.5 4-1.3 6.1.4 4.8 2.3 9.2 3.3 13.9 1 4.6 1 10-2 13.7-.5.5-.9 1.1-1.3 1.8-.2.6-.3 1.2-.2 1.8-.1 2.2-.1 4.5.1 6.7.3 2.9 1.2 5.6 1.6 8.5.8 4.8.6 9.8 1.2 14.6-.1 1.3.8 2.4 2.1 2.5h.2c3.6.5 7.3.8 10.9.7 4.2 0 8.5-.2 12.7-.5l19.2-1c1 .1 2-.6 2.1-1.6v-.3c1.7-8.1 3.4-16.3 2.6-24.6-.5-5.3-2.1-10.5-3.5-15.6-1.2-4.2-2.3-8.5-1.4-12.8.6-2.8 2-5.4 2.4-8.2.4-3-.5-6-2.6-8.1-2.2-2.1-5.3-2.9-7.4-4.9-.6-.7-1.2-1.3-1.9-1.9-.7-.6-1.7-.7-2.5-.3-.4.3-.7.6-1 1.1-1.9 2.8-4.7 7.5-8.6 6.8-4.1-.7-7.1-4.3-10.9-6.1z" fill="url(#w)"/><linearGradient id="x" gradientUnits="userSpaceOnUse" x1="308.073" y1="418.795" x2="325.924" y2="418.795"><stop offset="0" stop-color="#e65f5c"/><stop offset="1" stop-color="#faf287"/></linearGradient><path d="M310 416.2c-1.4 1-2.4 2.8-1.8 4.4 1.9.3 3.8.1 5.5-.8 1.1-.5 2.5-1.3 3.4-.5.3.3.5.7.7 1.1 1 2.2 2.3 4.2 3.7 6.2 1-.5 2.1-1 2.8-2 .4-.7.6-1.4.7-2.1.4-1.9.6-3.8.8-5.7.1-1.4.1-2.9-.8-4-4-4.4-11.6.8-15 3.4z" fill="url(#x)"/><linearGradient id="y" gradientUnits="userSpaceOnUse" x1="258.063" y1="277.341" x2="301.744" y2="277.341"><stop offset="0" stop-color="#e65f5c"/><stop offset="1" stop-color="#faf287"/></linearGradient><path d="M269.2 286.5c0-.4 0-.9.2-1.2.5-.8 1.7-.6 2.7-.4 3.8 1 7.7.1 11.6.3s8.3 2.2 9 6c2.8-2 5.2-4.5 7.2-7.4 1.1-1.6 2-3.5 1.9-5.4-.2-2.8-2.5-4.9-4.7-6.6l-6.4-5.3c-.8-.8-1.8-1.4-2.9-1.8-1.5-.5-3.1-.3-4.7-.3-4.7 0-9.7-2.1-13.9 0-1.8.9-3.1 2.4-4.3 3.9l-5.8 6.8c-.4.4-.8 1-.9 1.6-.2.8.3 1.7.4 2.5.3 1.5-.4 3.2.1 4.6.8 2.4 3.8 2.8 5.6 4.2.7.5 1.7 2.3 2.5 2.3 1.4-.1 2.4-2.6 2.4-3.8z" fill="url(#y)"/><linearGradient id="z" gradientUnits="userSpaceOnUse" x1="307.232" y1="367.486" x2="331.836" y2="367.486"><stop offset="0" stop-color="#e65f5c"/><stop offset="1" stop-color="#faf287"/></linearGradient><path d="M307.4 317.9c3.3-.8 6.7-.1 9.5 1.8 4.4 3 6.2 8.6 7.8 13.7l3.4 11.5c1.5 5.1 3 10.2 3.4 15.4.3 4.8-.3 9.6-1 14.3-.9 6.6 1.2 13.8 1.3 20.4 0 7.6 0 15.7-3.9 22.3-.3-1.2-1.2-2.1-2.3-2.5-1.1-.4-2.3-.6-3.5-.6l-10.3-.7c.9-1.5 1.6-3 2.3-4.6 4-10.2 2.4-21.5.9-32.3-.1-1-.3-2-.6-3-1-3.8-1.3-7.9-.7-11.8.2-1.8.3-3.6.2-5.4 0-.8-.2-1.5-.5-2.2-.3-.6-.7-1.1-1.1-1.6l-2.1-2.3c-.2-7.1-1.3-14.2-2.4-21.2-.6-3.7-.7-7.4-.4-11.2z" fill="url(#z)"/><linearGradient id="A" gradientUnits="userSpaceOnUse" x1="253.434" y1="365.45" x2="315.27" y2="365.45"><stop offset="0" stop-color="#e65f5c"/><stop offset="1" stop-color="#faf287"/></linearGradient><path d="M287.2 349.2c-10-7.8-16.7-19.1-18.6-31.6-.3-2.2-1.2-5.1-3.5-5-.7.1-1.3.3-1.9.7l-8.1 4.4c-.6.2-1.1.6-1.4 1.2-.5 1 .2 2.2.9 3.2 4.4 6.6 4.7 15 4.9 23 .1 2.3.1 4.8-1.1 6.9-.9 1.7-2.5 2.9-3.4 4.6-.8 1.6-.8 3.4-.8 5.2-.2 12.7-.3 25.5.3 38.2.1 1.9.3 3.9 1.3 5.6 1 1.5 2.5 2.5 4.1 3.4l12.3 7.4c2.3 1.4 4.8 2.9 7.5 3.3s5.8-.3 7.4-2.6c.8-1.1 1.1-2.4 1.8-3.6s2.1-2 3.3-1.5c.9.4 1.4 1.3 1.8 2.1.8 1.6 1.6 3.3 2.9 4.6 1.3 1.3 3.1 2.1 4.9 1.8 1.5-.3 2.7-1.5 3.8-2.6 3.4-3.4 6.8-6.8 9.3-10.9.4-.5.5-1.1.5-1.7-.2-.6-.5-1.1-.9-1.5-1.6-1.9-2.2-4.4-2.6-6.8-4.6-24.4 1.9-49.7-1.7-74.2-.4-2.8-1.3-5.4-3.4-7.3-2.1-1.9-4.7-3.1-7.3-4.3-.8-.4-1.8-.8-2.7-.4-1.4.6-1.4 2.6-1.3 4.1.1 3.2 0 6.3-.5 9.4l-1.3 11.6c-.1 1.8-.5 3.5-1 5.2-1.2 3-3.1 5.8-5.5 8.1z" fill="url(#A)"/><linearGradient id="B" gradientUnits="userSpaceOnUse" x1="174.484" y1="222.623" x2="245.751" y2="222.623"><stop offset="0" stop-color="#e65f5c"/><stop offset="1" stop-color="#faf287"/></linearGradient><path d="M215.4 257.1s-4.5 3.6-9.7-5.9c-5.3-9.5-30.8-32.4-30.8-32.4s-3.3-3 9.2-8 29.6-23.4 29.6-23.4 28.5 25.4 31.3 37.9c2.8 12.6-3.3 14.7-13.8 21.4s-15.8 10.4-15.8 10.4z" fill="url(#B)"/><linearGradient id="C" gradientUnits="userSpaceOnUse" x1="225.153" y1="313.432" x2="302.422" y2="313.432"><stop offset="0" stop-color="#e65f5c"/><stop offset="1" stop-color="#faf287"/></linearGradient><path d="M297.2 378.7l-72-129.8 6.1-2.1L302.1 376c.7 1.4.2 3.1-1.1 3.8-1.4.7-3.1.2-3.8-1.1z" fill="url(#C)"/><linearGradient id="D" gradientUnits="userSpaceOnUse" x1="262.765" y1="339.094" x2="280.876" y2="339.094"><stop offset="0" stop-color="#e65f5c"/><stop offset="1" stop-color="#faf287"/></linearGradient><path d="M267.6 345.5c1.9-4 0-8.7-1.3-13-1-3.4-1.6-6.9-1.8-10.4-.1-1.1 0-2.2.4-3.3.4-1.1 1.4-1.8 2.5-1.9 1.7 2.5 2.4 5.6 1.9 8.6 1.1-.3 2.2-.5 3.3-.7 3-.4 5.8 1.4 6.7 4.3 1.9 5.9 2.5 12.3-.1 17.9-.8 1.6-1.8 3.2-2.9 4.7l-5.6 8.2c-.4.6-.9 1.2-1.5 1.3-.7.1-1.4-.5-1.9-1.1-1.7-1.9-4.8-4.8-4.4-7.4.2-2.7 3.6-4.8 4.7-7.2z" fill="url(#D)"/><linearGradient id="E" gradientUnits="userSpaceOnUse" x1="234.871" y1="355.696" x2="273.994" y2="355.696"><stop offset="0" stop-color="#e65f5c"/><stop offset="1" stop-color="#faf287"/></linearGradient><path d="M254.6 320.7c-5.7-.7-12.3.9-15.3 5.9-1.5 2.5-1.9 5.5-2.1 8.4-.4 4.1-.6 8.2-.8 12.2l-1.1 21.5c-.1 2.6-.3 5.1-.3 7.7-.1 2 .1 4 .6 5.9.7 2.1 2.1 3.8 3.5 5.5 1.4 1.7 3.2 3.5 5.2 3 .8-.3 1.6-.7 2.2-1.4l4.7-4.1c3.2-2.7 6.4-5.5 8.8-8.9 1.2-1.7 2.1-3.4 3.3-5.1 3.5-4.8 8.8-8.5 10.7-14.1-1.8-.1-4.3-.7-5.1-2.2-.4-.8-.5-1.8-1-2.6-.7-1.2-2.3-1.9-2.6-3.2-4.6 3.7-8.5 8-12.1 12.6l1.5-5.8c.1-.5.3-1.1.7-1.5.5-.5 1.1-.8 1.8-1.1 1.8-1.1 2.5-3.4 2.9-5.5 1.5-9.5-.4-19.2-5.5-27.2z" fill="url(#E)"/></svg>