<svg xmlns="http://www.w3.org/2000/svg" width="800" height="800"><linearGradient id="a" gradientUnits="userSpaceOnUse" x1="460.831" y1="586.36" x2="499.406" y2="586.36"><stop offset="0" stop-color="#e55f5c"/><stop offset="1" stop-color="#f9f186"/></linearGradient><ellipse cx="480.1" cy="586.4" rx="19.3" ry="6.7" fill="url(#a)"/><linearGradient id="b" gradientUnits="userSpaceOnUse" x1="539.466" y1="586.36" x2="578.042" y2="586.36"><stop offset="0" stop-color="#e55f5c"/><stop offset="1" stop-color="#f9f186"/></linearGradient><ellipse cx="558.8" cy="586.4" rx="19.3" ry="6.7" fill="url(#b)"/><linearGradient id="c" gradientUnits="userSpaceOnUse" x1="150" y1="345.262" x2="650" y2="345.262"><stop offset="0" stop-color="#e55f5c"/><stop offset="1" stop-color="#f9f186"/></linearGradient><path fill="url(#c)" d="M150 207h500v276.6H150z"/><linearGradient id="d" gradientUnits="userSpaceOnUse" x1="150" y1="345.262" x2="650" y2="345.262"><stop offset="0" stop-color="#e55f5c"/><stop offset="1" stop-color="#f9f186"/></linearGradient><path d="M650 207.3s-207.7 21.5-245.5 104.6S150 483.2 150 483.2h500V207.3z" opacity=".1" fill="url(#d)"/><linearGradient id="e" gradientUnits="userSpaceOnUse" x1="477.711" y1="462.843" x2="558.936" y2="462.843"><stop offset="0" stop-color="#e55f5c"/><stop offset="1" stop-color="#f9f186"/></linearGradient><path d="M556.7 339.3v20.5h-76.8v-19.3h-2.2v245.8h2.2v-44h76.8v44h2.2v-247h-2.2zm0 22.8v33.8h-76.8v-33.8h76.8zM479.9 468v-33.8h76.8V468h-76.8zm76.8 2.2V504h-76.8v-33.8h76.8zM479.9 432v-33.8h76.8V432h-76.8zm0 108.1v-33.8h76.8v33.8h-76.8z" fill="url(#e)"/><linearGradient id="f" gradientUnits="userSpaceOnUse" x1="451.775" y1="357.256" x2="461.876" y2="357.256"><stop offset="0" stop-color="#0d152b"/><stop offset="1" stop-color="#000024"/></linearGradient><path d="M455.7 344.2v3.1s-2.2.9-2.2 4.4c0 3.5-1.8 16.7-1.8 16.7s3.1 2.6 5.7 1.8c1.5-.4 2.8-1.2 4-2.2l.4-13.6-1.8-3.5v-6.1l-4.3-.6z" fill="url(#f)"/><linearGradient id="g" gradientUnits="userSpaceOnUse" x1="525.998" y1="233.625" x2="561.133" y2="233.625"><stop offset="0" stop-color="#0d152b"/><stop offset="1" stop-color="#000024"/></linearGradient><path d="M539.7 222.1s-7.6.9-7.6 4.4-6.1 16.7-6.1 16.7 10.7 2.6 19.9 1.8c9.2-.9 13.7-2.2 13.7-2.2l1.5-13.6-6.1-3.5-15.3-3.6z" fill="url(#g)"/><linearGradient id="h" gradientUnits="userSpaceOnUse" x1="535.817" y1="240.343" x2="547.079" y2="240.343"><stop offset="0" stop-color="#e55f5c"/><stop offset="1" stop-color="#f9f186"/></linearGradient><path d="M540.5 252.9v-8.3s-9.2-18.4-1.8-18.4c7.5 0 8.3 16.7 8.3 16.7v11.9l-6.5-1.9z" fill="url(#h)"/><linearGradient id="i" gradientUnits="userSpaceOnUse" x1="453.952" y1="344.086" x2="462.755" y2="344.086"><stop offset="0" stop-color="#e55f5c"/><stop offset="1" stop-color="#f9f186"/></linearGradient><path d="M461.4 340.3s-4.8-2.6-5.7 0-3.5 8.3 0 8.8c3.5.4 7-2.6 7-2.6l-1.3-6.2z" fill="url(#i)"/><linearGradient id="j" gradientUnits="userSpaceOnUse" x1="484.326" y1="408.228" x2="543.373" y2="408.228"><stop offset="0" stop-color="#0d152b"/><stop offset="1" stop-color="#000024"/></linearGradient><path d="M485.2 358s-2.6 3.5 1.2 37.6 1.6 58.9 8.9 58.5c0 0-1.9 7.4 4.3 7.7 6.2.3 9 .7 9.5-1s1.2-9.6-.4-9.5c0 0 .1 2.2.8-6.8.7-9-1.3-51.6 1.3-57.3l9.9 20.3s.4 9.5 2.3 13.9 5.9 30 5.9 30l-.4 3.9s13.6 1.6 14-.7.3-5.6-.3-6.7c-.6-1.1-.6-1.1.4-3.4.9-1.7 1-3.8.3-5.6-.6-1.7-2.3-38.1-2.3-38.1s-3.2-44.2-10-46.1c-6.9-1.8-45.4 3.3-45.4 3.3z" fill="url(#j)"/><linearGradient id="k" gradientUnits="userSpaceOnUse" x1="487.356" y1="463.588" x2="511.459" y2="463.588"><stop offset="0" stop-color="#0d152b"/><stop offset="1" stop-color="#000024"/></linearGradient><path d="M497.2 457.4l-4.1 8.1s-7.1-2.2-5.4 4.2c6.8.2 13.7-.2 20.4-1.2 0 0 2.9 1 3.3-.7s-1.8-7.5-3.4-7.4c-1.7 0-10.8-3-10.8-3z" fill="url(#k)"/><linearGradient id="l" gradientUnits="userSpaceOnUse" x1="526.82" y1="459.266" x2="552.542" y2="459.266"><stop offset="0" stop-color="#0d152b"/><stop offset="1" stop-color="#000024"/></linearGradient><path d="M529.5 453.7s-4 10.3-2.3 10.8c1.7.5 16.9 2 18.1 2.5 1.1.5 6.8.8 7.2-2.6.4-3.4-3-4.4-3-4.4s-6.2-.8-8.2-6.4c-1.9-5.4-11.8.1-11.8.1z" fill="url(#l)"/><linearGradient id="m" gradientUnits="userSpaceOnUse" x1="479.779" y1="262.788" x2="503.243" y2="262.788"><stop offset="0" stop-color="#e55f5c"/><stop offset="1" stop-color="#f9f186"/></linearGradient><circle cx="491.5" cy="262.8" r="11.7" fill="url(#m)"/><linearGradient id="n" gradientUnits="userSpaceOnUse" x1="485.336" y1="276.908" x2="504.478" y2="276.908"><stop offset="0" stop-color="#e55f5c"/><stop offset="1" stop-color="#f9f186"/></linearGradient><path d="M485.3 268.3s3.1 16.1 1.9 19.1c-1.2 3.1 17.3-1.2 17.3-1.2s-3.7-16.1-3.1-19.8c.6-3.6-16.1 1.9-16.1 1.9z" fill="url(#n)"/><linearGradient id="o" gradientUnits="userSpaceOnUse" x1="477.788" y1="262.347" x2="503.319" y2="262.347"><stop offset="0" stop-color="#0d152b"/><stop offset="1" stop-color="#000024"/></linearGradient><path d="M491.2 248.3c-1-.2-2-.1-2.9.1-.8.3-1.5.8-2.1 1.4-1.1.9-2.3 1.7-3.6 2.4-1 .5-2 1.1-2.8 1.9-.3.5-.6 1-.8 1.5-1.2 3.1-1.5 6.4-.9 9.7.1.5.2.9.4 1.3.6 1.2 2.1 1.6 3.3 2.3 2.3 1.2 4 3.2 5.8 4.9.7.7 1.5 1.3 2.3 1.8 2.7 1.4 5.9 1 8.9.5.9 0 1.6-.7 1.6-1.6l2.4-10.6c.4-1.6.6-3.2.6-4.8-.2-2.6-1.6-6.1-3.4-7.9-2.3-2.3-6-2.6-8.8-2.9z" fill="url(#o)"/><linearGradient id="p" gradientUnits="userSpaceOnUse" x1="469.782" y1="327.088" x2="533.45" y2="327.088"><stop offset="0" stop-color="#0d152b"/><stop offset="1" stop-color="#000024"/></linearGradient><path d="M482.5 288.4s.9-6.1 6.1-6.6c3-.3 5.9-.9 8.8-1.8.4 0 6.1.4 8.8 3.1 0 0 1.8 2.6 2.6.9s.9-2.6 2.6-1.8c1.8.9 1.8-2.6 4.8-2.2 3.1.4 11 20.2 11 20.2l-2.6 3.1s-3.5 23.7 2.6 33.8c6.1 10.1 8.8 21.1 2.6 23.3-6.1 2.2-49.2 22-47.4 9.7 1.8-12.3.4-31.6-1.3-32.1s-11.4-35.1-11.4-35.1c.8-4.5 3.8-8.3 7.9-10.1 7.1-3 4.9-4.4 4.9-4.4z" fill="url(#p)"/><linearGradient id="q" gradientUnits="userSpaceOnUse" x1="514.14" y1="275.481" x2="548.396" y2="275.481"><stop offset="0" stop-color="#0d152b"/><stop offset="1" stop-color="#000024"/></linearGradient><path d="M514.1 281.8l2.2-1.8s4 0 4.4-.9 2.6-.9 4.4-1.8c1.8-.9-.4-2.2 1.8-3.1s2.2 0 2.2-2.2 5.7-4.4 6.1-7 4.8-14.9 4.8-14.9l8.3 2.6-2.2 15.8s0 7.9-4 13.2-12.7 18.4-17.1 18.9c-4.3.6-10.9-18.8-10.9-18.8z" fill="url(#q)"/><linearGradient id="r" gradientUnits="userSpaceOnUse" x1="460.559" y1="324.886" x2="482.22" y2="324.886"><stop offset="0" stop-color="#0d152b"/><stop offset="1" stop-color="#000024"/></linearGradient><path d="M472.4 300.7l-2.6 2.2s-.9 9.7-.9 10.1c0 .4.9 5.7 0 6.1-.9.4-2.6 9.2-2.2 9.7v1.3l-6.1 9.7v9.2l14.5-9.2s8.3-.9 7-8.3c-1.3-7.5-9.7-30.8-9.7-30.8z" fill="url(#r)"/></svg>