<svg version="1.1" id="Layer_1" xmlns="http://www.w3.org/2000/svg" x="0" y="0" width="800" height="800" xml:space="preserve"><style>.st7{fill:none}</style><linearGradient id="XMLID_5_" gradientUnits="userSpaceOnUse" x1="81.913" y1="409.795" x2="672.807" y2="409.795"><stop offset="0" stop-color="#e65f5c"/><stop offset="1" stop-color="#faf287"/></linearGradient><path id="XMLID_208_" d="M84.7 531.9c-2.1-9.7-3.1-19.8-2.7-30.2.7-21.1 5.4-41.8 10.5-62.2C103.8 393.7 117 348 138 305.7c24.5-49.4 60.4-95.3 110.2-121 87.3-45.1 188.8-10.3 268.5 34.5 3.6 2 7.2 4.1 10.8 6.2 80 46.9 190.8 134.9 125.6 237-35 54.8-91.4 91.2-149.2 118.2-59.8 28-124.8 52.6-189.4 67.1-37.9 8.5-79.3 13.2-116.7.1-53-18.5-101.2-60.9-113.1-115.9z" fill="url(#XMLID_5_)"/><linearGradient id="XMLID_6_" gradientUnits="userSpaceOnUse" x1="117.738" y1="407.094" x2="624.724" y2="407.094"><stop offset="0" stop-color="#e65f5c"/><stop offset="1" stop-color="#faf287"/></linearGradient><path id="XMLID_209_" d="M120.1 511.8c-1.8-8.3-2.6-17-2.3-25.9.6-18.1 4.6-35.8 9-53.4 9.7-39.3 21.1-78.5 39-114.8 21-42.4 51.9-81.8 94.5-103.8 74.9-38.7 162-8.9 230.5 29.6 3.1 1.7 6.2 3.5 9.2 5.3 68.6 40.3 163.8 115.8 107.8 203.4-30.1 47-78.4 78.2-128.1 101.5-51.4 24-107.1 45.1-162.5 57.6-32.5 7.3-68.1 11.3-100.2.1-45.3-16.1-86.7-52.4-96.9-99.6z" fill="url(#XMLID_6_)"/><linearGradient id="XMLID_10_" gradientUnits="userSpaceOnUse" x1="147.5" y1="406.75" x2="586.5" y2="406.75"><stop offset="0" stop-color="#0d152c"/><stop offset="1" stop-color="#000024"/></linearGradient><path id="XMLID_205_" d="M586.5 445.4c0 7.3-.9 14.6-2.6 21.7-.6 2.4-1.3 4.7-2.1 7-1 2.8-2.1 5.6-3.3 8.3-.6 1.4-1.3 2.7-2 4 0 7.5-1.5 14.9-4.5 21.8-5.4 12.3-15.1 22.3-27.3 28.1-7.6 3.6-15.9 5.5-24.3 5.6H230.9c-12.9 0-25.5-3.4-36.7-9.8l-.2-.1c-1.6-.9-3.1-1.9-4.6-3-3.4-2.3-6.6-5-9.5-7.9-4-3.9-7.5-8.3-10.5-13-7-11.1-10.7-23.9-10.7-37-7.1-12.4-11.2-27.2-11.2-43.2 0-20.1 6.5-38.5 17.3-52.4 2.2-2.9 4.7-5.6 7.3-8.2 2.6-2.5 5.4-4.8 8.4-6.9 2.4-1.7 4.9-3.1 7.5-4.5 1.1-.5 2.2-1.1 3.3-1.5 1-.4 1.9-.8 2.9-1.2 1.2-.4 2.4-.9 3.6-1.2 1.2-.4 2.4-.7 3.6-1 1.7-.4 3.5-.8 5.3-1 1.5-.2 3-.4 4.5-.5 1.2-.1 2.4-.1 3.6-.2h.7c1.3 0 2.6.1 4 .1.1-.3.3-.6.4-.8.5-1 1.1-2 1.6-3 .1-.2.2-.3.3-.5.4-.8.9-1.6 1.4-2.4.2-.4.4-.7.6-1.1 0-.1.1-.2.2-.3.2-.4.5-.7.7-1.1 1.2-1.8 2.3-3.6 3.6-5.4l.3-.5c.2-.3.4-.5.6-.8.5-.7 1-1.4 1.6-2.2.4-.5.7-1 1.1-1.5 1-1.2 2-2.5 3-3.7s2.1-2.5 3.2-3.7c.1-.2.3-.3.5-.5l1.6-1.7c.1-.1.1-.2.2-.2l.6-.6c.9-.9 1.7-1.8 2.6-2.7 4.5-4.5 9.2-8.6 14.3-12.4.2-.2.4-.3.6-.5.9-.7 1.9-1.4 2.9-2.1 5.3-3.8 10.8-7.2 16.5-10.3l1.2-.6c5.1-2.7 10.4-5.2 15.8-7.3 2.9-1.2 6-2.3 9-3.3 2-.7 4-1.3 6.1-1.9 3.2-.9 6.4-1.8 9.7-2.5 9.6-2.2 19.3-3.5 29.2-4 3-.2 6-.2 9-.2 14.7 0 29.4 1.8 43.6 5.5.3.5.8.7 1.4.7h1.3c.5.1 1.1.3 1.6.5 3 .9 6 1.8 9 2.9l.7.3c7.3 2.6 14.4 5.7 21.2 9.3 6.2 3.2 12.1 6.9 17.8 11 .9.6 1.7 1.3 2.6 1.9 1-.7 2.1-1.3 3.1-1.9 4.1-2.3 8.5-4.2 13-5.5 9.5-2.8 19.5-3.2 29.2-1.1 12.4 2.6 23.6 9.1 32.7 18.4 3.7 3.8 7 8 9.8 12.4.2.3.4.6.6 1 2.4 4 4.5 8.1 6.2 12.4.1.2.1.3.2.5 1.6 4 2.9 8.2 3.8 12.4 0 .2.1.4.1.6.9 4.1 1.5 8.3 1.8 12.4v.5c.2 2.2.2 4.3.2 6.6 0 2-.1 3.9-.2 5.9v.7c0 .6-.1 1.1-.1 1.7 2.8 2.3 5.5 4.8 8 7.5 1.1 1.2 2.1 2.4 3.2 3.7 3.1 3.9 5.8 8 8.1 12.4 6.1 12.1 9.7 26.1 9.7 41.1z" fill="url(#XMLID_10_)"/><linearGradient id="XMLID_11_" gradientUnits="userSpaceOnUse" x1="228.4" y1="411" x2="349.8" y2="411"><stop offset="0" stop-color="#e65f5c"/><stop offset="1" stop-color="#faf287"/></linearGradient><circle id="XMLID_67_" cx="289.1" cy="411" r="60.7" opacity=".3" fill="url(#XMLID_11_)"/><linearGradient id="XMLID_68_" gradientUnits="userSpaceOnUse" x1="388.4" y1="399" x2="509.8" y2="399"><stop offset="0" stop-color="#e65f5c"/><stop offset="1" stop-color="#faf287"/></linearGradient><circle id="XMLID_66_" cx="449.1" cy="399" r="60.7" opacity=".3" fill="url(#XMLID_68_)"/><g id="ff8ee4b4-5abc-4927-bead-5d69132ee8f9_1_"><linearGradient id="XMLID_69_" gradientUnits="userSpaceOnUse" x1="554.4" y1="897.047" x2="554.4" y2="969.538" gradientTransform="matrix(1 0 0 -1 -52.3 1354.54)"><stop offset="0" stop-color="#e65f5c"/><stop offset="1" stop-color="#faf287"/></linearGradient><path id="XMLID_65_" d="M472.6 422.4c-2.6-2.8-4.1-6.4-4.1-10.3 0-5.4 2.9-10.3 7.5-13-1-1.5-1.6-3.2-1.6-5 0-5 4.2-9.1 9.4-9.1 4.1 0 7.8 2.6 9 6.6 2.6-4.1 7.2-6.6 12-6.6 7.8 0 14 6.1 14 13.6 0 1.6-.3 3.2-.9 4.7h.9c6.2 0 11.3 4.9 11.3 10.9 0 .4 0 .7-.1 1.1 5 2.1 8.5 6.9 8.5 12.4 0 7.5-6.3 13.5-14 13.5-.8 0-1.6-.1-2.4-.2 0 .4.1.9.1 1.4 0 8.4-7 15.2-15.7 15.2-3.2 0-6.3-.9-8.9-2.7-2.1 1.8-4.8 2.7-7.6 2.7-6.5 0-11.7-5.1-11.7-11.3v-.8c-6.9 0-12.6-5.4-12.6-12.1.1-4.8 2.7-9 6.9-11z" fill="url(#XMLID_69_)"/></g><linearGradient id="c200c6c4-addf-434c-9e0f-5ce7230e9a19_2_" gradientUnits="userSpaceOnUse" x1="467.293" y1="421.2" x2="537.063" y2="421.2"><stop offset="0" stop-color="#e65f5c"/><stop offset="1" stop-color="#faf287"/></linearGradient><path id="c200c6c4-addf-434c-9e0f-5ce7230e9a19_1_" d="M473.8 422.3c-2.5-2.7-3.9-6.2-3.9-9.8 0-5.1 2.7-9.9 7.2-12.5-1-1.4-1.5-3.1-1.5-4.8 0-4.8 4-8.7 9-8.7 4 0 7.5 2.5 8.7 6.3 2.5-3.9 6.8-6.3 11.5-6.3 7.4 0 13.4 5.8 13.4 13 0 1.5-.3 3.1-.8 4.5h.8c6 0 10.8 4.7 10.8 10.4 0 .4 0 .7-.1 1.1 4.8 2 8.1 6.6 8.1 11.9 0 7.1-6 12.9-13.4 12.9-.8 0-1.6-.1-2.3-.2 0 .4.1.9.1 1.3 0 8-6.7 14.5-15 14.5-3 0-6-.9-8.6-2.6-2 1.7-4.6 2.6-7.2 2.6-6.2 0-11.2-4.9-11.2-10.9v-.8c-6.6 0-12-5.2-12-11.6-.1-4.3 2.5-8.3 6.4-10.3z" fill="url(#c200c6c4-addf-434c-9e0f-5ce7230e9a19_2_)"/><path id="_x34_f2fbb80-d4ec-4696-8eab-975803e285fc_1_" class="st7" d="M499.3 407.1v80.8"/><linearGradient id="XMLID_70_" gradientUnits="userSpaceOnUse" x1="405.3" y1="1116.117" x2="405.3" y2="1196.817" gradientTransform="matrix(1 0 0 -1 94 1604)"><stop offset="0" stop-color="#e65f5c"/><stop offset="1" stop-color="#faf287"/></linearGradient><path id="XMLID_64_" fill="url(#XMLID_70_)" d="M497.1 407.1h4.4v80.7h-4.4z"/><linearGradient id="XMLID_71_" gradientUnits="userSpaceOnUse" x1="498.113" y1="447.45" x2="500.546" y2="447.45"><stop offset="0" stop-color="#e65f5c"/><stop offset="1" stop-color="#faf287"/></linearGradient><path id="XMLID_63_" fill="url(#XMLID_71_)" d="M498.1 407.1h2.4v80.7h-2.4z"/><path id="_x39_64f69dd-bb5e-4ecb-a4f0-6b0cfaf1e31d_1_" class="st7" d="M499.6 431.3l-14.4-14.7"/><linearGradient id="XMLID_72_" gradientUnits="userSpaceOnUse" x1="484.3" y1="424" x2="500.455" y2="424"><stop offset="0" stop-color="#e65f5c"/><stop offset="1" stop-color="#faf287"/></linearGradient><path id="XMLID_62_" fill="url(#XMLID_72_)" d="M484.3 417.5l1.7-1.7 14.4 14.7-1.7 1.7z"/><path id="_x37_2c4e71e-02d3-4be2-bc6f-3754e61bbdeb_1_" class="st7" d="M499.6 444l14.9-10.5"/><linearGradient id="XMLID_73_" gradientUnits="userSpaceOnUse" x1="498.877" y1="438.75" x2="515.22" y2="438.75"><stop offset="0" stop-color="#e65f5c"/><stop offset="1" stop-color="#faf287"/></linearGradient><path id="XMLID_61_" fill="url(#XMLID_73_)" d="M498.9 443l14.9-10.5 1.4 2-14.9 10.5z"/><g id="_x30_9ddf46a-2bb3-497c-83d6-f7ff730d3d58_1_"><linearGradient id="XMLID_74_" gradientUnits="userSpaceOnUse" x1="525.206" y1="894.84" x2="525.206" y2="968.94" gradientTransform="matrix(1 0 0 -1 -52.3 1354.54)"><stop offset="0" stop-color="#e65f5c"/><stop offset="1" stop-color="#faf287"/></linearGradient><path id="XMLID_60_" d="M501.6 423.8c5.8-6.6 5.1-16.7-1.5-22.5-.6-.5-1.2-.9-1.8-1.3 1-1.5 1.5-3.3 1.5-5.1 0-5.1-4.1-9.3-9.1-9.3-4.1 0-7.6 2.8-8.7 6.7-2.4-4.1-6.8-6.7-11.6-6.7-7.5 0-13.6 6.2-13.6 13.9 0 1.6.3 3.3.8 4.8h-.8c-6 0-10.9 5-10.9 11.1 0 .4 0 .8.1 1.1-5 2.2-8.2 7.2-8.2 12.7 0 7.6 6.1 13.8 13.5 13.8.8 0 1.6-.1 2.3-.2 0 .5-.1.9-.1 1.4 0 8.6 6.8 15.5 15.2 15.5 3.1 0 6.1-1 8.6-2.8 2 1.8 4.6 2.8 7.3 2.8 6.3 0 11.3-5.2 11.3-11.6v-.8c6.7 0 12.1-5.6 12.1-12.4.2-4.7-2.3-8.9-6.4-11.1z" fill="url(#XMLID_74_)"/></g><linearGradient id="c2060184-c570-49c2-acda-2f80a9472e25_2_" gradientUnits="userSpaceOnUse" x1="440" y1="422.6" x2="506.074" y2="422.6"><stop offset="0" stop-color="#e65f5c"/><stop offset="1" stop-color="#faf287"/></linearGradient><path id="c2060184-c570-49c2-acda-2f80a9472e25_1_" d="M499.8 423.7c5.4-6.2 4.8-15.6-1.4-21.1-.5-.5-1.1-.9-1.7-1.3.9-1.4 1.4-3.1 1.4-4.8 0-4.8-3.8-8.7-8.5-8.7-3.8 0-7.2 2.6-8.2 6.3-2.3-3.9-6.4-6.3-10.9-6.3-7 0-12.7 5.8-12.7 13 0 1.5.3 3.1.8 4.5h-.8c-5.6 0-10.2 4.7-10.2 10.4 0 .4 0 .7.1 1.1-4.7 2.1-7.7 6.8-7.7 11.9 0 7.2 5.7 13 12.7 13 .7 0 1.5-.1 2.2-.2 0 .4-.1.9-.1 1.3 0 8 6.4 14.6 14.2 14.6 2.9 0 5.7-.9 8.1-2.6 1.9 1.7 4.4 2.6 6.9 2.6 5.9 0 10.6-4.9 10.6-10.9v-.8c6.3 0 11.4-5.2 11.4-11.6.1-4.3-2.3-8.3-6.2-10.4z" fill="url(#c2060184-c570-49c2-acda-2f80a9472e25_2_)"/><linearGradient id="XMLID_75_" gradientUnits="userSpaceOnUse" x1="381.75" y1="1114.6" x2="381.75" y2="1196.9" gradientTransform="matrix(1 0 0 -1 94 1604)"><stop offset="0" stop-color="#e65f5c"/><stop offset="1" stop-color="#faf287"/></linearGradient><path id="XMLID_59_" fill="url(#XMLID_75_)" d="M474.1 407.1h3.3v82.3h-3.3z"/><linearGradient id="XMLID_76_" gradientUnits="userSpaceOnUse" x1="475.025" y1="448.85" x2="476.688" y2="448.85"><stop offset="0" stop-color="#e65f5c"/><stop offset="1" stop-color="#faf287"/></linearGradient><path id="XMLID_58_" fill="url(#XMLID_76_)" d="M475 408.3h1.7v81.1H475z"/><linearGradient id="XMLID_77_" gradientUnits="userSpaceOnUse" x1="474.868" y1="425.35" x2="489.74" y2="425.35"><stop offset="0" stop-color="#e65f5c"/><stop offset="1" stop-color="#faf287"/></linearGradient><path id="XMLID_57_" fill="url(#XMLID_77_)" d="M474.9 432.2l13.6-14.8 1.2 1.1-13.6 14.8z"/><linearGradient id="XMLID_78_" gradientUnits="userSpaceOnUse" x1="460.839" y1="440.15" x2="475.983" y2="440.15"><stop offset="0" stop-color="#e65f5c"/><stop offset="1" stop-color="#faf287"/></linearGradient><path id="XMLID_56_" fill="url(#XMLID_78_)" d="M460.8 435.6l1-1.4 14.2 10.5-1 1.4z"/><g id="db20f295-6229-40c0-b196-6bb997b23afd_1_"><linearGradient id="XMLID_79_" gradientUnits="userSpaceOnUse" x1="510.4" y1="882.768" x2="510.4" y2="932.174" gradientTransform="matrix(1 0 0 -1 -52.3 1354.54)"><stop offset="0" stop-color="#e65f5c"/><stop offset="1" stop-color="#faf287"/></linearGradient><path id="XMLID_55_" d="M437.9 447.9c-1.8-1.9-2.8-4.4-2.8-7 0-3.6 2-7 5.1-8.9-.7-1-1.1-2.2-1.1-3.4 0-3.4 2.9-6.2 6.4-6.2 2.8 0 5.3 1.8 6.2 4.5 1.8-2.8 4.9-4.5 8.2-4.5 5.3 0 9.6 4.1 9.6 9.2 0 1.1-.2 2.2-.6 3.2h.6c4.2 0 7.7 3.3 7.7 7.4v.7c3.5 1.4 5.7 4.7 5.8 8.5 0 5.1-4.3 9.2-9.5 9.2-.6 0-1.1 0-1.7-.1v.9c0 5.7-4.8 10.3-10.7 10.3-2.2 0-4.3-.6-6.1-1.8-1.5 1.2-3.3 1.8-5.2 1.8-4.4 0-8-3.5-8-7.7v-.5c-4.7 0-8.6-3.7-8.6-8.3.1-3.1 1.9-6 4.7-7.3z" fill="url(#XMLID_79_)"/></g><linearGradient id="_x33_f6c00ca-74d6-4e4e-a4d6-8f160f37aa24_2_" gradientUnits="userSpaceOnUse" x1="434.3" y1="447.1" x2="481.9" y2="447.1"><stop offset="0" stop-color="#e65f5c"/><stop offset="1" stop-color="#faf287"/></linearGradient><path id="_x33_f6c00ca-74d6-4e4e-a4d6-8f160f37aa24_1_" d="M438.8 447.8c-1.7-1.8-2.7-4.2-2.7-6.7 0-3.5 1.9-6.7 4.9-8.5-.7-1-1-2.1-1-3.3 0-3.3 2.8-5.9 6.1-5.9 2.7 0 5.1 1.7 5.9 4.3 1.7-2.7 4.7-4.3 7.8-4.3 5.1 0 9.2 4 9.2 8.9 0 1-.2 2.1-.6 3.1h.6c4.1 0 7.4 3.2 7.4 7.1v.7c3.3 1.3 5.5 4.5 5.5 8.1 0 4.9-4.1 8.8-9.1 8.8-.5 0-1.1 0-1.6-.1v.9c0 5.5-4.6 9.9-10.2 9.9-2.1 0-4.1-.6-5.8-1.8-1.4 1.1-3.1 1.8-5 1.8-4.2 0-7.7-3.3-7.7-7.4v-.5c-4.5 0-8.2-3.5-8.2-7.9 0-3.1 1.7-5.9 4.5-7.2z" fill="url(#_x33_f6c00ca-74d6-4e4e-a4d6-8f160f37aa24_2_)"/><path id="_x38_a7e076a-6ecd-440d-86c8-bd2eb9f9fc08_1_" class="st7" d="M456.1 437.5v55"/><linearGradient id="XMLID_80_" gradientUnits="userSpaceOnUse" x1="362.1" y1="1111.5" x2="362.1" y2="1166.5" gradientTransform="matrix(1 0 0 -1 94 1604)"><stop offset="0" stop-color="#e65f5c"/><stop offset="1" stop-color="#faf287"/></linearGradient><path id="XMLID_54_" fill="url(#XMLID_80_)" d="M454.6 437.5h3v55h-3z"/><linearGradient id="XMLID_81_" gradientUnits="userSpaceOnUse" x1="455.297" y1="465" x2="456.953" y2="465"><stop offset="0" stop-color="#e65f5c"/><stop offset="1" stop-color="#faf287"/></linearGradient><path id="XMLID_53_" fill="url(#XMLID_81_)" d="M455.3 437.5h1.7v55h-1.7z"/><path id="cd90862a-73c1-467f-8a8f-23aaf7962413_1_" class="st7" d="M456.3 453.9l-9.8-10"/><linearGradient id="XMLID_82_" gradientUnits="userSpaceOnUse" x1="445.877" y1="448.9" x2="456.877" y2="448.9"><stop offset="0" stop-color="#e65f5c"/><stop offset="1" stop-color="#faf287"/></linearGradient><path id="XMLID_52_" fill="url(#XMLID_82_)" d="M445.9 444.5l1.2-1.2 9.8 10.1-1.2 1.1z"/><path id="f406e355-8aa2-4ce0-9f47-8fc27dbb63cd_1_" class="st7" d="M456.3 462.6l10.2-7.2"/><linearGradient id="XMLID_83_" gradientUnits="userSpaceOnUse" x1="455.82" y1="458.95" x2="466.956" y2="458.95"><stop offset="0" stop-color="#e65f5c"/><stop offset="1" stop-color="#faf287"/></linearGradient><path id="XMLID_51_" fill="url(#XMLID_83_)" d="M455.8 461.9l10.2-7.2 1 1.4-10.2 7.1z"/><g id="af04bae7-87e5-447e-b22a-307a28405780_1_"><linearGradient id="XMLID_84_" gradientUnits="userSpaceOnUse" x1="499.25" y1="880.972" x2="499.25" y2="930.704" gradientTransform="matrix(1 0 0 -1 -52.3 1354.54)"><stop offset="0" stop-color="#e65f5c"/><stop offset="1" stop-color="#faf287"/></linearGradient><path id="XMLID_50_" d="M466.1 449.5c3.9-4.4 3.4-11.2-1-15.1l-1.2-.9c.7-1 1-2.2 1-3.4.1-3.4-2.6-6.2-5.9-6.2-2.8-.1-5.3 1.8-6 4.5-1.6-2.8-4.6-4.5-7.8-4.5-5 0-9.1 4.2-9.1 9.3 0 1.1.2 2.2.6 3.2h-.6c-4.1 0-7.4 3.4-7.3 7.5v.8c-3.4 1.5-5.5 4.8-5.5 8.5 0 5.1 4.1 9.3 9.1 9.3.5 0 1.1 0 1.6-.1v.9c0 5.7 4.6 10.4 10.2 10.4 2.1 0 4.1-.6 5.8-1.9 1.4 1.2 3.1 1.9 4.9 1.9 4.2 0 7.7-3.5 7.6-7.8v-.6c4.5 0 8.1-3.7 8.1-8.3-.1-3.2-1.8-6.1-4.5-7.5z" fill="url(#XMLID_84_)"/></g><linearGradient id="e5433075-9388-42ed-900f-702a5a1be897_2_" gradientUnits="userSpaceOnUse" x1="424.697" y1="448.648" x2="469.05" y2="448.648"><stop offset="0" stop-color="#e65f5c"/><stop offset="1" stop-color="#faf287"/></linearGradient><path id="e5433075-9388-42ed-900f-702a5a1be897_1_" d="M464.9 449.4c3.6-4.2 3.2-10.5-.9-14.1-.4-.3-.7-.6-1.1-.9.6-1 1-2.1.9-3.2.1-3.2-2.4-5.8-5.6-5.9-2.6-.1-5 1.7-5.7 4.2a8.44 8.44 0 0 0-7.3-4.2c-4.7 0-8.5 3.9-8.5 8.7 0 1 .2 2 .5 3h-.5c-3.8 0-6.9 3.2-6.9 7v.7c-3.1 1.4-5.2 4.5-5.1 8 0 4.8 3.8 8.7 8.5 8.7.5 0 1 0 1.5-.1v.9c0 5.4 4.3 9.8 9.6 9.8 2 0 3.9-.6 5.4-1.7 1.3 1.1 2.9 1.7 4.6 1.7 4 0 7.2-3.3 7.1-7.3v-.5c4.3 0 7.7-3.5 7.6-7.8.1-2.9-1.5-5.6-4.1-7z" fill="url(#e5433075-9388-42ed-900f-702a5a1be897_2_)"/><linearGradient id="XMLID_85_" gradientUnits="userSpaceOnUse" x1="354.7" y1="1110.5" x2="354.7" y2="1165.7" gradientTransform="matrix(1 0 0 -1 94 1604)"><stop offset="0" stop-color="#e65f5c"/><stop offset="1" stop-color="#faf287"/></linearGradient><path id="XMLID_49_" fill="url(#XMLID_85_)" d="M447.6 438.3h2.2v55.2h-2.2z"/><linearGradient id="XMLID_86_" gradientUnits="userSpaceOnUse" x1="448.244" y1="466.3" x2="449.361" y2="466.3"><stop offset="0" stop-color="#e65f5c"/><stop offset="1" stop-color="#faf287"/></linearGradient><path id="XMLID_48_" fill="url(#XMLID_86_)" d="M448.2 439.1h1.1v54.4h-1.1z"/><linearGradient id="XMLID_87_" gradientUnits="userSpaceOnUse" x1="448.137" y1="450.55" x2="458.119" y2="450.55"><stop offset="0" stop-color="#e65f5c"/><stop offset="1" stop-color="#faf287"/></linearGradient><path id="XMLID_47_" fill="url(#XMLID_87_)" d="M448.1 455.1l9.2-9.9.8.8-9.1 9.9z"/><linearGradient id="XMLID_88_" gradientUnits="userSpaceOnUse" x1="438.72" y1="460.45" x2="448.885" y2="460.45"><stop offset="0" stop-color="#e65f5c"/><stop offset="1" stop-color="#faf287"/></linearGradient><path id="XMLID_46_" fill="url(#XMLID_88_)" d="M438.7 457.4l.7-.9 9.5 7-.7.9z"/><linearGradient id="XMLID_89_" gradientUnits="userSpaceOnUse" x1="305.3" y1="1109.1" x2="305.3" y2="1192.8" gradientTransform="matrix(1 0 0 -1 94 1604)"><stop offset="0" stop-color="#e65f5c"/><stop offset="1" stop-color="#faf287"/></linearGradient><path id="XMLID_45_" fill="url(#XMLID_89_)" d="M352.3 411.2h94v83.7h-94z"/><linearGradient id="XMLID_90_" gradientUnits="userSpaceOnUse" x1="290.7" y1="451.7" x2="444" y2="451.7"><stop offset="0" stop-color="#e65f5c"/><stop offset="1" stop-color="#faf287"/></linearGradient><path id="XMLID_44_" fill="url(#XMLID_90_)" d="M290.7 411.2H444v81H290.7z"/><linearGradient id="XMLID_91_" gradientUnits="userSpaceOnUse" x1="428.35" y1="935.34" x2="428.35" y2="974.64" gradientTransform="matrix(1 0 0 -1 -52.3 1354.54)"><stop offset="0" stop-color="#e65f5c"/><stop offset="1" stop-color="#faf287"/></linearGradient><path id="XMLID_43_" d="M451.3 419.2H300.7v-39.3h145.2c3 0 5.5 2.5 5.5 5.5v33.8h-.1z" fill="url(#XMLID_91_)"/><linearGradient id="XMLID_92_" gradientUnits="userSpaceOnUse" x1="300.7" y1="399.8" x2="450.1" y2="399.8"><stop offset="0" stop-color="#e65f5c"/><stop offset="1" stop-color="#faf287"/></linearGradient><path id="XMLID_42_" d="M300.7 381.4h143.9c3 0 5.5 2.5 5.5 5.5v31.3H300.7v-36.8z" fill="url(#XMLID_92_)"/><linearGradient id="XMLID_93_" gradientUnits="userSpaceOnUse" x1="300.7" y1="399.8" x2="450.1" y2="399.8"><stop offset="0" stop-color="#e65f5c"/><stop offset="1" stop-color="#faf287"/></linearGradient><path id="XMLID_41_" d="M300.7 381.4h143.9c3 0 5.5 2.5 5.5 5.5v31.3H300.7v-36.8z" opacity=".7" fill="url(#XMLID_93_)"/><linearGradient id="XMLID_94_" gradientUnits="userSpaceOnUse" x1="206.3" y1="1109.1" x2="206.3" y2="1266.8" gradientTransform="matrix(1 0 0 -1 94 1604)"><stop offset="0" stop-color="#e65f5c"/><stop offset="1" stop-color="#faf287"/></linearGradient><path id="XMLID_40_" fill="url(#XMLID_94_)" d="M300.3 337.2l-52 36.6v121.1h104V373.8z"/><linearGradient id="XMLID_95_" gradientUnits="userSpaceOnUse" x1="251.3" y1="370.35" x2="350" y2="370.35"><stop offset="0" stop-color="#e65f5c"/><stop offset="1" stop-color="#faf287"/></linearGradient><path id="XMLID_39_" fill="url(#XMLID_95_)" d="M350 373.2l-49.3-36-49.4 36v30.3H350z"/><linearGradient id="XMLID_96_" gradientUnits="userSpaceOnUse" x1="251.3" y1="370.35" x2="350" y2="370.35"><stop offset="0" stop-color="#e65f5c"/><stop offset="1" stop-color="#faf287"/></linearGradient><path id="XMLID_38_" opacity=".5" fill="url(#XMLID_96_)" d="M350 373.2l-49.3-36-49.4 36v30.3H350z"/><linearGradient id="XMLID_97_" gradientUnits="userSpaceOnUse" x1="251.3" y1="447.85" x2="350" y2="447.85"><stop offset="0" stop-color="#e65f5c"/><stop offset="1" stop-color="#faf287"/></linearGradient><path id="XMLID_37_" fill="url(#XMLID_97_)" d="M251.3 403.5H350v88.7h-98.7z"/><linearGradient id="XMLID_98_" gradientUnits="userSpaceOnUse" x1="206.7" y1="1212.8" x2="206.7" y2="1270.4" gradientTransform="matrix(1 0 0 -1 94 1604)"><stop offset="0" stop-color="#e65f5c"/><stop offset="1" stop-color="#faf287"/></linearGradient><path id="XMLID_36_" fill="url(#XMLID_98_)" d="M356.3 391.2l-55.6-39.7-56.4 39.7-3.6-14 60-43.6 60 43.6z"/><linearGradient id="XMLID_99_" gradientUnits="userSpaceOnUse" x1="243.2" y1="361.95" x2="358.2" y2="361.95"><stop offset="0" stop-color="#e65f5c"/><stop offset="1" stop-color="#faf287"/></linearGradient><path id="XMLID_35_" fill="url(#XMLID_99_)" d="M355.8 389.2L300.7 349l-55.2 40.2-2.3-12.6 57.5-41.9 57.5 41.9z"/><linearGradient id="XMLID_100_" gradientUnits="userSpaceOnUse" x1="243.2" y1="361.95" x2="358.2" y2="361.95"><stop offset="0" stop-color="#e65f5c"/><stop offset="1" stop-color="#faf287"/></linearGradient><path id="XMLID_34_" opacity=".2" fill="url(#XMLID_100_)" d="M355.8 389.2L300.7 349l-55.2 40.2-2.3-12.6 57.5-41.9 57.5 41.9z"/><linearGradient id="XMLID_101_" gradientUnits="userSpaceOnUse" x1="272.7" y1="457.55" x2="328.7" y2="457.55"><stop offset="0" stop-color="#0d152c"/><stop offset="1" stop-color="#000024"/></linearGradient><path id="XMLID_33_" fill="url(#XMLID_101_)" d="M272.7 422.9h56v69.3h-56z"/><linearGradient id="XMLID_102_" gradientUnits="userSpaceOnUse" x1="272.7" y1="428.9" x2="328.7" y2="428.9"><stop offset="0" stop-color="#0d152c"/><stop offset="1" stop-color="#000024"/></linearGradient><path id="XMLID_32_" fill="url(#XMLID_102_)" d="M272.7 422.9h56v12h-56z"/><linearGradient id="XMLID_103_" gradientUnits="userSpaceOnUse" x1="272.7" y1="486.2" x2="328.7" y2="486.2"><stop offset="0" stop-color="#0d152c"/><stop offset="1" stop-color="#000024"/></linearGradient><path id="XMLID_31_" fill="url(#XMLID_103_)" d="M272.7 480.2h56v12h-56z"/><linearGradient id="XMLID_104_" gradientUnits="userSpaceOnUse" x1="393.929" y1="466.8" x2="394.929" y2="466.8"><stop offset="0" stop-color="#e65f5c"/><stop offset="1" stop-color="#faf287"/></linearGradient><path id="XMLID_30_" d="M394.4 467.3c.3 0 .5-.2.5-.5s-.2-.5-.5-.5-.5.2-.5.5.3.5.5.5z" fill="url(#XMLID_104_)"/><linearGradient id="XMLID_105_" gradientUnits="userSpaceOnUse" x1="380.65" y1="466.85" x2="407.981" y2="466.85"><stop offset="0" stop-color="#0d152c"/><stop offset="1" stop-color="#000024"/></linearGradient><path id="XMLID_29_" fill="url(#XMLID_105_)" d="M380.7 441.5H408v50.7h-27.3z"/><linearGradient id="XMLID_106_" gradientUnits="userSpaceOnUse" x1="415" y1="440.25" x2="440.664" y2="440.25"><stop offset="0" stop-color="#0d152c"/><stop offset="1" stop-color="#000024"/></linearGradient><path id="XMLID_28_" fill="url(#XMLID_106_)" d="M415 430.9h25.7v18.7H415z"/><linearGradient id="XMLID_107_" gradientUnits="userSpaceOnUse" x1="415" y1="435.05" x2="440.664" y2="435.05"><stop offset="0" stop-color="#e65f5c"/><stop offset="1" stop-color="#faf287"/></linearGradient><path id="XMLID_27_" opacity=".2" fill="url(#XMLID_107_)" d="M415 430.9h25.7v8.3H415z"/><g id="_x34_7cb54cf-6c9b-4864-bf0d-76585f8d162f_1_"><linearGradient id="XMLID_108_" gradientUnits="userSpaceOnUse" x1="306.55" y1="876.796" x2="306.55" y2="917.989" gradientTransform="matrix(1 0 0 -1 -52.3 1354.54)"><stop offset="0" stop-color="#e65f5c"/><stop offset="1" stop-color="#faf287"/></linearGradient><path id="XMLID_26_" d="M237.5 457.8c-1.5-1.6-2.3-3.7-2.3-5.8 0-3 1.6-5.8 4.2-7.4-.6-.8-.9-1.8-.9-2.8.1-2.9 2.4-5.2 5.4-5.2 2.3 0 4.4 1.5 5.1 3.7 1.5-2.3 4.1-3.7 6.8-3.7 4.4 0 8 3.5 8 7.7 0 .9-.2 1.8-.5 2.7h.5c3.5 0 6.4 2.8 6.4 6.2v.6c2.9 1.2 4.8 3.9 4.8 7.1 0 4.2-3.6 7.7-8 7.7-.5 0-.9 0-1.4-.1v.8c0 4.8-4 8.6-8.9 8.6-1.8 0-3.6-.5-5.1-1.5-1.2 1-2.7 1.5-4.3 1.5-3.7 0-6.7-2.9-6.7-6.4v-.5c-3.9 0-7.1-3.1-7.1-6.9.1-2.8 1.6-5.2 4-6.3z" fill="url(#XMLID_108_)"/></g><linearGradient id="_x33_ed80c62-65f0-4ea6-94fa-12b45cf1e111_2_" gradientUnits="userSpaceOnUse" x1="234.467" y1="457.15" x2="274.107" y2="457.15"><stop offset="0" stop-color="#e65f5c"/><stop offset="1" stop-color="#faf287"/></linearGradient><path id="_x33_ed80c62-65f0-4ea6-94fa-12b45cf1e111_1_" d="M238.2 457.8c-1.4-1.5-2.2-3.5-2.2-5.6 0-2.9 1.6-5.6 4.1-7.1-.6-.8-.8-1.8-.8-2.7 0-2.8 2.3-5 5.1-5 2.2 0 4.2 1.4 4.9 3.6 1.4-2.2 3.9-3.6 6.5-3.6 4.2 0 7.6 3.3 7.6 7.4 0 .9-.2 1.7-.5 2.5h.5c3.4 0 6.1 2.7 6.1 5.9v.6c2.8 1.1 4.6 3.8 4.6 6.8 0 4.1-3.4 7.4-7.6 7.4-.4 0-.9 0-1.3-.1v.7c0 4.6-3.8 8.3-8.5 8.3-1.7 0-3.4-.5-4.8-1.5-1.2 1-2.6 1.5-4.1 1.5-3.5 0-6.4-2.8-6.4-6.2v-.4c-3.8 0-6.8-3-6.8-6.6-.1-2.6 1.3-4.8 3.6-5.9z" fill="url(#_x33_ed80c62-65f0-4ea6-94fa-12b45cf1e111_2_)"/><path id="b49a21fb-81f1-4431-9ecd-ca46c91409d2_1_" class="st7" d="M252.7 449.1V495"/><linearGradient id="XMLID_109_" gradientUnits="userSpaceOnUse" x1="158.65" y1="1109" x2="158.65" y2="1154.9" gradientTransform="matrix(1 0 0 -1 94 1604)"><stop offset="0" stop-color="#e65f5c"/><stop offset="1" stop-color="#faf287"/></linearGradient><path id="XMLID_25_" fill="url(#XMLID_109_)" d="M251.4 449.1h2.5V495h-2.5z"/><linearGradient id="XMLID_110_" gradientUnits="userSpaceOnUse" x1="251.972" y1="472.05" x2="253.352" y2="472.05"><stop offset="0" stop-color="#e65f5c"/><stop offset="1" stop-color="#faf287"/></linearGradient><path id="XMLID_24_" fill="url(#XMLID_110_)" d="M252 449.1h1.4V495H252z"/><path id="_x34_6369620-a42d-4543-9046-c39c6dd80f7a_1_" class="st7" d="M252.8 462.9l-8.2-8.4"/><linearGradient id="XMLID_111_" gradientUnits="userSpaceOnUse" x1="244.119" y1="458.7" x2="253.294" y2="458.7"><stop offset="0" stop-color="#e65f5c"/><stop offset="1" stop-color="#faf287"/></linearGradient><path id="XMLID_23_" fill="url(#XMLID_111_)" d="M244.1 455l1-1 8.2 8.4-1 1z"/><path id="_x30_62fca71-ec11-4619-a966-9015ca52f87c_1_" class="st7" d="M252.8 470.1l8.5-6"/><linearGradient id="XMLID_112_" gradientUnits="userSpaceOnUse" x1="252.4" y1="467.05" x2="261.683" y2="467.05"><stop offset="0" stop-color="#e65f5c"/><stop offset="1" stop-color="#faf287"/></linearGradient><path id="XMLID_22_" fill="url(#XMLID_112_)" d="M252.4 469.5l8.5-6 .8 1.2-8.5 5.9z"/><g id="a27ca12e-65b6-46c0-899b-83e3c1e240bd_1_"><linearGradient id="XMLID_113_" gradientUnits="userSpaceOnUse" x1="290.15" y1="876.796" x2="290.15" y2="917.989" gradientTransform="matrix(1 0 0 -1 -52.3 1354.54)"><stop offset="0" stop-color="#e65f5c"/><stop offset="1" stop-color="#faf287"/></linearGradient><path id="XMLID_21_" d="M221.1 457.8c-1.5-1.6-2.3-3.7-2.3-5.8 0-3 1.6-5.8 4.2-7.4-.6-.8-.9-1.8-.9-2.8.1-2.9 2.4-5.2 5.4-5.2 2.3 0 4.4 1.5 5.1 3.7 1.5-2.3 4.1-3.7 6.8-3.7 4.4 0 8 3.5 8 7.7 0 .9-.2 1.8-.5 2.7h.5c3.5 0 6.4 2.8 6.4 6.2v.6c2.9 1.2 4.8 3.9 4.8 7.1 0 4.2-3.6 7.7-8 7.7-.5 0-.9 0-1.4-.1v.8c0 4.8-4 8.6-8.9 8.6-1.8 0-3.6-.5-5.1-1.5-1.2 1-2.7 1.5-4.3 1.5-3.7 0-6.7-2.9-6.7-6.4v-.5c-3.9 0-7.1-3.1-7.1-6.9.2-2.8 1.7-5.2 4-6.3z" fill="url(#XMLID_113_)"/></g><linearGradient id="_x36_85c56b8-497f-4668-a7ee-09f5fbc3598c_2_" gradientUnits="userSpaceOnUse" x1="218.135" y1="457.15" x2="257.775" y2="457.15"><stop offset="0" stop-color="#e65f5c"/><stop offset="1" stop-color="#faf287"/></linearGradient><path id="_x36_85c56b8-497f-4668-a7ee-09f5fbc3598c_1_" d="M221.9 457.8c-1.4-1.5-2.2-3.5-2.2-5.6 0-2.9 1.6-5.6 4.1-7.1-.6-.8-.8-1.8-.8-2.7 0-2.8 2.3-5 5.1-5 2.2 0 4.2 1.4 4.9 3.6 1.4-2.2 3.9-3.6 6.5-3.6 4.2 0 7.6 3.3 7.6 7.4 0 .9-.2 1.7-.5 2.5h.5c3.4 0 6.1 2.7 6.1 5.9v.6c2.8 1.1 4.6 3.8 4.6 6.8 0 4.1-3.4 7.4-7.6 7.4-.4 0-.9 0-1.3-.1v.7c0 4.6-3.8 8.3-8.5 8.3-1.7 0-3.4-.5-4.8-1.5-1.2 1-2.6 1.5-4.1 1.5-3.5 0-6.4-2.8-6.4-6.2v-.4c-3.8 0-6.8-3-6.8-6.6-.1-2.6 1.3-4.8 3.6-5.9z" fill="url(#_x36_85c56b8-497f-4668-a7ee-09f5fbc3598c_2_)"/><path id="_x36_da80e84-a8c0-407e-a753-005b95fbf056_1_" class="st7" d="M236.3 449.1V495"/><linearGradient id="XMLID_114_" gradientUnits="userSpaceOnUse" x1="142.25" y1="1109" x2="142.25" y2="1154.9" gradientTransform="matrix(1 0 0 -1 94 1604)"><stop offset="0" stop-color="#e65f5c"/><stop offset="1" stop-color="#faf287"/></linearGradient><path id="XMLID_20_" fill="url(#XMLID_114_)" d="M235 449.1h2.5V495H235z"/><linearGradient id="XMLID_115_" gradientUnits="userSpaceOnUse" x1="235.64" y1="472.05" x2="237.02" y2="472.05"><stop offset="0" stop-color="#e65f5c"/><stop offset="1" stop-color="#faf287"/></linearGradient><path id="XMLID_19_" fill="url(#XMLID_115_)" d="M235.6 449.1h1.4V495h-1.4z"/><path id="_x39_56986cd-9b04-40a5-a6ac-3e412b0f623a_1_" class="st7" d="M236.5 462.9l-8.2-8.4"/><linearGradient id="XMLID_116_" gradientUnits="userSpaceOnUse" x1="227.791" y1="458.7" x2="236.966" y2="458.7"><stop offset="0" stop-color="#e65f5c"/><stop offset="1" stop-color="#faf287"/></linearGradient><path id="XMLID_18_" fill="url(#XMLID_116_)" d="M227.8 455l1-1 8.2 8.4-1 1z"/><path id="_x35_2f85bb0-cc07-4469-ba3e-635298721117_1_" class="st7" d="M236.5 470.1l8.5-6"/><linearGradient id="XMLID_117_" gradientUnits="userSpaceOnUse" x1="236.077" y1="467.05" x2="245.36" y2="467.05"><stop offset="0" stop-color="#e65f5c"/><stop offset="1" stop-color="#faf287"/></linearGradient><path id="XMLID_17_" fill="url(#XMLID_117_)" d="M236.1 469.5l8.5-6 .8 1.2-8.5 5.9z"/><g id="_x32_b13a509-cfb1-48b6-9a8a-884e17259990_1_"><linearGradient id="XMLID_118_" gradientUnits="userSpaceOnUse" x1="294.502" y1="876.326" x2="294.502" y2="917.789" gradientTransform="matrix(1 0 0 -1 -52.3 1354.54)"><stop offset="0" stop-color="#e65f5c"/><stop offset="1" stop-color="#faf287"/></linearGradient><path id="XMLID_16_" d="M258.3 458.2c3.2-3.7 2.9-9.3-.8-12.6-.3-.3-.7-.5-1-.8.6-.9.8-1.8.8-2.9.1-2.8-2.1-5.1-5-5.2-2.3-.1-4.4 1.5-5 3.7-1.3-2.3-3.8-3.7-6.5-3.7-4.2 0-7.6 3.5-7.6 7.7 0 .9.2 1.8.5 2.7h-.5c-3.4 0-6.1 2.8-6.1 6.2v.6c-2.8 1.3-4.6 4-4.6 7.1 0 4.2 3.3 7.7 7.6 7.7.4 0 .9 0 1.3-.1v.8c0 4.8 3.8 8.7 8.5 8.7 1.7 0 3.4-.5 4.8-1.5 1.1 1 2.6 1.5 4.1 1.5 3.5 0 6.4-2.9 6.3-6.5v-.5c3.8 0 6.8-3.2 6.8-6.9.1-2.5-1.3-4.8-3.6-6z" fill="url(#XMLID_118_)"/></g><linearGradient id="ffc97756-bf62-44e2-b6c0-20f8128ede8f_2_" gradientUnits="userSpaceOnUse" x1="223.831" y1="457.448" x2="260.831" y2="457.448"><stop offset="0" stop-color="#e65f5c"/><stop offset="1" stop-color="#faf287"/></linearGradient><path id="ffc97756-bf62-44e2-b6c0-20f8128ede8f_1_" d="M257.3 458.1c3-3.5 2.7-8.8-.8-11.8-.3-.3-.6-.5-.9-.7.5-.8.8-1.7.8-2.7.1-2.6-2-4.8-4.6-4.9-2.2-.1-4.2 1.4-4.7 3.5-1.3-2.2-3.6-3.5-6.1-3.5-4 .1-7.2 3.3-7.1 7.3 0 .9.1 1.7.4 2.5h-.4c-3.2 0-5.8 2.7-5.7 5.8v.6c-2.6 1.2-4.3 3.8-4.3 6.7 0 4 3.1 7.2 7.1 7.3.4 0 .8 0 1.2-.1v.7c0 4.5 3.6 8.1 8 8.1 1.6 0 3.2-.5 4.5-1.4 1.1.9 2.4 1.4 3.8 1.4 3.3 0 6-2.8 6-6.1v-.4c3.6 0 6.4-3 6.4-6.5-.1-2.4-1.4-4.6-3.6-5.8z" fill="url(#ffc97756-bf62-44e2-b6c0-20f8128ede8f_2_)"/><linearGradient id="XMLID_119_" gradientUnits="userSpaceOnUse" x1="149.8" y1="1109.154" x2="149.8" y2="1155.154" gradientTransform="matrix(1 0 0 -1 94 1604)"><stop offset="0" stop-color="#e65f5c"/><stop offset="1" stop-color="#faf287"/></linearGradient><path id="XMLID_15_" fill="url(#XMLID_119_)" d="M242.9 448.8h1.8v46h-1.8z"/><linearGradient id="XMLID_120_" gradientUnits="userSpaceOnUse" x1="243.426" y1="472.2" x2="244.356" y2="472.2"><stop offset="0" stop-color="#e65f5c"/><stop offset="1" stop-color="#faf287"/></linearGradient><path id="XMLID_14_" fill="url(#XMLID_120_)" d="M243.4 449.5h.9v45.4h-.9z"/><linearGradient id="XMLID_121_" gradientUnits="userSpaceOnUse" x1="243.346" y1="459.05" x2="251.667" y2="459.05"><stop offset="0" stop-color="#e65f5c"/><stop offset="1" stop-color="#faf287"/></linearGradient><path id="XMLID_13_" fill="url(#XMLID_121_)" d="M243.3 462.8l7.7-8.2.7.6-7.7 8.3z"/><linearGradient id="XMLID_122_" gradientUnits="userSpaceOnUse" x1="235.487" y1="467.3" x2="243.961" y2="467.3"><stop offset="0" stop-color="#e65f5c"/><stop offset="1" stop-color="#faf287"/></linearGradient><path id="XMLID_12_" fill="url(#XMLID_122_)" d="M235.5 464.7l.5-.7 8 5.9-.6.7z"/><linearGradient id="XMLID_123_" gradientUnits="userSpaceOnUse" x1="484.493" y1="887.377" x2="484.493" y2="1019.774" gradientTransform="matrix(1 0 0 -1 -52.3 1354.54)"><stop offset="0" stop-color="#e65f5c"/><stop offset="1" stop-color="#faf287"/></linearGradient><path id="XMLID_9_" d="M455 350.4c-19.5-20.3-51.8-20.9-72.1-1.4l-.9.9c-19.3 19.5-19.6 51.1-.7 71 17.1 18 44.8 21.1 65.4 7.2l36.9 38.3c.9 1 2.5 1 3.5.1l9.2-8.8c1-.9 1-2.5.1-3.5l-36.9-38.3c14.5-20.1 12.6-47.7-4.5-65.5zM443.5 412c-14.5 14-37.6 13.5-51.6-1s-13.5-37.6 1-51.6 37.6-13.5 51.6 1 13.5 37.6-1 51.6z" fill="url(#XMLID_123_)"/><linearGradient id="XMLID_124_" gradientUnits="userSpaceOnUse" x1="443.5" y1="972.597" x2="443.5" y2="978.97" gradientTransform="matrix(1 0 0 -1 -52.3 1354.54)"><stop offset="0" stop-color="#e65f5c"/><stop offset="1" stop-color="#faf287"/></linearGradient><path id="XMLID_8_" d="M391.2 375.6c-4.1 0-4.1 6.4 0 6.4s4.1-6.4 0-6.4z" fill="url(#XMLID_124_)"/><linearGradient id="XMLID_125_" gradientUnits="userSpaceOnUse" x1="472.809" y1="979.891" x2="472.809" y2="999.396" gradientTransform="matrix(1 0 0 -1 -52.3 1354.54)"><stop offset="0" stop-color="#e65f5c"/><stop offset="1" stop-color="#faf287"/></linearGradient><path id="XMLID_7_" d="M419.8 355.2c-11-.2-21.1 5.3-26.4 13.7-1.7 2.7 3.2 5.1 4.9 2.4 4.4-6.9 12.8-11.3 21.9-11.1 9.5.2 18.2 5.7 22.8 13.3 1.7 2.9 6.3.3 4.6-2.6-5.6-9.3-16.4-15.5-27.8-15.7z" fill="url(#XMLID_125_)"/><linearGradient id="XMLID_126_" gradientUnits="userSpaceOnUse" x1="371.322" y1="398.964" x2="501.063" y2="398.964"><stop offset="0" stop-color="#e65f5c"/><stop offset="1" stop-color="#faf287"/></linearGradient><path id="XMLID_4_" d="M459 348.4c-19.5-20.3-51.8-20.9-72.1-1.4l-.9.9c-19.3 19.5-19.6 51.1-.7 71 17.1 18 44.8 21.1 65.4 7.2l36.9 38.3c.9 1 2.5 1 3.5.1l9.2-8.8c1-.9 1-2.5.1-3.5l-36.9-38.3c14.5-20.1 12.6-47.6-4.5-65.5zm-11.5 61.7c-14.5 14-37.6 13.5-51.6-1s-13.5-37.6 1-51.6 37.6-13.5 51.6 1 13.5 37.6-1 51.6z" fill="url(#XMLID_126_)"/><linearGradient id="XMLID_127_" gradientUnits="userSpaceOnUse" x1="392.146" y1="376.8" x2="398.307" y2="376.8"><stop offset="0" stop-color="#e65f5c"/><stop offset="1" stop-color="#faf287"/></linearGradient><path id="XMLID_3_" d="M395.2 373.6c-4.1 0-4.1 6.4 0 6.4s4.1-6.4 0-6.4z" fill="url(#XMLID_127_)"/><linearGradient id="XMLID_128_" gradientUnits="userSpaceOnUse" x1="397.047" y1="362.981" x2="451.971" y2="362.981"><stop offset="0" stop-color="#e65f5c"/><stop offset="1" stop-color="#faf287"/></linearGradient><path id="XMLID_2_" d="M423.8 353.2c-11-.2-21.1 5.3-26.4 13.7-1.7 2.7 3.2 5.1 4.9 2.4 4.4-6.9 12.8-11.3 21.9-11.1 9.5.2 18.2 5.7 22.8 13.3 1.7 2.9 6.3.3 4.6-2.6-5.6-9.2-16.4-15.4-27.8-15.7z" fill="url(#XMLID_128_)"/></svg>