<svg xmlns="http://www.w3.org/2000/svg" width="800" height="800"><linearGradient id="a" gradientUnits="userSpaceOnUse" x1="81.946" y1="409.807" x2="672.744" y2="409.807"><stop offset="0" stop-color="#e65f5c"/><stop offset="1" stop-color="#faf287"/></linearGradient><path d="M84.7 531.9c-2.1-9.7-3.1-19.8-2.7-30.2.7-21.1 5.4-41.8 10.5-62.2C103.8 393.7 117 348 138 305.7c24.5-49.4 60.4-95.3 110.2-121 87.3-45.1 188.8-10.3 268.5 34.5 3.6 2 7.2 4.1 10.8 6.2 80 46.9 190.8 134.9 125.6 237-35 54.8-91.4 91.2-149.2 118.2-59.8 28-124.8 52.6-189.4 67.1-37.9 8.5-79.3 13.2-116.7.1-53-18.5-101.2-60.9-113.1-115.9z" fill="url(#a)"/><linearGradient id="b" gradientUnits="userSpaceOnUse" x1="117.716" y1="406.965" x2="624.716" y2="406.965"><stop offset="0" stop-color="#e65f5c"/><stop offset="1" stop-color="#faf287"/></linearGradient><path d="M120.1 511.8c-1.8-8.3-2.6-17-2.3-25.9.6-18.1 4.6-35.8 9-53.4 9.7-39.3 21.1-78.5 39-114.8 21-42.4 51.9-81.8 94.5-103.8 74.9-38.7 162-8.9 230.5 29.6 3.1 1.7 6.2 3.5 9.2 5.3 68.6 40.3 163.8 115.8 107.8 203.4-30.1 47-78.4 78.2-128.1 101.5-51.4 24-107.1 45.1-162.5 57.6-32.5 7.3-68.1 11.3-100.2.1-45.3-16.1-86.7-52.4-96.9-99.6z" fill="url(#b)"/><linearGradient id="c" gradientUnits="userSpaceOnUse" x1="147.598" y1="406.965" x2="586.506" y2="406.965"><stop offset="0" stop-color="#0d152c"/><stop offset="1" stop-color="#000024"/></linearGradient><path d="M586.5 445.4c0 7.3-.9 14.6-2.6 21.7-.6 2.4-1.3 4.7-2.1 7-1 2.8-2.1 5.6-3.3 8.3-.6 1.4-1.3 2.7-2 4 0 7.5-1.5 14.9-4.5 21.8-5.4 12.3-15.1 22.3-27.3 28.1-7.6 3.6-15.9 5.5-24.3 5.6H230.9c-12.9 0-25.5-3.4-36.7-9.8l-.2-.1c-1.6-.9-3.1-1.9-4.6-3-3.4-2.3-6.6-5-9.5-7.9-4-3.9-7.5-8.3-10.5-13-7-11.1-10.7-23.9-10.7-37-7.1-12.4-11.2-27.2-11.2-43.2 0-20.1 6.5-38.5 17.3-52.4 2.2-2.9 4.7-5.6 7.3-8.2 2.6-2.5 5.4-4.8 8.4-6.9 2.4-1.7 4.9-3.1 7.5-4.5 1.1-.5 2.2-1.1 3.3-1.5 1-.4 1.9-.8 2.9-1.2 1.2-.4 2.4-.9 3.6-1.2 1.2-.4 2.4-.7 3.6-1 1.7-.4 3.5-.8 5.3-1 1.5-.2 3-.4 4.5-.5 1.2-.1 2.4-.1 3.6-.2h.7c1.3 0 2.6.1 4 .1.1-.3.3-.6.4-.8.5-1 1.1-2 1.6-3 .1-.2.2-.3.3-.5.4-.8.9-1.6 1.4-2.4.2-.4.4-.7.6-1.1 0-.1.1-.2.2-.3.2-.4.5-.7.7-1.1 1.2-1.8 2.3-3.6 3.6-5.4l.3-.5c.2-.3.4-.5.6-.8.5-.7 1-1.4 1.6-2.2.4-.5.7-1 1.1-1.5 1-1.2 2-2.5 3-3.7 1-1.2 2.1-2.5 3.2-3.7.1-.2.3-.3.5-.5l1.6-1.7c.1-.1.1-.2.2-.2l.6-.6c.9-.9 1.7-1.8 2.6-2.7 4.5-4.5 9.2-8.6 14.3-12.4.2-.2.4-.3.6-.5.9-.7 1.9-1.4 2.9-2.1 5.3-3.8 10.8-7.2 16.5-10.3l1.2-.6c5.1-2.7 10.4-5.2 15.8-7.3 2.9-1.2 6-2.3 9-3.3 2-.7 4-1.3 6.1-1.9 3.2-.9 6.4-1.8 9.7-2.5 9.6-2.2 19.3-3.5 29.2-4 3-.2 6-.2 9-.2 14.7 0 29.4 1.8 43.6 5.5.3.5.8.7 1.4.7h1.3c.5.1 1.1.3 1.6.5 3 .9 6 1.8 9 2.9l.7.3c7.3 2.6 14.4 5.7 21.2 9.3 6.2 3.2 12.1 6.9 17.8 11 .9.6 1.7 1.3 2.6 1.9 1-.7 2.1-1.3 3.1-1.9 4.1-2.3 8.5-4.2 13-5.5 9.5-2.8 19.5-3.2 29.2-1.1 12.4 2.6 23.6 9.1 32.7 18.4 3.7 3.8 7 8 9.8 12.4.2.3.4.6.6 1 2.4 4 4.5 8.1 6.2 12.4.1.2.1.3.2.5 1.6 4 2.9 8.2 3.8 12.4 0 .2.1.4.1.6.9 4.1 1.5 8.3 1.8 12.4v.5c.2 2.2.2 4.3.2 6.6 0 2-.1 3.9-.2 5.9v.7c0 .6-.1 1.1-.1 1.7 2.8 2.3 5.5 4.8 8 7.5 1.1 1.2 2.1 2.4 3.2 3.7 3.1 3.9 5.8 8 8.1 12.4 6.1 12.1 9.7 26.1 9.7 41.1z" fill="url(#c)"/><linearGradient id="d" gradientUnits="userSpaceOnUse" x1="300.878" y1="500.867" x2="317.677" y2="500.867"><stop offset="0" stop-color="#e65f5c"/><stop offset="1" stop-color="#faf287"/></linearGradient><path d="M314.8 505c-4.4 5.9-13.5 6.5-13.5 6.5s-2-8.9 2.4-14.8 13.5-6.5 13.5-6.5 2 8.9-2.4 14.8z" fill="url(#d)"/><linearGradient id="e" gradientUnits="userSpaceOnUse" x1="290.594" y1="504.486" x2="301.678" y2="504.486"><stop offset="0" stop-color="#e65f5c"/><stop offset="1" stop-color="#faf287"/></linearGradient><path d="M292.5 507.2c2.9 3.9 8.9 4.3 8.9 4.3s1.3-5.9-1.6-9.8-8.9-4.3-8.9-4.3-1.3 5.9 1.6 9.8z" fill="url(#e)"/><linearGradient id="f" gradientUnits="userSpaceOnUse" x1="233.659" y1="511.542" x2="312.224" y2="511.542"><stop offset="0" stop-color="#e65f5c"/><stop offset="1" stop-color="#faf287"/></linearGradient><path fill="url(#f)" d="M312.1 511.9h-78.4v-.7h78.5z"/><linearGradient id="g" gradientUnits="userSpaceOnUse" x1="448.195" y1="374" x2="500.445" y2="374"><stop offset="0" stop-color="#e65f5c"/><stop offset="1" stop-color="#faf287"/></linearGradient><path fill="url(#g)" d="M448.2 335h52.2v78h-52.2z"/><linearGradient id="h" gradientUnits="userSpaceOnUse" x1="450.985" y1="374" x2="497.655" y2="374"><stop offset="0" stop-color="#e65f5c"/><stop offset="1" stop-color="#faf287"/></linearGradient><path fill="url(#h)" d="M451 339.2h46.7v69.7H451z"/><linearGradient id="i" gradientUnits="userSpaceOnUse" x1="481.521" y1="392.648" x2="483.78" y2="392.648"><stop offset="0" stop-color="#0d152c"/><stop offset="1" stop-color="#000024"/></linearGradient><path fill="url(#i)" d="M481.5 388.7h2.3v7.8h-2.3z"/><linearGradient id="j" gradientUnits="userSpaceOnUse" x1="462.06" y1="398.73" x2="485.32" y2="398.73"><stop offset="0" stop-color="#0d152c"/><stop offset="1" stop-color="#000024"/></linearGradient><path fill="url(#j)" d="M485.3 395.4l-5.6-6.7h-11l-6.6 6.5.1.1h-.1v13.5h23.2v-13.5z"/><linearGradient id="k" gradientUnits="userSpaceOnUse" x1="472.92" y1="398.686" x2="485.257" y2="398.686"><stop offset="0" stop-color="#0d152c"/><stop offset="1" stop-color="#000024"/></linearGradient><path fill="url(#k)" d="M479.8 388.6l-6.9 8v12.2h12.4v-13.7z"/><linearGradient id="l" gradientUnits="userSpaceOnUse" x1="477.872" y1="403.177" x2="480.392" y2="403.177"><stop offset="0" stop-color="#e65f5c"/><stop offset="1" stop-color="#faf287"/></linearGradient><path fill="url(#l)" d="M477.9 402.1h2.5v2.2h-2.5z"/><linearGradient id="m" gradientUnits="userSpaceOnUse" x1="477.872" y1="399.304" x2="480.392" y2="399.304"><stop offset="0" stop-color="#e65f5c"/><stop offset="1" stop-color="#faf287"/></linearGradient><path fill="url(#m)" d="M477.9 398.2h2.5v2.2h-2.5z"/><linearGradient id="n" gradientUnits="userSpaceOnUse" x1="477.872" y1="403.177" x2="480.392" y2="403.177"><stop offset="0" stop-color="#e65f5c"/><stop offset="1" stop-color="#faf287"/></linearGradient><path fill="url(#n)" d="M477.9 402.1h2.5v2.2h-2.5z"/><linearGradient id="o" gradientUnits="userSpaceOnUse" x1="477.872" y1="399.304" x2="480.392" y2="399.304"><stop offset="0" stop-color="#e65f5c"/><stop offset="1" stop-color="#faf287"/></linearGradient><path fill="url(#o)" d="M477.9 398.2h2.5v2.2h-2.5z"/><linearGradient id="p" gradientUnits="userSpaceOnUse" x1="471.209" y1="407.905" x2="472.37" y2="407.905"><stop offset="0" stop-color="#e65f5c"/><stop offset="1" stop-color="#faf287"/></linearGradient><path d="M471.2 408.4s.1-1.1 1.2-1" fill="url(#p)"/><linearGradient id="q" gradientUnits="userSpaceOnUse" x1="470.342" y1="406.779" x2="471.45" y2="406.779"><stop offset="0" stop-color="#e65f5c"/><stop offset="1" stop-color="#faf287"/></linearGradient><circle cx="470.9" cy="406.8" r=".6" fill="url(#q)"/><linearGradient id="r" gradientUnits="userSpaceOnUse" x1="470.806" y1="408.26" x2="470.962" y2="408.26"><stop offset="0" stop-color="#e65f5c"/><stop offset="1" stop-color="#faf287"/></linearGradient><path fill="url(#r)" d="M470.8 407.7h.2v1.1h-.2z"/><linearGradient id="s" gradientUnits="userSpaceOnUse" x1="376.636" y1="374" x2="428.885" y2="374"><stop offset="0" stop-color="#e65f5c"/><stop offset="1" stop-color="#faf287"/></linearGradient><path fill="url(#s)" d="M376.6 335h52.2v78h-52.2z"/><linearGradient id="t" gradientUnits="userSpaceOnUse" x1="379.426" y1="374" x2="426.096" y2="374"><stop offset="0" stop-color="#e65f5c"/><stop offset="1" stop-color="#faf287"/></linearGradient><path fill="url(#t)" d="M379.4 339.2h46.7v69.7h-46.7z"/><linearGradient id="u" gradientUnits="userSpaceOnUse" x1="462.731" y1="365.018" x2="466.085" y2="365.018"><stop offset="0" stop-color="#0d152c"/><stop offset="1" stop-color="#000024"/></linearGradient><path d="M464.7 365.1l1.3-1.1c-1-.1-1.5.5-1.6.9-.6-.2-1.2-.1-1.7.1l2.7 1c-.1-.3-.4-.7-.7-.9z" fill="url(#u)"/><linearGradient id="v" gradientUnits="userSpaceOnUse" x1="404.662" y1="362.912" x2="408.017" y2="362.912"><stop offset="0" stop-color="#0d152c"/><stop offset="1" stop-color="#000024"/></linearGradient><path d="M406.7 363l1.3-1.1c-1-.1-1.5.5-1.6.9-.6-.2-1.2-.1-1.7.1l2.7 1c-.2-.3-.4-.7-.7-.9z" fill="url(#v)"/><linearGradient id="w" gradientUnits="userSpaceOnUse" x1="481.033" y1="354.858" x2="484.387" y2="354.858"><stop offset="0" stop-color="#0d152c"/><stop offset="1" stop-color="#000024"/></linearGradient><path d="M483 354.9l1.3-1.1c-1-.1-1.5.5-1.6.9-.6-.2-1.2-.1-1.7.1l2.7 1c-.1-.3-.3-.6-.7-.9z" fill="url(#w)"/><linearGradient id="x" gradientUnits="userSpaceOnUse" x1="411.666" y1="384.925" x2="413.925" y2="384.925"><stop offset="0" stop-color="#e65f5c"/><stop offset="1" stop-color="#faf287"/></linearGradient><path fill="url(#x)" d="M411.7 381h2.3v7.8h-2.3z"/><linearGradient id="y" gradientUnits="userSpaceOnUse" x1="411.666" y1="384.143" x2="413.925" y2="384.143"><stop offset="0" stop-color="#0d152c"/><stop offset="1" stop-color="#000024"/></linearGradient><path fill="url(#y)" d="M411.7 380.2h2.3v7.8h-2.3z"/><linearGradient id="z" gradientUnits="userSpaceOnUse" x1="385.254" y1="394.976" x2="417.338" y2="394.976"><stop offset="0" stop-color="#0d152c"/><stop offset="1" stop-color="#000024"/></linearGradient><path fill="url(#z)" d="M417.3 390.2l-7.7-9.2h-15.1l-9.2 9.1.1.1v18.7h31.9v-18.7z"/><linearGradient id="A" gradientUnits="userSpaceOnUse" x1="400.262" y1="394.917" x2="417.312" y2="394.917"><stop offset="0" stop-color="#0d152c"/><stop offset="1" stop-color="#000024"/></linearGradient><path fill="url(#A)" d="M409.7 380.9l-9.4 11.1v16.9h17v-19z"/><linearGradient id="B" gradientUnits="userSpaceOnUse" x1="404.703" y1="400.976" x2="408.185" y2="400.976"><stop offset="0" stop-color="#e65f5c"/><stop offset="1" stop-color="#faf287"/></linearGradient><path fill="url(#B)" d="M404.7 399.3h3.5v3.4h-3.5z"/><linearGradient id="C" gradientUnits="userSpaceOnUse" x1="404.703" y1="395.942" x2="408.185" y2="395.942"><stop offset="0" stop-color="#e65f5c"/><stop offset="1" stop-color="#faf287"/></linearGradient><path fill="url(#C)" d="M404.7 394.3h3.5v3.4h-3.5z"/><linearGradient id="D" gradientUnits="userSpaceOnUse" x1="404.703" y1="400.976" x2="408.185" y2="400.976"><stop offset="0" stop-color="#e65f5c"/><stop offset="1" stop-color="#faf287"/></linearGradient><path fill="url(#D)" d="M404.7 399.3h3.5v3.4h-3.5z"/><linearGradient id="E" gradientUnits="userSpaceOnUse" x1="404.703" y1="395.942" x2="408.185" y2="395.942"><stop offset="0" stop-color="#e65f5c"/><stop offset="1" stop-color="#faf287"/></linearGradient><path fill="url(#E)" d="M404.7 394.3h3.5v3.4h-3.5z"/><linearGradient id="F" gradientUnits="userSpaceOnUse" x1="409.796" y1="400.976" x2="413.278" y2="400.976"><stop offset="0" stop-color="#e65f5c"/><stop offset="1" stop-color="#faf287"/></linearGradient><path fill="url(#F)" d="M409.8 399.3h3.5v3.4h-3.5z"/><linearGradient id="G" gradientUnits="userSpaceOnUse" x1="409.796" y1="395.942" x2="413.278" y2="395.942"><stop offset="0" stop-color="#e65f5c"/><stop offset="1" stop-color="#faf287"/></linearGradient><path fill="url(#G)" d="M409.8 394.3h3.5v3.4h-3.5z"/><linearGradient id="H" gradientUnits="userSpaceOnUse" x1="409.796" y1="400.976" x2="413.278" y2="400.976"><stop offset="0" stop-color="#e65f5c"/><stop offset="1" stop-color="#faf287"/></linearGradient><path fill="url(#H)" d="M409.8 399.3h3.5v3.4h-3.5z"/><linearGradient id="I" gradientUnits="userSpaceOnUse" x1="409.796" y1="395.942" x2="413.278" y2="395.942"><stop offset="0" stop-color="#e65f5c"/><stop offset="1" stop-color="#faf287"/></linearGradient><path fill="url(#I)" d="M409.8 394.3h3.5v3.4h-3.5z"/><linearGradient id="J" gradientUnits="userSpaceOnUse" x1="340.006" y1="330.232" x2="366.815" y2="330.232"><stop offset="0" stop-color="#e65f5c"/><stop offset="1" stop-color="#faf287"/></linearGradient><circle cx="353.4" cy="330.2" r="13.4" fill="url(#J)"/><linearGradient id="K" gradientUnits="userSpaceOnUse" x1="305.076" y1="374" x2="357.326" y2="374"><stop offset="0" stop-color="#e65f5c"/><stop offset="1" stop-color="#faf287"/></linearGradient><path fill="url(#K)" d="M305.1 335h52.2v78h-52.2z"/><linearGradient id="L" gradientUnits="userSpaceOnUse" x1="307.866" y1="374" x2="354.536" y2="374"><stop offset="0" stop-color="#e65f5c"/><stop offset="1" stop-color="#faf287"/></linearGradient><path fill="url(#L)" d="M307.9 339.2h46.7v69.7h-46.7z"/><linearGradient id="M" gradientUnits="userSpaceOnUse" x1="311.767" y1="391.778" x2="350.982" y2="391.778"><stop offset="0" stop-color="#0d152c"/><stop offset="1" stop-color="#000024"/></linearGradient><path fill="url(#M)" d="M351 386l-9.4-11.3h-18.5l-11.3 11.1.2.1h-.1v22.9H351v-22.9z"/><linearGradient id="N" gradientUnits="userSpaceOnUse" x1="337.639" y1="361.873" x2="340.806" y2="361.873"><stop offset="0" stop-color="#0d152c"/><stop offset="1" stop-color="#000024"/></linearGradient><path d="M339.5 362l1.3-1c-1-.1-1.4.4-1.6.9-.5-.2-1.1-.1-1.6.1l2.5.9c0-.4-.3-.7-.6-.9z" fill="url(#N)"/><linearGradient id="O" gradientUnits="userSpaceOnUse" x1="343.188" y1="377.389" x2="345.321" y2="377.389"><stop offset="0" stop-color="#0d152c"/><stop offset="1" stop-color="#000024"/></linearGradient><path fill="url(#O)" d="M343.2 373.7h2.1v7.4h-2.1z"/><linearGradient id="P" gradientUnits="userSpaceOnUse" x1="330.12" y1="391.705" x2="350.969" y2="391.705"><stop offset="0" stop-color="#0d152c"/><stop offset="1" stop-color="#000024"/></linearGradient><path fill="url(#P)" d="M341.7 374.6l-11.6 13.6v20.6H351v-23.2z"/><linearGradient id="Q" gradientUnits="userSpaceOnUse" x1="320.735" y1="407.957" x2="321.831" y2="407.957"><stop offset="0" stop-color="#e65f5c"/><stop offset="1" stop-color="#faf287"/></linearGradient><path d="M320.7 408.4s.1-1.1 1.1-.9" fill="url(#Q)"/><linearGradient id="R" gradientUnits="userSpaceOnUse" x1="319.916" y1="406.894" x2="320.962" y2="406.894"><stop offset="0" stop-color="#e65f5c"/><stop offset="1" stop-color="#faf287"/></linearGradient><circle cx="320.4" cy="406.9" r=".5" fill="url(#R)"/><linearGradient id="S" gradientUnits="userSpaceOnUse" x1="320.354" y1="408.292" x2="320.502" y2="408.292"><stop offset="0" stop-color="#e65f5c"/><stop offset="1" stop-color="#faf287"/></linearGradient><path fill="url(#S)" d="M320.4 407.8h.1v1h-.1z"/><linearGradient id="T" gradientUnits="userSpaceOnUse" x1="325.411" y1="407.957" x2="326.507" y2="407.957"><stop offset="0" stop-color="#e65f5c"/><stop offset="1" stop-color="#faf287"/></linearGradient><path d="M325.4 408.4s.1-1.1 1.1-.9" fill="url(#T)"/><linearGradient id="U" gradientUnits="userSpaceOnUse" x1="324.592" y1="406.894" x2="325.639" y2="406.894"><stop offset="0" stop-color="#e65f5c"/><stop offset="1" stop-color="#faf287"/></linearGradient><circle cx="325.1" cy="406.9" r=".5" fill="url(#U)"/><linearGradient id="V" gradientUnits="userSpaceOnUse" x1="325.03" y1="408.292" x2="325.178" y2="408.292"><stop offset="0" stop-color="#e65f5c"/><stop offset="1" stop-color="#faf287"/></linearGradient><path fill="url(#V)" d="M325 407.8h.1v1h-.1z"/><linearGradient id="W" gradientUnits="userSpaceOnUse" x1="314.336" y1="407.957" x2="315.432" y2="407.957"><stop offset="0" stop-color="#e65f5c"/><stop offset="1" stop-color="#faf287"/></linearGradient><path d="M314.3 408.4s.1-1.1 1.1-.9" fill="url(#W)"/><linearGradient id="X" gradientUnits="userSpaceOnUse" x1="313.517" y1="406.894" x2="314.564" y2="406.894"><stop offset="0" stop-color="#e65f5c"/><stop offset="1" stop-color="#faf287"/></linearGradient><circle cx="314" cy="406.9" r=".5" fill="url(#X)"/><linearGradient id="Y" gradientUnits="userSpaceOnUse" x1="313.955" y1="408.292" x2="314.103" y2="408.292"><stop offset="0" stop-color="#e65f5c"/><stop offset="1" stop-color="#faf287"/></linearGradient><path fill="url(#Y)" d="M314 407.8h.1v1h-.1z"/><linearGradient id="Z" gradientUnits="userSpaceOnUse" x1="332.801" y1="393.074" x2="337.058" y2="393.074"><stop offset="0" stop-color="#e65f5c"/><stop offset="1" stop-color="#faf287"/></linearGradient><path fill="url(#Z)" d="M332.8 390.9h4.3v4.4h-4.3z"/><linearGradient id="aa" gradientUnits="userSpaceOnUse" x1="332.801" y1="398.998" x2="337.058" y2="398.998"><stop offset="0" stop-color="#e65f5c"/><stop offset="1" stop-color="#faf287"/></linearGradient><path fill="url(#aa)" d="M332.8 396.8h4.3v4.4h-4.3z"/><linearGradient id="ab" gradientUnits="userSpaceOnUse" x1="332.801" y1="393.074" x2="337.058" y2="393.074"><stop offset="0" stop-color="#e65f5c"/><stop offset="1" stop-color="#faf287"/></linearGradient><path fill="url(#ab)" d="M332.8 390.9h4.3v4.4h-4.3z"/><linearGradient id="ac" gradientUnits="userSpaceOnUse" x1="332.801" y1="398.998" x2="337.058" y2="398.998"><stop offset="0" stop-color="#e65f5c"/><stop offset="1" stop-color="#faf287"/></linearGradient><path fill="url(#ac)" d="M332.8 396.8h4.3v4.4h-4.3z"/><linearGradient id="ad" gradientUnits="userSpaceOnUse" x1="338.689" y1="393.074" x2="342.947" y2="393.074"><stop offset="0" stop-color="#e65f5c"/><stop offset="1" stop-color="#faf287"/></linearGradient><path fill="url(#ad)" d="M338.7 390.9h4.3v4.4h-4.3z"/><linearGradient id="ae" gradientUnits="userSpaceOnUse" x1="338.689" y1="398.998" x2="342.947" y2="398.998"><stop offset="0" stop-color="#e65f5c"/><stop offset="1" stop-color="#faf287"/></linearGradient><path fill="url(#ae)" d="M338.7 396.8h4.3v4.4h-4.3z"/><linearGradient id="af" gradientUnits="userSpaceOnUse" x1="338.689" y1="393.074" x2="342.947" y2="393.074"><stop offset="0" stop-color="#e65f5c"/><stop offset="1" stop-color="#faf287"/></linearGradient><path fill="url(#af)" d="M338.7 390.9h4.3v4.4h-4.3z"/><linearGradient id="ag" gradientUnits="userSpaceOnUse" x1="338.689" y1="398.998" x2="342.947" y2="398.998"><stop offset="0" stop-color="#e65f5c"/><stop offset="1" stop-color="#faf287"/></linearGradient><path fill="url(#ag)" d="M338.7 396.8h4.3v4.4h-4.3z"/><linearGradient id="ah" gradientUnits="userSpaceOnUse" x1="344.578" y1="393.074" x2="348.836" y2="393.074"><stop offset="0" stop-color="#e65f5c"/><stop offset="1" stop-color="#faf287"/></linearGradient><path fill="url(#ah)" d="M344.6 390.9h4.3v4.4h-4.3z"/><linearGradient id="ai" gradientUnits="userSpaceOnUse" x1="344.578" y1="398.998" x2="348.836" y2="398.998"><stop offset="0" stop-color="#e65f5c"/><stop offset="1" stop-color="#faf287"/></linearGradient><path fill="url(#ai)" d="M344.6 396.8h4.3v4.4h-4.3z"/><linearGradient id="aj" gradientUnits="userSpaceOnUse" x1="344.578" y1="393.074" x2="348.836" y2="393.074"><stop offset="0" stop-color="#e65f5c"/><stop offset="1" stop-color="#faf287"/></linearGradient><path fill="url(#aj)" d="M344.6 390.9h4.3v4.4h-4.3z"/><linearGradient id="ak" gradientUnits="userSpaceOnUse" x1="344.578" y1="398.998" x2="348.836" y2="398.998"><stop offset="0" stop-color="#e65f5c"/><stop offset="1" stop-color="#faf287"/></linearGradient><path fill="url(#ak)" d="M344.6 396.8h4.3v4.4h-4.3z"/><linearGradient id="al" gradientUnits="userSpaceOnUse" x1="305.157" y1="408.685" x2="499.999" y2="408.685"><stop offset="0" stop-color="#e65f5c"/><stop offset="1" stop-color="#faf287"/></linearGradient><path d="M500 413.4H305.2s39.6-9.5 97.8-9.4h12.2c.6 0 1.2 0 1.9.1h.7c1.1 0 2.3.1 3.4.1H423.1c.5 0 1 0 1.5.1.6 0 1.3.1 1.9.1 1.3.1 2.6.1 4 .2 1 .1 2 .1 3 .2.4 0 .8.1 1.3.1.7 0 1.3.1 2 .1.4 0 .8.1 1.3.1s1 .1 1.5.1 1 .1 1.5.1 1 .1 1.5.1 1 .1 1.5.1 1 .1 1.5.1c2.1.2 4.3.4 6.5.6.4 0 .8.1 1.3.1.4 0 .9.1 1.3.1.6.1 1.2.1 1.8.2.5.1 1 .1 1.6.2.5.1.9.1 1.4.2h.1c.5.1 1.1.1 1.6.2s1.1.1 1.6.2 1.1.1 1.6.2 1.1.1 1.6.2c.4.1.8.1 1.2.2.2 0 .4.1.6.1.4.1.9.1 1.3.2.5.1 1.1.1 1.6.2h.2c.8.1 1.7.2 2.5.3h.3c.4.1.9.1 1.3.2s.9.1 1.3.2h.1l1.8.3c.3 0 .6.1.9.1.4.1.8.1 1.3.2.3 0 .6.1.8.1.2 0 .4.1.6.1.4.1.9.1 1.3.2s.8.1 1.2.2h.3c.3 0 .6.1.9.1.3.1.6.1.9.2.3 0 .5.1.8.1h.1c.3.1.6.1.9.2.3.1.6.1.9.2h.1c.2 0 .5.1.7.1.4.1 0 0 0 0 .1 0 .3 0 .4.1.4.1.7.1 1.1.2.2 0 .5.1.7.1.7.1 1.3.2 2 .4.7.1 1.3.2 2 .4.4.1.8.2 1.2.2.4.1.7.1 1.1.2.5.3 1 .4 1.6.5z" fill="url(#al)"/><linearGradient id="am" gradientUnits="userSpaceOnUse" x1="305.157" y1="413.395" x2="305.157" y2="413.395"><stop offset="0" stop-color="#e65f5c"/><stop offset="1" stop-color="#faf287"/></linearGradient><linearGradient id="an" gradientUnits="userSpaceOnUse" x1="305.086" y1="408.682" x2="500.058" y2="408.682"><stop offset="0" stop-color="#e65f5c"/><stop offset="1" stop-color="#faf287"/></linearGradient><path d="M499.9 413.7l-1.5-.3h-.2c-.4-.1-.7-.1-1.1-.2-.4-.1-.8-.2-1.2-.2-.7-.1-1.3-.2-2-.4-.6-.1-1.2-.2-1.7-.3h-.2c-.2 0-.4-.1-.6-.1h-.1c-.3-.1-.7-.1-1-.2h-.2l-.4-.1c-.2 0-.4-.1-.7-.1h-.1l-.9-.2c-.3-.1-.6-.1-.9-.2h-.1c-.3 0-.5-.1-.7-.1l-2.2-.4c-.4-.1-.8-.1-1.2-.2-.4-.1-.9-.1-1.3-.2-.2 0-.4-.1-.6-.1l-.8-.1c-.4-.1-.8-.1-1.3-.2-.3 0-.6-.1-.9-.1l-1.8-.3h-.1c-.3 0-.6-.1-.8-.1l-.5-.1c-.4-.1-.9-.1-1.3-.2h-.3c-.8-.1-1.7-.2-2.5-.3h-.2l-4.8-.6c-.5-.1-1.1-.1-1.6-.2s-1.1-.1-1.6-.2-1.1-.1-1.6-.2-1-.1-1.6-.2h-.1c-.5-.1-1-.1-1.4-.2-.5-.1-1-.1-1.5-.2h-.1c-.6-.1-1.2-.1-1.8-.2-.4 0-.9-.1-1.3-.1s-.8-.1-1.3-.1c-2.1-.2-4.3-.4-6.5-.6-.5 0-1-.1-1.5-.1s-1-.1-1.5-.1-1-.1-1.5-.1-.9-.1-1.4-.1h-.2c-.5 0-1-.1-1.5-.1l-1.3-.1c-.7 0-1.3-.1-2-.1h-.1c-.4 0-.8 0-1.2-.1-1-.1-2-.1-3-.2-1.3-.1-2.7-.1-4-.2-.6 0-1.3-.1-1.9-.1-.4 0-.9 0-1.3-.1h-2c-1.1 0-2.3-.1-3.4-.1h-.7c-.6 0-1.2 0-1.9-.1h-13.2c-57 0-96.4 9.3-96.8 9.4l-.1-.6c.4-.1 39.8-9.4 96.9-9.4h13.2c.6 0 1.2 0 1.9.1h.7c1.1 0 2.3.1 3.4.1h2c.4 0 .9 0 1.3.1.6 0 1.3.1 1.9.1 1.3.1 2.6.1 4 .2 1 .1 2 .1 3 .2.4 0 .8 0 1.2.1h.1c.7 0 1.3.1 2 .1l1.3.1c.5 0 1 .1 1.5.1h.2c.5 0 .9.1 1.4.1.5 0 1 .1 1.5.1s1 .1 1.5.1 1 .1 1.5.1c2.2.2 4.4.4 6.5.6.4 0 .8.1 1.3.1.4 0 .9.1 1.3.1.6.1 1.2.1 1.8.2h.1c.5.1 1 .1 1.5.2s.9.1 1.4.2h.1c.5.1 1.1.1 1.6.2s1.1.1 1.6.2 1.1.1 1.6.2 1.1.1 1.6.2l4.8.6h.1c.8.1 1.7.2 2.5.3h.3c.4.1.9.1 1.3.2l.5.1c.3 0 .6.1.8.1h.1l1.8.3c.3 0 .6.1.9.1.4.1.8.1 1.3.2l.8.1c.2 0 .4.1.6.1.4.1.9.1 1.3.2s.8.1 1.2.2h.1l2.1.4c.2 0 .5.1.7.1h.2c.3 0 .6.1.9.2l.9.2h.1c.2 0 .4.1.6.1h.1l.1.1h.4c.3.1.7.1 1 .2h.1c.2 0 .4.1.6.1h.2c.6.1 1.2.2 1.7.3.7.1 1.3.2 2 .4.4.1.8.2 1.2.2.4.1.7.1 1.1.2h.2l1.5.3.1.6z" fill="url(#an)"/><linearGradient id="ao" gradientUnits="userSpaceOnUse" x1="416.221" y1="344.822" x2="462.118" y2="344.822"><stop offset="0" stop-color="#e65f5c"/><stop offset="1" stop-color="#faf287"/></linearGradient><circle cx="439.2" cy="344.8" r="22.9" fill="url(#ao)"/><linearGradient id="ap" gradientUnits="userSpaceOnUse" x1="418.001" y1="348.607" x2="462.061" y2="348.607"><stop offset="0" stop-color="#e65f5c"/><stop offset="1" stop-color="#faf287"/></linearGradient><path d="M456.2 329.5c5 11.7-.4 25.1-12.1 30.1-9.1 3.9-19.6 1.5-26.2-5.8 5 11.7 18.5 17.1 30.1 12.1s17.1-18.5 12.1-30.1c-.9-2.3-2.2-4.5-3.9-6.3z" opacity=".2" fill="url(#ap)"/><linearGradient id="aq" gradientUnits="userSpaceOnUse" x1="438.035" y1="377.354" x2="440.431" y2="377.354"><stop offset="0" stop-color="#e65f5c"/><stop offset="1" stop-color="#faf287"/></linearGradient><path fill="url(#aq)" d="M439.2 344.8h.1l1.1 65.1H438z"/><linearGradient id="ar" gradientUnits="userSpaceOnUse" x1="439.089" y1="380.759" x2="443.411" y2="380.759"><stop offset="0" stop-color="#e65f5c"/><stop offset="1" stop-color="#faf287"/></linearGradient><path fill="url(#ar)" d="M442.9 379.3l.5 1-3.8 2-.5-1z"/><linearGradient id="as" gradientUnits="userSpaceOnUse" x1="384.381" y1="409.529" x2="386.465" y2="409.529"><stop offset="0" stop-color="#e65f5c"/><stop offset="1" stop-color="#faf287"/></linearGradient><path d="M384.4 410.4s.1-2 2.1-1.8" fill="url(#as)"/><linearGradient id="at" gradientUnits="userSpaceOnUse" x1="382.825" y1="407.509" x2="384.814" y2="407.509"><stop offset="0" stop-color="#e65f5c"/><stop offset="1" stop-color="#faf287"/></linearGradient><circle cx="383.8" cy="407.5" r="1" fill="url(#at)"/><linearGradient id="au" gradientUnits="userSpaceOnUse" x1="383.658" y1="410.166" x2="383.939" y2="410.166"><stop offset="0" stop-color="#e65f5c"/><stop offset="1" stop-color="#faf287"/></linearGradient><path fill="url(#au)" d="M383.7 409.2h.3v2h-.3z"/><linearGradient id="av" gradientUnits="userSpaceOnUse" x1="420.594" y1="409.95" x2="422.678" y2="409.95"><stop offset="0" stop-color="#e65f5c"/><stop offset="1" stop-color="#faf287"/></linearGradient><path d="M420.6 410.9s.1-2 2.1-1.8" fill="url(#av)"/><linearGradient id="aw" gradientUnits="userSpaceOnUse" x1="419.038" y1="407.93" x2="421.027" y2="407.93"><stop offset="0" stop-color="#e65f5c"/><stop offset="1" stop-color="#faf287"/></linearGradient><circle cx="420" cy="407.9" r="1" fill="url(#aw)"/><linearGradient id="ax" gradientUnits="userSpaceOnUse" x1="419.87" y1="410.587" x2="420.151" y2="410.587"><stop offset="0" stop-color="#e65f5c"/><stop offset="1" stop-color="#faf287"/></linearGradient><path fill="url(#ax)" d="M419.9 409.6h.3v2h-.3z"/><linearGradient id="ay" gradientUnits="userSpaceOnUse" x1="360.941" y1="406.442" x2="363.025" y2="406.442"><stop offset="0" stop-color="#e65f5c"/><stop offset="1" stop-color="#faf287"/></linearGradient><path d="M360.9 407.3s.1-2 2.1-1.8" fill="url(#ay)"/><linearGradient id="az" gradientUnits="userSpaceOnUse" x1="359.385" y1="404.421" x2="361.374" y2="404.421"><stop offset="0" stop-color="#e65f5c"/><stop offset="1" stop-color="#faf287"/></linearGradient><circle cx="360.4" cy="404.4" r="1" fill="url(#az)"/><linearGradient id="aA" gradientUnits="userSpaceOnUse" x1="360.218" y1="407.079" x2="360.499" y2="407.079"><stop offset="0" stop-color="#e65f5c"/><stop offset="1" stop-color="#faf287"/></linearGradient><path fill="url(#aA)" d="M360.2 406.1h.3v2h-.3z"/><linearGradient id="aB" gradientUnits="userSpaceOnUse" x1="376.24" y1="403.775" x2="378.324" y2="403.775"><stop offset="0" stop-color="#e65f5c"/><stop offset="1" stop-color="#faf287"/></linearGradient><path d="M376.2 404.7s.1-2 2.1-1.8" fill="url(#aB)"/><linearGradient id="aC" gradientUnits="userSpaceOnUse" x1="374.684" y1="401.755" x2="376.673" y2="401.755"><stop offset="0" stop-color="#e65f5c"/><stop offset="1" stop-color="#faf287"/></linearGradient><circle cx="375.7" cy="401.8" r="1" fill="url(#aC)"/><linearGradient id="aD" gradientUnits="userSpaceOnUse" x1="375.517" y1="404.412" x2="375.798" y2="404.412"><stop offset="0" stop-color="#e65f5c"/><stop offset="1" stop-color="#faf287"/></linearGradient><path fill="url(#aD)" d="M375.5 403.4h.3v2h-.3z"/><linearGradient id="aE" gradientUnits="userSpaceOnUse" x1="414.558" y1="407.564" x2="416.642" y2="407.564"><stop offset="0" stop-color="#e65f5c"/><stop offset="1" stop-color="#faf287"/></linearGradient><path d="M414.6 408.5s.1-2 2.1-1.8" fill="url(#aE)"/><linearGradient id="aF" gradientUnits="userSpaceOnUse" x1="413.002" y1="405.544" x2="414.991" y2="405.544"><stop offset="0" stop-color="#e65f5c"/><stop offset="1" stop-color="#faf287"/></linearGradient><circle cx="414" cy="405.5" r="1" fill="url(#aF)"/><linearGradient id="aG" gradientUnits="userSpaceOnUse" x1="413.835" y1="408.201" x2="414.116" y2="408.201"><stop offset="0" stop-color="#e65f5c"/><stop offset="1" stop-color="#faf287"/></linearGradient><path fill="url(#aG)" d="M413.8 407.2h.3v2h-.3z"/><linearGradient id="aH" gradientUnits="userSpaceOnUse" x1="384.786" y1="322.281" x2="388.009" y2="322.281"><stop offset="0" stop-color="#e65f5c"/><stop offset="1" stop-color="#faf287"/></linearGradient><path d="M386.7 322.4l1.3-1c-1-.1-1.4.4-1.6.9-.5-.2-1.1-.1-1.6.1l2.6.9c-.2-.4-.4-.7-.7-.9z" fill="url(#aH)"/><linearGradient id="aI" gradientUnits="userSpaceOnUse" x1="404.436" y1="332.808" x2="407.659" y2="332.808"><stop offset="0" stop-color="#e65f5c"/><stop offset="1" stop-color="#faf287"/></linearGradient><path d="M406.4 332.9l1.3-1c-1-.1-1.4.4-1.6.9-.5-.2-1.1-.1-1.6.1l2.6.9c-.2-.4-.4-.7-.7-.9z" fill="url(#aI)"/><linearGradient id="aJ" gradientUnits="userSpaceOnUse" x1="383.242" y1="341.791" x2="386.465" y2="341.791"><stop offset="0" stop-color="#0d152c"/><stop offset="1" stop-color="#000024"/></linearGradient><path d="M385.2 341.9l1.3-1c-1-.1-1.4.4-1.6.9-.5-.2-1.1-.1-1.6.1l2.6.9c-.2-.4-.4-.7-.7-.9z" fill="url(#aJ)"/><linearGradient id="aK" gradientUnits="userSpaceOnUse" x1="275.298" y1="413.164" x2="280.601" y2="413.164"><stop offset="0" stop-color="#e65f5c"/><stop offset="1" stop-color="#faf287"/></linearGradient><path d="M276.8 409.6c1.3-.4 2.9.9 3.5 2.9.6 2 0 3.9-1.3 4.4-1.3.4-2.9-.9-3.5-2.9-.6-2.1 0-4 1.3-4.4z" fill="url(#aK)"/><linearGradient id="aL" gradientUnits="userSpaceOnUse" x1="249.454" y1="419.328" x2="260.462" y2="419.328"><stop offset="0" stop-color="#e65f5c"/><stop offset="1" stop-color="#faf287"/></linearGradient><path d="M249.6 396.9s-.8 15.1.8 25.2 3.3 19.6 3.3 19.6 4.3-3.3 6.8-2.3l-4.5-35-6.4-7.5z" fill="url(#aL)"/><linearGradient id="aM" gradientUnits="userSpaceOnUse" x1="257.317" y1="372.151" x2="273.924" y2="372.151"><stop offset="0" stop-color="#e65f5c"/><stop offset="1" stop-color="#faf287"/></linearGradient><circle cx="265.6" cy="372.2" r="8.3" fill="url(#aM)"/><linearGradient id="aN" gradientUnits="userSpaceOnUse" x1="256.688" y1="379.951" x2="266.753" y2="379.951"><stop offset="0" stop-color="#e65f5c"/><stop offset="1" stop-color="#faf287"/></linearGradient><path fill="url(#aN)" d="M260.2 374.3l-3.5 9 5 2.3 5.1-9z"/><linearGradient id="aO" gradientUnits="userSpaceOnUse" x1="238.824" y1="428.972" x2="289.147" y2="428.972"><stop offset="0" stop-color="#e65f5c"/><stop offset="1" stop-color="#faf287"/></linearGradient><path d="M263.2 382.9s-5-3.3-7.3-2.1l-2 4.8s-7 8.8-4.3 15.3c2.8 6.5 9.1 14.1 9.1 14.1l.8 3.5s-9.8 12.8-8.8 22.4l-11.8 32.2s6.5 2.8 28.4 3.8 21.9 0 21.9 0-2.8-53.6-11.3-62.1l-1.3-4s1.8-11.3-2.3-16.1l-1.4-2.7c-2-4.1-5.5-7.3-9.7-9.1z" fill="url(#aO)"/><linearGradient id="aP" gradientUnits="userSpaceOnUse" x1="275.811" y1="443.6" x2="283.123" y2="443.6"><stop offset="0" stop-color="#e65f5c"/><stop offset="1" stop-color="#faf287"/></linearGradient><path d="M275.8 436.9l.5 6.8s-.8 8.8 4.3 7 1-11.6 1-11.6l-.8-3-5 .8z" fill="url(#aP)"/><linearGradient id="aQ" gradientUnits="userSpaceOnUse" x1="235.814" y1="493.303" x2="252.662" y2="493.303"><stop offset="0" stop-color="#e65f5c"/><stop offset="1" stop-color="#faf287"/></linearGradient><path d="M240.8 471.9l-2.8 26.9s-3.5 2-1.8 7.5c1.8 5.5 1.3 8.3 1.3 8.3l1.8-.5.8-6.8s3 3.8 5.5 4.5c1.8.5 3.6.9 4.9-.5 1.4-1.6.7-4.2-1.2-5.1-.2-.1-.4-.2-.6-.2-1.8-.5-3.5-7.3-3.5-7.3l3-12.3 4.5-13.6-11.9-.9z" fill="url(#aQ)"/><linearGradient id="aR" gradientUnits="userSpaceOnUse" x1="270.034" y1="493.303" x2="286.882" y2="493.303"><stop offset="0" stop-color="#e65f5c"/><stop offset="1" stop-color="#faf287"/></linearGradient><path d="M275.1 471.9l-2.8 26.9s-3.5 2-1.8 7.5c1.8 5.5 1.3 8.3 1.3 8.3l1.8-.5.8-6.8s3 3.8 5.5 4.5c1.8.5 3.6.9 4.9-.5 1.4-1.6.7-4.2-1.2-5.1-.2-.1-.4-.2-.6-.2-1.8-.5-3.5-7.3-3.5-7.3l3-12.3 4.5-13.6-11.9-.9z" fill="url(#aR)"/><linearGradient id="aS" gradientUnits="userSpaceOnUse" x1="259.889" y1="414.618" x2="282.605" y2="414.618"><stop offset="0" stop-color="#e65f5c"/><stop offset="1" stop-color="#faf287"/></linearGradient><path d="M264.5 387.6s-6 3.5-4.3 11.6c1.8 8.1 14.1 42.5 14.1 42.5 2.2-2.1 5.4-2.9 8.3-2l-11.3-43.5s.7-9.8-6.8-8.6z" opacity=".4" fill="url(#aS)"/><linearGradient id="aT" gradientUnits="userSpaceOnUse" x1="260.895" y1="413.108" x2="283.611" y2="413.108"><stop offset="0" stop-color="#e65f5c"/><stop offset="1" stop-color="#faf287"/></linearGradient><path d="M265.5 386.1s-6 3.5-4.3 11.6c1.8 8.1 14.1 42.5 14.1 42.5 2.2-2.1 5.4-2.9 8.3-2l-11.3-43.5s.7-9.8-6.8-8.6z" fill="url(#aT)"/><linearGradient id="aU" gradientUnits="userSpaceOnUse" x1="251.766" y1="372.286" x2="273.346" y2="372.286"><stop offset="0" stop-color="#e65f5c"/><stop offset="1" stop-color="#faf287"/></linearGradient><path d="M273.3 368.9s1.3-10-9.2-6.7c0 0-7.5-1.4-9.9 8l-2.5 9.8 1.2-.7.6 1.2 2 .5.8-1.7.4 2 16 1.6s-7.2-4.2-7.3-11.8l1.4 1.4 6.5-3.6z" fill="url(#aU)"/><linearGradient id="aV" gradientUnits="userSpaceOnUse" x1="251.53" y1="362.338" x2="259.582" y2="362.338"><stop offset="0" stop-color="#e65f5c"/><stop offset="1" stop-color="#faf287"/></linearGradient><circle cx="255.6" cy="362.3" r="4" fill="url(#aV)"/><linearGradient id="aW" gradientUnits="userSpaceOnUse" x1="255.68" y1="361.576" x2="260.215" y2="361.576"><stop offset="0" stop-color="#e65f5c"/><stop offset="1" stop-color="#faf287"/></linearGradient><path d="M259.7 361.4c-.1-2.1-1.9-3.8-4-3.8h.3c2.2-.1 4.1 1.5 4.3 3.8.1 2.2-1.5 4.1-3.8 4.3h-.3c2.1-.4 3.6-2.2 3.5-4.3z" fill="url(#aW)"/><linearGradient id="aX" gradientUnits="userSpaceOnUse" x1="264.363" y1="372.905" x2="266.879" y2="372.905"><stop offset="0" stop-color="#e65f5c"/><stop offset="1" stop-color="#faf287"/></linearGradient><ellipse cx="265.6" cy="372.9" rx="1.3" ry="1.8" fill="url(#aX)"/></svg>