<svg xmlns="http://www.w3.org/2000/svg" width="800" height="800"><linearGradient id="a" gradientUnits="userSpaceOnUse" x1="81.946" y1="409.807" x2="672.744" y2="409.807"><stop offset="0" stop-color="#e65f5c"/><stop offset="1" stop-color="#faf287"/></linearGradient><path d="M84.7 531.9c-2.1-9.7-3.1-19.8-2.7-30.2.7-21.1 5.4-41.8 10.5-62.2C103.8 393.7 117 348 138 305.7c24.5-49.4 60.4-95.3 110.2-121 87.3-45.1 188.8-10.3 268.5 34.5 3.6 2 7.2 4.1 10.8 6.2 80 46.9 190.8 134.9 125.6 237-35 54.8-91.4 91.2-149.2 118.2-59.8 28-124.8 52.6-189.4 67.1-37.9 8.5-79.3 13.2-116.7.1-53-18.5-101.2-60.9-113.1-115.9z" fill="url(#a)"/><linearGradient id="b" gradientUnits="userSpaceOnUse" x1="117.716" y1="406.965" x2="624.716" y2="406.965"><stop offset="0" stop-color="#e65f5c"/><stop offset="1" stop-color="#faf287"/></linearGradient><path d="M120.1 511.8c-1.8-8.3-2.6-17-2.3-25.9.6-18.1 4.6-35.8 9-53.4 9.7-39.3 21.1-78.5 39-114.8 21-42.4 51.9-81.8 94.5-103.8 74.9-38.7 162-8.9 230.5 29.6 3.1 1.7 6.2 3.5 9.2 5.3 68.6 40.3 163.8 115.8 107.8 203.4-30.1 47-78.4 78.2-128.1 101.5-51.4 24-107.1 45.1-162.5 57.6-32.5 7.3-68.1 11.3-100.2.1-45.3-16.1-86.7-52.4-96.9-99.6z" fill="url(#b)"/><linearGradient id="c" gradientUnits="userSpaceOnUse" x1="147.598" y1="406.965" x2="586.506" y2="406.965"><stop offset="0" stop-color="#0d152c"/><stop offset="1" stop-color="#000024"/></linearGradient><path d="M586.5 445.4c0 7.3-.9 14.6-2.6 21.7-.6 2.4-1.3 4.7-2.1 7-1 2.8-2.1 5.6-3.3 8.3-.6 1.4-1.3 2.7-2 4 0 7.5-1.5 14.9-4.5 21.8-5.4 12.3-15.1 22.3-27.3 28.1-7.6 3.6-15.9 5.5-24.3 5.6H230.9c-12.9 0-25.5-3.4-36.7-9.8l-.2-.1c-1.6-.9-3.1-1.9-4.6-3-3.4-2.3-6.6-5-9.5-7.9-4-3.9-7.5-8.3-10.5-13-7-11.1-10.7-23.9-10.7-37-7.1-12.4-11.2-27.2-11.2-43.2 0-20.1 6.5-38.5 17.3-52.4 2.2-2.9 4.7-5.6 7.3-8.2 2.6-2.5 5.4-4.8 8.4-6.9 2.4-1.7 4.9-3.1 7.5-4.5 1.1-.5 2.2-1.1 3.3-1.5 1-.4 1.9-.8 2.9-1.2 1.2-.4 2.4-.9 3.6-1.2 1.2-.4 2.4-.7 3.6-1 1.7-.4 3.5-.8 5.3-1 1.5-.2 3-.4 4.5-.5 1.2-.1 2.4-.1 3.6-.2h.7c1.3 0 2.6.1 4 .1.1-.3.3-.6.4-.8.5-1 1.1-2 1.6-3 .1-.2.2-.3.3-.5.4-.8.9-1.6 1.4-2.4.2-.4.4-.7.6-1.1 0-.1.1-.2.2-.3.2-.4.5-.7.7-1.1 1.2-1.8 2.3-3.6 3.6-5.4l.3-.5c.2-.3.4-.5.6-.8.5-.7 1-1.4 1.6-2.2.4-.5.7-1 1.1-1.5 1-1.2 2-2.5 3-3.7 1-1.2 2.1-2.5 3.2-3.7.1-.2.3-.3.5-.5l1.6-1.7c.1-.1.1-.2.2-.2l.6-.6c.9-.9 1.7-1.8 2.6-2.7 4.5-4.5 9.2-8.6 14.3-12.4.2-.2.4-.3.6-.5.9-.7 1.9-1.4 2.9-2.1 5.3-3.8 10.8-7.2 16.5-10.3l1.2-.6c5.1-2.7 10.4-5.2 15.8-7.3 2.9-1.2 6-2.3 9-3.3 2-.7 4-1.3 6.1-1.9 3.2-.9 6.4-1.8 9.7-2.5 9.6-2.2 19.3-3.5 29.2-4 3-.2 6-.2 9-.2 14.7 0 29.4 1.8 43.6 5.5.3.5.8.7 1.4.7h1.3c.5.1 1.1.3 1.6.5 3 .9 6 1.8 9 2.9l.7.3c7.3 2.6 14.4 5.7 21.2 9.3 6.2 3.2 12.1 6.9 17.8 11 .9.6 1.7 1.3 2.6 1.9 1-.7 2.1-1.3 3.1-1.9 4.1-2.3 8.5-4.2 13-5.5 9.5-2.8 19.5-3.2 29.2-1.1 12.4 2.6 23.6 9.1 32.7 18.4 3.7 3.8 7 8 9.8 12.4.2.3.4.6.6 1 2.4 4 4.5 8.1 6.2 12.4.1.2.1.3.2.5 1.6 4 2.9 8.2 3.8 12.4 0 .2.1.4.1.6.9 4.1 1.5 8.3 1.8 12.4v.5c.2 2.2.2 4.3.2 6.6 0 2-.1 3.9-.2 5.9v.7c0 .6-.1 1.1-.1 1.7 2.8 2.3 5.5 4.8 8 7.5 1.1 1.2 2.1 2.4 3.2 3.7 3.1 3.9 5.8 8 8.1 12.4 6.1 12.1 9.7 26.1 9.7 41.1z" fill="url(#c)"/><linearGradient id="d" gradientUnits="userSpaceOnUse" x1="242.086" y1="496.429" x2="484.877" y2="496.429"><stop offset="0" stop-color="#e65f5c"/><stop offset="1" stop-color="#faf287"/></linearGradient><path fill="url(#d)" d="M242.1 487.5h242.8v17.9H242.1z"/><linearGradient id="e" gradientUnits="userSpaceOnUse" x1="242.026" y1="487.178" x2="484.649" y2="487.178"><stop offset="0" stop-color="#e65f5c"/><stop offset="1" stop-color="#faf287"/></linearGradient><path fill="url(#e)" d="M484.5 487.5H242v-.6h242.6z"/><linearGradient id="f" gradientUnits="userSpaceOnUse" x1="294.458" y1="381.722" x2="432.505" y2="381.722"><stop offset="0" stop-color="#e65f5c"/><stop offset="1" stop-color="#faf287"/></linearGradient><path d="M432.5 389.7v53.1h-138v-53.1c0-36.6 28.5-66.8 65-68.9 1.3-.1 2.6-.1 4-.1h2.3c17.5.6 34.2 7.8 46.5 20.2l1.1 1.1c12.3 12.9 19.1 29.9 19.1 47.7z" fill="url(#f)"/><linearGradient id="g" gradientUnits="userSpaceOnUse" x1="359.496" y1="381.722" x2="365.758" y2="381.722"><stop offset="0" stop-color="#0d152c"/><stop offset="1" stop-color="#000024"/></linearGradient><path d="M365.8 320.7v122.1h-6.3v-122c1.3-.1 2.6-.1 4-.1h2.3z" fill="url(#g)"/><linearGradient id="h" gradientUnits="userSpaceOnUse" x1="308.26" y1="345.147" x2="418.703" y2="345.147"><stop offset="0" stop-color="#0d152c"/><stop offset="1" stop-color="#000024"/></linearGradient><path d="M418.7 348.3H308.3c1.6-2.2 3.4-4.3 5.3-6.3h99.8c1.9 2 3.7 4.1 5.3 6.3z" fill="url(#h)"/><linearGradient id="i" gradientUnits="userSpaceOnUse" x1="373.073" y1="407.624" x2="421.999" y2="407.624"><stop offset="0" stop-color="#e65f5c"/><stop offset="1" stop-color="#faf287"/></linearGradient><path fill="url(#i)" d="M373.1 366.2H422V449h-48.9z"/><linearGradient id="j" gradientUnits="userSpaceOnUse" x1="382.734" y1="383.903" x2="390.135" y2="383.903"><stop offset="0" stop-color="#0d152c"/><stop offset="1" stop-color="#000024"/></linearGradient><path fill="url(#j)" d="M382.7 380.2h7.4v7.4h-7.4z"/><linearGradient id="k" gradientUnits="userSpaceOnUse" x1="394.658" y1="383.903" x2="402.058" y2="383.903"><stop offset="0" stop-color="#0d152c"/><stop offset="1" stop-color="#000024"/></linearGradient><path fill="url(#k)" d="M394.7 380.2h7.4v7.4h-7.4z"/><linearGradient id="l" gradientUnits="userSpaceOnUse" x1="406.581" y1="383.903" x2="413.981" y2="383.903"><stop offset="0" stop-color="#0d152c"/><stop offset="1" stop-color="#000024"/></linearGradient><path fill="url(#l)" d="M406.6 380.2h7.4v7.4h-7.4z"/><linearGradient id="m" gradientUnits="userSpaceOnUse" x1="382.94" y1="400.76" x2="390.341" y2="400.76"><stop offset="0" stop-color="#0d152c"/><stop offset="1" stop-color="#000024"/></linearGradient><path fill="url(#m)" d="M382.9 397.1h7.4v7.4h-7.4z"/><linearGradient id="n" gradientUnits="userSpaceOnUse" x1="394.863" y1="400.76" x2="402.264" y2="400.76"><stop offset="0" stop-color="#0d152c"/><stop offset="1" stop-color="#000024"/></linearGradient><path fill="url(#n)" d="M394.9 397.1h7.4v7.4h-7.4z"/><linearGradient id="o" gradientUnits="userSpaceOnUse" x1="406.786" y1="400.76" x2="414.187" y2="400.76"><stop offset="0" stop-color="#e65f5c"/><stop offset="1" stop-color="#faf287"/></linearGradient><path fill="url(#o)" d="M406.8 397.1h7.4v7.4h-7.4z"/><linearGradient id="p" gradientUnits="userSpaceOnUse" x1="383.146" y1="417.617" x2="390.546" y2="417.617"><stop offset="0" stop-color="#0d152c"/><stop offset="1" stop-color="#000024"/></linearGradient><path fill="url(#p)" d="M383.1 413.9h7.4v7.4h-7.4z"/><linearGradient id="q" gradientUnits="userSpaceOnUse" x1="395.069" y1="417.617" x2="402.469" y2="417.617"><stop offset="0" stop-color="#0d152c"/><stop offset="1" stop-color="#000024"/></linearGradient><path fill="url(#q)" d="M395.1 413.9h7.4v7.4h-7.4z"/><linearGradient id="r" gradientUnits="userSpaceOnUse" x1="406.992" y1="417.617" x2="414.392" y2="417.617"><stop offset="0" stop-color="#e65f5c"/><stop offset="1" stop-color="#faf287"/></linearGradient><path fill="url(#r)" d="M407 413.9h7.4v7.4H407z"/><linearGradient id="s" gradientUnits="userSpaceOnUse" x1="383.351" y1="434.474" x2="390.752" y2="434.474"><stop offset="0" stop-color="#e65f5c"/><stop offset="1" stop-color="#faf287"/></linearGradient><path fill="url(#s)" d="M383.4 430.8h7.4v7.4h-7.4z"/><linearGradient id="t" gradientUnits="userSpaceOnUse" x1="395.274" y1="434.474" x2="402.675" y2="434.474"><stop offset="0" stop-color="#e65f5c"/><stop offset="1" stop-color="#faf287"/></linearGradient><path fill="url(#t)" d="M395.3 430.8h7.4v7.4h-7.4z"/><linearGradient id="u" gradientUnits="userSpaceOnUse" x1="407.197" y1="434.474" x2="414.598" y2="434.474"><stop offset="0" stop-color="#e65f5c"/><stop offset="1" stop-color="#faf287"/></linearGradient><path fill="url(#u)" d="M407.2 430.8h7.4v7.4h-7.4z"/><linearGradient id="v" gradientUnits="userSpaceOnUse" x1="383.351" y1="434.474" x2="390.752" y2="434.474"><stop offset="0" stop-color="#e65f5c"/><stop offset="1" stop-color="#faf287"/></linearGradient><path fill="url(#v)" d="M383.4 430.8h7.4v7.4h-7.4z"/><linearGradient id="w" gradientUnits="userSpaceOnUse" x1="395.274" y1="434.474" x2="402.675" y2="434.474"><stop offset="0" stop-color="#e65f5c"/><stop offset="1" stop-color="#faf287"/></linearGradient><path fill="url(#w)" d="M395.3 430.8h7.4v7.4h-7.4z"/><linearGradient id="x" gradientUnits="userSpaceOnUse" x1="407.197" y1="434.474" x2="414.598" y2="434.474"><stop offset="0" stop-color="#e65f5c"/><stop offset="1" stop-color="#faf287"/></linearGradient><path fill="url(#x)" d="M407.2 430.8h7.4v7.4h-7.4z"/><linearGradient id="y" gradientUnits="userSpaceOnUse" x1="300.668" y1="415.734" x2="321.067" y2="415.734"><stop offset="0" stop-color="#0d152c"/><stop offset="1" stop-color="#000024"/></linearGradient><circle cx="310.9" cy="415.7" r="10.2" fill="url(#y)"/><linearGradient id="z" gradientUnits="userSpaceOnUse" x1="310.363" y1="430.193" x2="311.428" y2="430.193"><stop offset="0" stop-color="#0d152c"/><stop offset="1" stop-color="#000024"/></linearGradient><path fill="url(#z)" d="M310.9 415.7l.5 29h-1z"/><linearGradient id="A" gradientUnits="userSpaceOnUse" x1="310.832" y1="431.707" x2="312.753" y2="431.707"><stop offset="0" stop-color="#0d152c"/><stop offset="1" stop-color="#000024"/></linearGradient><path fill="url(#A)" d="M312.5 431l.3.5-1.7.9-.3-.5z"/><linearGradient id="B" gradientUnits="userSpaceOnUse" x1="325.344" y1="400.677" x2="356.365" y2="400.677"><stop offset="0" stop-color="#0d152c"/><stop offset="1" stop-color="#000024"/></linearGradient><circle cx="340.9" cy="400.7" r="15.5" fill="url(#B)"/><linearGradient id="C" gradientUnits="userSpaceOnUse" x1="340.088" y1="422.665" x2="341.707" y2="422.665"><stop offset="0" stop-color="#0d152c"/><stop offset="1" stop-color="#000024"/></linearGradient><path fill="url(#C)" d="M340.9 400.7l.8 44h-1.6z"/><linearGradient id="D" gradientUnits="userSpaceOnUse" x1="340.8" y1="424.966" x2="343.722" y2="424.966"><stop offset="0" stop-color="#0d152c"/><stop offset="1" stop-color="#000024"/></linearGradient><path fill="url(#D)" d="M343.4 424l.3.6-2.5 1.4-.4-.7z"/><linearGradient id="E" gradientUnits="userSpaceOnUse" x1="304.948" y1="385.692" x2="311.483" y2="385.692"><stop offset="0" stop-color="#0d152c"/><stop offset="1" stop-color="#000024"/></linearGradient><path d="M308.9 385.9l2.6-2.1c-2-.2-2.9.9-3.2 1.8-1.6-.7-3.3.2-3.3.2l5.2 1.9c-.3-.8-.7-1.4-1.3-1.8z" fill="url(#E)"/><linearGradient id="F" gradientUnits="userSpaceOnUse" x1="332.557" y1="368.614" x2="339.093" y2="368.614"><stop offset="0" stop-color="#0d152c"/><stop offset="1" stop-color="#000024"/></linearGradient><path d="M336.5 368.8l2.6-2.1c-2-.2-2.9.9-3.2 1.8-1.6-.7-3.3.2-3.3.2l5.2 1.9c-.3-.7-.7-1.4-1.3-1.8z" fill="url(#F)"/><linearGradient id="G" gradientUnits="userSpaceOnUse" x1="322.026" y1="384.838" x2="328.561" y2="384.838"><stop offset="0" stop-color="#0d152c"/><stop offset="1" stop-color="#000024"/></linearGradient><path d="M325.9 385l2.6-2.1c-2-.2-2.9.9-3.2 1.8-1.6-.7-3.3.2-3.3.2l5.2 1.9c-.2-.7-.7-1.3-1.3-1.8z" fill="url(#G)"/><linearGradient id="H" gradientUnits="userSpaceOnUse" x1="287.2" y1="442.776" x2="439.763" y2="442.776"><stop offset="0" stop-color="#0d152c"/><stop offset="1" stop-color="#000024"/></linearGradient><path fill="url(#H)" d="M287.2 436.5h152.6V449H287.2z"/><linearGradient id="I" gradientUnits="userSpaceOnUse" x1="242.086" y1="456.188" x2="264.413" y2="456.188"><stop offset="0" stop-color="#e65f5c"/><stop offset="1" stop-color="#faf287"/></linearGradient><path d="M264.4 469.1s-30.9-14.2-20-24.1 20 24.1 20 24.1z" fill="url(#I)"/><linearGradient id="J" gradientUnits="userSpaceOnUse" x1="259.171" y1="450.202" x2="278.394" y2="450.202"><stop offset="0" stop-color="#e65f5c"/><stop offset="1" stop-color="#faf287"/></linearGradient><path d="M263.9 472.4s-14.2-46.6 6.7-44.4-6.7 44.4-6.7 44.4z" fill="url(#J)"/><linearGradient id="K" gradientUnits="userSpaceOnUse" x1="253.534" y1="479.872" x2="271.64" y2="479.872"><stop offset="0" stop-color="#e65f5c"/><stop offset="1" stop-color="#faf287"/></linearGradient><path d="M253.5 468.3l.6 7.8v.1c0 1.2.1 2.4.2 3.6.8 8 4.3 11.6 8.3 11.6s7.4-3.6 8.2-11.6c.1-1.2.2-2.4.2-3.6v-.1l.6-7.8h-18.1z" fill="url(#K)"/><linearGradient id="L" gradientUnits="userSpaceOnUse" x1="254.129" y1="477.982" x2="271.042" y2="477.982"><stop offset="0" stop-color="#e65f5c"/><stop offset="1" stop-color="#faf287"/></linearGradient><path d="M271 476.1v.1c0 1.2-.1 2.4-.2 3.6h-16.5c-.1-1.2-.2-2.4-.2-3.6v-.1H271z" fill="url(#L)"/><linearGradient id="M" gradientUnits="userSpaceOnUse" x1="448.567" y1="456.188" x2="470.894" y2="456.188"><stop offset="0" stop-color="#e65f5c"/><stop offset="1" stop-color="#faf287"/></linearGradient><path d="M470.9 469.1s-30.9-14.2-20-24.1 20 24.1 20 24.1z" fill="url(#M)"/><linearGradient id="N" gradientUnits="userSpaceOnUse" x1="465.652" y1="450.202" x2="484.875" y2="450.202"><stop offset="0" stop-color="#e65f5c"/><stop offset="1" stop-color="#faf287"/></linearGradient><path d="M470.4 472.4s-14.2-46.6 6.7-44.4c20.8 2.3-6.7 44.4-6.7 44.4z" fill="url(#N)"/><linearGradient id="O" gradientUnits="userSpaceOnUse" x1="460.015" y1="479.872" x2="478.121" y2="479.872"><stop offset="0" stop-color="#e65f5c"/><stop offset="1" stop-color="#faf287"/></linearGradient><path d="M460 468.3l.6 7.8v.1c0 1.2.1 2.4.2 3.6.8 8 4.3 11.6 8.3 11.6 4.1 0 7.4-3.6 8.2-11.6.1-1.2.2-2.4.2-3.6v-.1l.6-7.8H460z" fill="url(#O)"/><linearGradient id="P" gradientUnits="userSpaceOnUse" x1="460.61" y1="477.982" x2="477.523" y2="477.982"><stop offset="0" stop-color="#e65f5c"/><stop offset="1" stop-color="#faf287"/></linearGradient><path d="M477.5 476.1v.1c0 1.2-.1 2.4-.2 3.6h-16.5c-.1-1.2-.2-2.4-.2-3.6v-.1h16.9z" fill="url(#P)"/><linearGradient id="Q" gradientUnits="userSpaceOnUse" x1="420.736" y1="493.186" x2="433.438" y2="493.186"><stop offset="0" stop-color="#0d152c"/><stop offset="1" stop-color="#000024"/></linearGradient><path d="M429.9 497.3l-2 .2c-1.6 1-3.5 1.3-5.6 1.3-.6 0-1.1-.3-1.4-.9-.4-.8-.1-1.8.7-2.2.1-.1.3-.1.4-.2l1.5-.4 3.7-3.6 2.2-4.1 3.3.4.7 5.1c.2 2.3-1.3 4.2-3.5 4.4z" fill="url(#Q)"/><linearGradient id="R" gradientUnits="userSpaceOnUse" x1="389.256" y1="491.064" x2="401.48" y2="491.064"><stop offset="0" stop-color="#0d152c"/><stop offset="1" stop-color="#000024"/></linearGradient><path d="M398.4 494.7l-2 .5c-1.5 1.1-3.3 1.7-5.4 1.9-.6 0-1.2-.2-1.5-.7-.5-.7-.3-1.8.4-2.3.1-.1.3-.2.4-.2l1.5-.5 3.3-4 1.8-4.3h3.3l1.3 5c.3 2.1-1 4.1-3.1 4.6z" fill="url(#R)"/><linearGradient id="S" gradientUnits="userSpaceOnUse" x1="393.937" y1="456.154" x2="433.334" y2="456.154"><stop offset="0" stop-color="#e65f5c"/><stop offset="1" stop-color="#faf287"/></linearGradient><path d="M396.8 485.3l3.7.6 5.8-29.5 10.1-17.2 12.2 50.1 4.6.9c-.5-28.2 2-63.7-3.7-68l-24.8 2.8-10.8 29 2.9 31.3z" fill="url(#S)"/><linearGradient id="T" gradientUnits="userSpaceOnUse" x1="406.176" y1="369.768" x2="423.254" y2="369.768"><stop offset="0" stop-color="#e65f5c"/><stop offset="1" stop-color="#faf287"/></linearGradient><circle cx="414.7" cy="369.8" r="8.5" fill="url(#T)"/><linearGradient id="U" gradientUnits="userSpaceOnUse" x1="413.861" y1="378.876" x2="426.67" y2="378.876"><stop offset="0" stop-color="#e65f5c"/><stop offset="1" stop-color="#faf287"/></linearGradient><path fill="url(#U)" d="M426.7 382.9l-10.3 1.7-2.5-9.1 7.4-2.3z"/><linearGradient id="V" gradientUnits="userSpaceOnUse" x1="403.614" y1="402.785" x2="430.939" y2="402.785"><stop offset="0" stop-color="#0d152c"/><stop offset="1" stop-color="#000024"/></linearGradient><path d="M430.9 423.3l-27.3 2.6c2.2-7.6 4.2-15.2 2.6-22.8-2.1-6.8-.1-10.8 5.4-13.9l3.7-8.3 10-1.1c2.6 4.2 3.7 9.3 3.1 14.2-1.5 10.7-1.1 20.7 2.5 29.3z" fill="url(#V)"/><linearGradient id="W" gradientUnits="userSpaceOnUse" x1="402.631" y1="371.844" x2="427.649" y2="371.844"><stop offset="0" stop-color="#0d152c"/><stop offset="1" stop-color="#000024"/></linearGradient><path d="M414.5 359.7c-2.8.7-6.1 1.6-6.3 2.4-2.9.7-5.1 2.5-5.6 5.2-.1.9.5 1.7 1.3 1.9h.3c1.6 0 4-.2 5.6-.8 4.6 3 5.4 10.7 3.4 15.9l3.2-.3 3.3-9.6.8 9.2 7.2-1-.9-11.7c-.3-2.8-1.2-5.4-2.7-7.7-.2-.2-.3-.5-.5-.7-2.4-2.5-5.8-3.6-9.1-2.8z" fill="url(#W)"/><linearGradient id="X" gradientUnits="userSpaceOnUse" x1="396.435" y1="499.612" x2="401.264" y2="499.612"><stop offset="0" stop-color="#0d152c"/><stop offset="1" stop-color="#000024"/></linearGradient><path d="M396.4 500.3c-.1.6.3 1 .9 1.1H400.6c.4 0 .6-.3.6-.7 0-.3-.2-.5-.4-.6l-.9-.4-1.4-1.9h-1.1c-.5.7-.9 1.6-1 2.5z" fill="url(#X)"/><linearGradient id="Y" gradientUnits="userSpaceOnUse" x1="383.953" y1="499.612" x2="388.783" y2="499.612"><stop offset="0" stop-color="#0d152c"/><stop offset="1" stop-color="#000024"/></linearGradient><path d="M388.8 500.3c.1.6-.3 1-.9 1.1H384.6c-.4 0-.6-.3-.6-.7 0-.3.2-.5.4-.6l.9-.4 1.4-1.9h1.1c.5.7.9 1.6 1 2.5z" fill="url(#Y)"/><linearGradient id="Z" gradientUnits="userSpaceOnUse" x1="386.426" y1="481.728" x2="401.402" y2="481.728"><stop offset="0" stop-color="#e65f5c"/><stop offset="1" stop-color="#faf287"/></linearGradient><path fill="url(#Z)" d="M386.4 497.8h1.7l5.7-25 3.1 25.3h1.9l2.6-32.6-13.3-.1z"/><linearGradient id="aa" gradientUnits="userSpaceOnUse" x1="379.007" y1="447.773" x2="381.856" y2="447.773"><stop offset="0" stop-color="#e65f5c"/><stop offset="1" stop-color="#faf287"/></linearGradient><path d="M379 451.9h2.2v-5.2l.5-1c.4-.7.1-1.6-.6-1.9-.1-.1-.3-.1-.4-.1-.8-.1-1.5.4-1.6 1.2v7z" fill="url(#aa)"/><linearGradient id="ab" gradientUnits="userSpaceOnUse" x1="386.976" y1="433.916" x2="397.143" y2="433.916"><stop offset="0" stop-color="#e65f5c"/><stop offset="1" stop-color="#faf287"/></linearGradient><circle cx="392.1" cy="433.9" r="5.1" fill="url(#ab)"/><linearGradient id="ac" gradientUnits="userSpaceOnUse" x1="389.998" y1="439.549" x2="395.219" y2="439.549"><stop offset="0" stop-color="#e65f5c"/><stop offset="1" stop-color="#faf287"/></linearGradient><path fill="url(#ac)" d="M390 436.5h5.2v6H390z"/><linearGradient id="ad" gradientUnits="userSpaceOnUse" x1="386.151" y1="454.46" x2="402.089" y2="454.46"><stop offset="0" stop-color="#e65f5c"/><stop offset="1" stop-color="#faf287"/></linearGradient><path d="M387.5 466.2c4.6 2.9 9.5 2.6 14.6.3l-1.1-25.6-5.8-.3-6 .8-3 2.5 1.3 22.3z" fill="url(#ad)"/><linearGradient id="ae" gradientUnits="userSpaceOnUse" x1="378.182" y1="450.54" x2="388.075" y2="450.54"><stop offset="0" stop-color="#0d152c"/><stop offset="1" stop-color="#000024"/></linearGradient><path fill="url(#ae)" d="M382 457.1l6.1-4.6-1.9-8.6-3.6 6.6-1.1-1.1-3.3 2.5z"/><linearGradient id="af" gradientUnits="userSpaceOnUse" x1="402.869" y1="438.528" x2="408.864" y2="438.528"><stop offset="0" stop-color="#e65f5c"/><stop offset="1" stop-color="#faf287"/></linearGradient><path d="M408.9 441.4l-1.9 1.1-2.5-4.6-.9-.6c-.6-.4-.8-1.3-.4-2l.3-.3c.6-.5 1.5-.4 2 .3 0 .1.1.1.1.2l.8 1.4 2.5 4.5z" fill="url(#af)"/><linearGradient id="ag" gradientUnits="userSpaceOnUse" x1="398.104" y1="443.19" x2="409.783" y2="443.19"><stop offset="0" stop-color="#0d152c"/><stop offset="1" stop-color="#000024"/></linearGradient><path fill="url(#ag)" d="M398.1 449l7.3-3.8 3.8-2.1.6-3.3-2.5-2.4-3 1.9.3 2.2-3.6-.6z"/><linearGradient id="ah" gradientUnits="userSpaceOnUse" x1="387.113" y1="431.992" x2="399.204" y2="431.992"><stop offset="0" stop-color="#0d152c"/><stop offset="1" stop-color="#000024"/></linearGradient><circle cx="393.2" cy="432" r="6" fill="url(#ah)"/><linearGradient id="ai" gradientUnits="userSpaceOnUse" x1="393.708" y1="425.122" x2="399.204" y2="425.122"><stop offset="0" stop-color="#0d152c"/><stop offset="1" stop-color="#000024"/></linearGradient><circle cx="396.5" cy="425.1" r="2.7" fill="url(#ai)"/><linearGradient id="aj" gradientUnits="userSpaceOnUse" x1="395.942" y1="425.887" x2="400.945" y2="425.887"><stop offset="0" stop-color="#e65f5c"/><stop offset="1" stop-color="#faf287"/></linearGradient><path d="M396.3 427.4c1.3.7 3 .2 3.7-1.2.5-.9.4-2-.2-2.8 1.2.9 1.5 2.6.5 3.8-.9 1.2-2.6 1.5-3.8.5l-.6-.6c.2.2.3.2.4.3z" fill="url(#aj)"/><linearGradient id="ak" gradientUnits="userSpaceOnUse" x1="406.276" y1="418.474" x2="420.977" y2="418.474"><stop offset="0" stop-color="#e65f5c"/><stop offset="1" stop-color="#faf287"/></linearGradient><path d="M413.3 431.8l.2 6.6c.1 1.9-1.4 3.5-3.2 3.7-2 .2-3.7-1.2-3.9-3.2 0-.4 0-.9.1-1.3l1.5-5.5 4.3-23.3-.3-13.7 9.1-.3-1.7 15.4-6.1 21.6z" fill="url(#ak)"/><linearGradient id="al" gradientUnits="userSpaceOnUse" x1="411.3" y1="388.269" x2="421.546" y2="388.269"><stop offset="0" stop-color="#0d152c"/><stop offset="1" stop-color="#000024"/></linearGradient><path d="M421.5 396.2c-3.3-1.3-6.9-1.3-10.2 0l.6-11.4c0-2.5 2-4.6 4.6-4.6 2.5 0 4.6 2 4.6 4.6l.4 11.4z" fill="url(#al)"/></svg>