<svg xmlns="http://www.w3.org/2000/svg" width="800" height="800"><linearGradient id="a" gradientUnits="userSpaceOnUse" x1="60.985" y1="400" x2="739.015" y2="400"><stop offset="0" stop-color="#e6615d"/><stop offset="1" stop-color="#faf28a"/></linearGradient><path d="M64.2 540.1c-2.4-11.1-3.5-22.7-3.1-34.6.8-24.2 6.2-47.9 12-71.4 13-52.6 28.2-105 52.2-153.6 28.1-56.7 69.4-109.3 126.4-138.8 100.2-51.7 216.7-11.9 308.2 39.6 4.1 2.3 8.3 4.7 12.4 7.1 91.8 53.8 219 154.8 144.1 272-40.2 62.7-104.9 104.4-171.3 135.5-68.7 32.1-143.3 60.3-217.3 77-43.4 9.8-91 15.1-134 .1-60.6-21.2-115.9-69.8-129.6-132.9z" fill="url(#a)"/><linearGradient id="b" gradientUnits="userSpaceOnUse" x1="102.009" y1="396.693" x2="683.91" y2="396.693"><stop offset="0" stop-color="#e6615d"/><stop offset="1" stop-color="#faf28a"/></linearGradient><path d="M104.8 516.9c-2.1-9.5-3-19.5-2.7-29.7.7-20.7 5.3-41.1 10.3-61.3 11.2-45.1 24.2-90.1 44.8-131.8 24.1-48.7 59.5-93.8 108.5-119.1 85.9-44.4 185.9-10.2 264.5 33.9 3.6 2 7.1 4 10.6 6.1 78.8 46.2 188 132.9 123.7 233.4-34.5 53.9-90 89.8-147 116.4-58.9 27.6-123 51.8-186.5 66.1-37.3 8.4-78.1 13-115 .1-52-18.2-99.5-59.9-111.2-114.1z" fill="url(#b)"/></svg>